G04 (created by PCBNEW (2013-04-19 BZR 4011)-stable) date 6/9/2013 6:15:15 PM*
%MOIN*%
G04 Gerber Fmt 3.4, Leading zero omitted, Abs format*
%FSLAX34Y34*%
G01*
G70*
G90*
G04 APERTURE LIST*
%ADD10C,0.006*%
%ADD11R,0.055X0.055*%
%ADD12C,0.055*%
%ADD13R,0.06X0.06*%
%ADD14C,0.06*%
%ADD15R,0.045X0.025*%
%ADD16R,0.025X0.045*%
%ADD17R,0.0314X0.0314*%
%ADD18R,0.099X0.04*%
%ADD19R,0.24X0.099*%
%ADD20R,0.0157X0.0236*%
%ADD21R,0.022X0.05*%
%ADD22R,0.05X0.022*%
%ADD23C,0.0314961*%
G04 APERTURE END LIST*
G54D10*
G54D11*
X72000Y-44000D03*
G54D12*
X72000Y-43000D03*
X72000Y-42000D03*
X72000Y-41000D03*
G54D13*
X77000Y-40000D03*
G54D14*
X77000Y-39000D03*
X78000Y-40000D03*
X78000Y-39000D03*
X79000Y-40000D03*
X79000Y-39000D03*
X80000Y-40000D03*
X80000Y-39000D03*
X81000Y-40000D03*
X81000Y-39000D03*
G54D13*
X79500Y-48000D03*
G54D14*
X79500Y-47000D03*
X80500Y-48000D03*
X80500Y-47000D03*
X81500Y-48000D03*
X81500Y-47000D03*
G54D15*
X75500Y-42700D03*
X75500Y-43300D03*
G54D12*
X73500Y-39000D03*
X75500Y-39000D03*
X73500Y-42000D03*
X75500Y-42000D03*
G54D16*
X81200Y-43000D03*
X81800Y-43000D03*
G54D17*
X83205Y-43000D03*
X83795Y-43000D03*
G54D18*
X81505Y-44000D03*
X81505Y-45000D03*
G54D19*
X84090Y-44500D03*
G54D16*
X78300Y-47000D03*
X77700Y-47000D03*
G54D15*
X81000Y-41800D03*
X81000Y-41200D03*
G54D14*
X84960Y-39672D03*
X84960Y-47664D03*
G54D20*
X77823Y-48000D03*
X78177Y-48000D03*
G54D21*
X77460Y-44910D03*
X77770Y-44910D03*
X78080Y-44910D03*
X78390Y-44910D03*
X78690Y-44910D03*
X79000Y-44910D03*
X79310Y-44910D03*
X79620Y-44910D03*
G54D22*
X80230Y-44300D03*
X80230Y-43990D03*
X80230Y-43680D03*
X80230Y-43370D03*
X80230Y-43070D03*
X80230Y-42760D03*
X80230Y-42450D03*
X80230Y-42140D03*
G54D21*
X79620Y-41530D03*
X79310Y-41530D03*
X79000Y-41530D03*
X78690Y-41530D03*
X78390Y-41530D03*
X78080Y-41530D03*
X77770Y-41530D03*
X77460Y-41530D03*
G54D22*
X76850Y-42140D03*
X76850Y-42450D03*
X76850Y-42760D03*
X76850Y-43070D03*
X76850Y-43370D03*
X76850Y-43680D03*
X76850Y-43990D03*
X76850Y-44300D03*
G54D14*
X71631Y-46153D03*
X72615Y-46153D03*
X74584Y-46153D03*
X75568Y-46153D03*
X73600Y-48122D03*
G54D23*
X71631Y-48122D03*
X75568Y-48122D03*
X75568Y-49106D03*
X71631Y-49106D03*
X73600Y-46153D03*
M02*
