G04 (created by PCBNEW (2013-04-19 BZR 4011)-stable) date 6/9/2013 6:15:31 PM*
%MOIN*%
G04 Gerber Fmt 3.4, Leading zero omitted, Abs format*
%FSLAX34Y34*%
G01*
G70*
G90*
G04 APERTURE LIST*
%ADD10C,0.005*%
%ADD11C,0.00393701*%
%ADD12C,0.00787402*%
%ADD13C,0.011811*%
G04 APERTURE END LIST*
G54D10*
G54D11*
X71000Y-38000D02*
X87000Y-38000D01*
X87000Y-49500D02*
X71000Y-49500D01*
X87000Y-49500D02*
X87000Y-38000D01*
X71000Y-38000D02*
X71000Y-49500D01*
G54D12*
X75935Y-43815D02*
X76185Y-44065D01*
X76185Y-43815D02*
X75935Y-44065D01*
X76535Y-44855D02*
X76785Y-45105D01*
X76785Y-44855D02*
X76535Y-45105D01*
X77595Y-42275D02*
X77845Y-42525D01*
X77845Y-42275D02*
X77595Y-42525D01*
X78555Y-38235D02*
X78805Y-38485D01*
X78805Y-38235D02*
X78555Y-38485D01*
X78735Y-43935D02*
X78985Y-44185D01*
X78985Y-43935D02*
X78735Y-44185D01*
X78755Y-45675D02*
X79005Y-45925D01*
X79005Y-45675D02*
X78755Y-45925D01*
X78955Y-42015D02*
X79205Y-42265D01*
X79205Y-42015D02*
X78955Y-42265D01*
X79375Y-42815D02*
X79625Y-43065D01*
X79625Y-42815D02*
X79375Y-43065D01*
X79555Y-45535D02*
X79805Y-45785D01*
X79805Y-45535D02*
X79555Y-45785D01*
X79815Y-40895D02*
X80065Y-41145D01*
X80065Y-40895D02*
X79815Y-41145D01*
X80095Y-41315D02*
X80345Y-41565D01*
X80345Y-41315D02*
X80095Y-41565D01*
X80235Y-45455D02*
X80485Y-45705D01*
X80485Y-45455D02*
X80235Y-45705D01*
X71788Y-48122D02*
G75*
G03X71788Y-48122I-157J0D01*
G74*
G01*
X71788Y-49106D02*
G75*
G03X71788Y-49106I-157J0D01*
G74*
G01*
X73757Y-46153D02*
G75*
G03X73757Y-46153I-157J0D01*
G74*
G01*
X75725Y-48122D02*
G75*
G03X75725Y-48122I-157J0D01*
G74*
G01*
X75725Y-49106D02*
G75*
G03X75725Y-49106I-157J0D01*
G74*
G01*
X85117Y-39672D02*
G75*
G03X85117Y-39672I-157J0D01*
G74*
G01*
X85117Y-47664D02*
G75*
G03X85117Y-47664I-157J0D01*
G74*
G01*
X72000Y-40840D02*
X72000Y-41160D01*
X71840Y-41000D02*
X72160Y-41000D01*
X72000Y-41840D02*
X72000Y-42160D01*
X71840Y-42000D02*
X72160Y-42000D01*
X72000Y-42840D02*
X72000Y-43160D01*
X71840Y-43000D02*
X72160Y-43000D01*
X72000Y-43840D02*
X72000Y-44160D01*
X71840Y-44000D02*
X72160Y-44000D01*
X73500Y-38840D02*
X73500Y-39160D01*
X73340Y-39000D02*
X73660Y-39000D01*
X73500Y-41840D02*
X73500Y-42160D01*
X73340Y-42000D02*
X73660Y-42000D01*
X75500Y-38840D02*
X75500Y-39160D01*
X75340Y-39000D02*
X75660Y-39000D01*
X75500Y-41840D02*
X75500Y-42160D01*
X75340Y-42000D02*
X75660Y-42000D01*
X71772Y-46294D02*
X71772Y-46012D01*
X71490Y-46012D01*
X71490Y-46294D01*
X71772Y-46294D01*
X72757Y-46294D02*
X72757Y-46012D01*
X72474Y-46012D01*
X72474Y-46294D01*
X72757Y-46294D01*
X73741Y-48263D02*
X73741Y-47980D01*
X73458Y-47980D01*
X73458Y-48263D01*
X73741Y-48263D01*
X74725Y-46294D02*
X74725Y-46012D01*
X74442Y-46012D01*
X74442Y-46294D01*
X74725Y-46294D01*
X75709Y-46294D02*
X75709Y-46012D01*
X75427Y-46012D01*
X75427Y-46294D01*
X75709Y-46294D01*
X77141Y-39141D02*
X77141Y-38858D01*
X76858Y-38858D01*
X76858Y-39141D01*
X77141Y-39141D01*
X77141Y-40141D02*
X77141Y-39858D01*
X76858Y-39858D01*
X76858Y-40141D01*
X77141Y-40141D01*
X78141Y-39141D02*
X78141Y-38858D01*
X77858Y-38858D01*
X77858Y-39141D01*
X78141Y-39141D01*
X78141Y-40141D02*
X78141Y-39858D01*
X77858Y-39858D01*
X77858Y-40141D01*
X78141Y-40141D01*
X79141Y-39141D02*
X79141Y-38858D01*
X78858Y-38858D01*
X78858Y-39141D01*
X79141Y-39141D01*
X79141Y-40141D02*
X79141Y-39858D01*
X78858Y-39858D01*
X78858Y-40141D01*
X79141Y-40141D01*
X79641Y-47141D02*
X79641Y-46858D01*
X79358Y-46858D01*
X79358Y-47141D01*
X79641Y-47141D01*
X79641Y-48141D02*
X79641Y-47858D01*
X79358Y-47858D01*
X79358Y-48141D01*
X79641Y-48141D01*
X80141Y-39141D02*
X80141Y-38858D01*
X79858Y-38858D01*
X79858Y-39141D01*
X80141Y-39141D01*
X80141Y-40141D02*
X80141Y-39858D01*
X79858Y-39858D01*
X79858Y-40141D01*
X80141Y-40141D01*
X80641Y-47141D02*
X80641Y-46858D01*
X80358Y-46858D01*
X80358Y-47141D01*
X80641Y-47141D01*
X80641Y-48141D02*
X80641Y-47858D01*
X80358Y-47858D01*
X80358Y-48141D01*
X80641Y-48141D01*
X81141Y-39141D02*
X81141Y-38858D01*
X80858Y-38858D01*
X80858Y-39141D01*
X81141Y-39141D01*
X81141Y-40141D02*
X81141Y-39858D01*
X80858Y-39858D01*
X80858Y-40141D01*
X81141Y-40141D01*
X81641Y-47141D02*
X81641Y-46858D01*
X81358Y-46858D01*
X81358Y-47141D01*
X81641Y-47141D01*
X81641Y-48141D02*
X81641Y-47858D01*
X81358Y-47858D01*
X81358Y-48141D01*
X81641Y-48141D01*
G54D13*
X72048Y-51296D02*
X72048Y-50115D01*
X72330Y-50115D01*
X72498Y-50172D01*
X72611Y-50284D01*
X72667Y-50397D01*
X72723Y-50622D01*
X72723Y-50790D01*
X72667Y-51015D01*
X72611Y-51128D01*
X72498Y-51240D01*
X72330Y-51296D01*
X72048Y-51296D01*
X73230Y-51296D02*
X73230Y-50509D01*
X73230Y-50734D02*
X73286Y-50622D01*
X73342Y-50565D01*
X73455Y-50509D01*
X73567Y-50509D01*
X73961Y-51296D02*
X73961Y-50509D01*
X73961Y-50115D02*
X73904Y-50172D01*
X73961Y-50228D01*
X74017Y-50172D01*
X73961Y-50115D01*
X73961Y-50228D01*
X74692Y-51296D02*
X74579Y-51240D01*
X74523Y-51128D01*
X74523Y-50115D01*
X75311Y-51296D02*
X75198Y-51240D01*
X75142Y-51128D01*
X75142Y-50115D01*
X76660Y-51296D02*
X76660Y-50115D01*
X77054Y-50959D01*
X77448Y-50115D01*
X77448Y-51296D01*
X78516Y-51296D02*
X78516Y-50678D01*
X78460Y-50565D01*
X78348Y-50509D01*
X78123Y-50509D01*
X78010Y-50565D01*
X78516Y-51240D02*
X78404Y-51296D01*
X78123Y-51296D01*
X78010Y-51240D01*
X77954Y-51128D01*
X77954Y-51015D01*
X78010Y-50903D01*
X78123Y-50847D01*
X78404Y-50847D01*
X78516Y-50790D01*
X79079Y-50509D02*
X79079Y-51690D01*
X79079Y-50565D02*
X79191Y-50509D01*
X79416Y-50509D01*
X79529Y-50565D01*
X79585Y-50622D01*
X79641Y-50734D01*
X79641Y-51071D01*
X79585Y-51184D01*
X79529Y-51240D01*
X79416Y-51296D01*
X79191Y-51296D01*
X79079Y-51240D01*
X80147Y-51184D02*
X80204Y-51240D01*
X80147Y-51296D01*
X80091Y-51240D01*
X80147Y-51184D01*
X80147Y-51296D01*
X80147Y-50565D02*
X80204Y-50622D01*
X80147Y-50678D01*
X80091Y-50622D01*
X80147Y-50565D01*
X80147Y-50678D01*
X70730Y-53174D02*
X70980Y-53424D01*
X70980Y-53174D02*
X70730Y-53424D01*
X72273Y-52596D02*
X72386Y-52596D01*
X72498Y-52652D01*
X72555Y-52708D01*
X72611Y-52821D01*
X72667Y-53046D01*
X72667Y-53327D01*
X72611Y-53552D01*
X72555Y-53664D01*
X72498Y-53721D01*
X72386Y-53777D01*
X72273Y-53777D01*
X72161Y-53721D01*
X72105Y-53664D01*
X72048Y-53552D01*
X71992Y-53327D01*
X71992Y-53046D01*
X72048Y-52821D01*
X72105Y-52708D01*
X72161Y-52652D01*
X72273Y-52596D01*
X73173Y-53664D02*
X73230Y-53721D01*
X73173Y-53777D01*
X73117Y-53721D01*
X73173Y-53664D01*
X73173Y-53777D01*
X74242Y-52596D02*
X74017Y-52596D01*
X73904Y-52652D01*
X73848Y-52708D01*
X73736Y-52877D01*
X73679Y-53102D01*
X73679Y-53552D01*
X73736Y-53664D01*
X73792Y-53721D01*
X73904Y-53777D01*
X74129Y-53777D01*
X74242Y-53721D01*
X74298Y-53664D01*
X74354Y-53552D01*
X74354Y-53271D01*
X74298Y-53158D01*
X74242Y-53102D01*
X74129Y-53046D01*
X73904Y-53046D01*
X73792Y-53102D01*
X73736Y-53158D01*
X73679Y-53271D01*
X75367Y-52989D02*
X75367Y-53777D01*
X75086Y-52539D02*
X74804Y-53383D01*
X75535Y-53383D01*
X75985Y-53777D02*
X75985Y-52989D01*
X75985Y-53102D02*
X76042Y-53046D01*
X76154Y-52989D01*
X76323Y-52989D01*
X76435Y-53046D01*
X76492Y-53158D01*
X76492Y-53777D01*
X76492Y-53158D02*
X76548Y-53046D01*
X76660Y-52989D01*
X76829Y-52989D01*
X76942Y-53046D01*
X76998Y-53158D01*
X76998Y-53777D01*
X77560Y-53777D02*
X77560Y-52989D01*
X77560Y-53102D02*
X77616Y-53046D01*
X77729Y-52989D01*
X77898Y-52989D01*
X78010Y-53046D01*
X78066Y-53158D01*
X78066Y-53777D01*
X78066Y-53158D02*
X78123Y-53046D01*
X78235Y-52989D01*
X78404Y-52989D01*
X78516Y-53046D01*
X78573Y-53158D01*
X78573Y-53777D01*
X80879Y-52539D02*
X79866Y-54058D01*
X82397Y-52596D02*
X82510Y-52596D01*
X82622Y-52652D01*
X82678Y-52708D01*
X82735Y-52821D01*
X82791Y-53046D01*
X82791Y-53327D01*
X82735Y-53552D01*
X82678Y-53664D01*
X82622Y-53721D01*
X82510Y-53777D01*
X82397Y-53777D01*
X82285Y-53721D01*
X82228Y-53664D01*
X82172Y-53552D01*
X82116Y-53327D01*
X82116Y-53046D01*
X82172Y-52821D01*
X82228Y-52708D01*
X82285Y-52652D01*
X82397Y-52596D01*
X83297Y-53664D02*
X83353Y-53721D01*
X83297Y-53777D01*
X83241Y-53721D01*
X83297Y-53664D01*
X83297Y-53777D01*
X84084Y-52596D02*
X84197Y-52596D01*
X84309Y-52652D01*
X84366Y-52708D01*
X84422Y-52821D01*
X84478Y-53046D01*
X84478Y-53327D01*
X84422Y-53552D01*
X84366Y-53664D01*
X84309Y-53721D01*
X84197Y-53777D01*
X84084Y-53777D01*
X83972Y-53721D01*
X83916Y-53664D01*
X83859Y-53552D01*
X83803Y-53327D01*
X83803Y-53046D01*
X83859Y-52821D01*
X83916Y-52708D01*
X83972Y-52652D01*
X84084Y-52596D01*
X84928Y-52708D02*
X84984Y-52652D01*
X85097Y-52596D01*
X85378Y-52596D01*
X85491Y-52652D01*
X85547Y-52708D01*
X85603Y-52821D01*
X85603Y-52933D01*
X85547Y-53102D01*
X84872Y-53777D01*
X85603Y-53777D01*
X86672Y-52596D02*
X86109Y-52596D01*
X86053Y-53158D01*
X86109Y-53102D01*
X86222Y-53046D01*
X86503Y-53046D01*
X86615Y-53102D01*
X86672Y-53158D01*
X86728Y-53271D01*
X86728Y-53552D01*
X86672Y-53664D01*
X86615Y-53721D01*
X86503Y-53777D01*
X86222Y-53777D01*
X86109Y-53721D01*
X86053Y-53664D01*
X87178Y-52596D02*
X87178Y-52821D01*
X87628Y-52596D02*
X87628Y-52821D01*
X89371Y-54227D02*
X89315Y-54170D01*
X89203Y-54002D01*
X89146Y-53889D01*
X89090Y-53721D01*
X89034Y-53439D01*
X89034Y-53214D01*
X89090Y-52933D01*
X89146Y-52764D01*
X89203Y-52652D01*
X89315Y-52483D01*
X89371Y-52427D01*
X90440Y-53777D02*
X89765Y-53777D01*
X90102Y-53777D02*
X90102Y-52596D01*
X89990Y-52764D01*
X89877Y-52877D01*
X89765Y-52933D01*
X90890Y-52708D02*
X90946Y-52652D01*
X91059Y-52596D01*
X91340Y-52596D01*
X91452Y-52652D01*
X91508Y-52708D01*
X91565Y-52821D01*
X91565Y-52933D01*
X91508Y-53102D01*
X90834Y-53777D01*
X91565Y-53777D01*
X92971Y-53777D02*
X92971Y-52596D01*
X93477Y-53777D02*
X93477Y-53158D01*
X93421Y-53046D01*
X93308Y-52989D01*
X93140Y-52989D01*
X93027Y-53046D01*
X92971Y-53102D01*
X94208Y-53777D02*
X94096Y-53721D01*
X94039Y-53664D01*
X93983Y-53552D01*
X93983Y-53214D01*
X94039Y-53102D01*
X94096Y-53046D01*
X94208Y-52989D01*
X94377Y-52989D01*
X94489Y-53046D01*
X94546Y-53102D01*
X94602Y-53214D01*
X94602Y-53552D01*
X94546Y-53664D01*
X94489Y-53721D01*
X94377Y-53777D01*
X94208Y-53777D01*
X95277Y-53777D02*
X95164Y-53721D01*
X95108Y-53608D01*
X95108Y-52596D01*
X96177Y-53721D02*
X96064Y-53777D01*
X95839Y-53777D01*
X95727Y-53721D01*
X95670Y-53608D01*
X95670Y-53158D01*
X95727Y-53046D01*
X95839Y-52989D01*
X96064Y-52989D01*
X96177Y-53046D01*
X96233Y-53158D01*
X96233Y-53271D01*
X95670Y-53383D01*
X96683Y-53721D02*
X96795Y-53777D01*
X97020Y-53777D01*
X97133Y-53721D01*
X97189Y-53608D01*
X97189Y-53552D01*
X97133Y-53439D01*
X97020Y-53383D01*
X96852Y-53383D01*
X96739Y-53327D01*
X96683Y-53214D01*
X96683Y-53158D01*
X96739Y-53046D01*
X96852Y-52989D01*
X97020Y-52989D01*
X97133Y-53046D01*
X97583Y-54227D02*
X97639Y-54170D01*
X97751Y-54002D01*
X97808Y-53889D01*
X97864Y-53721D01*
X97920Y-53439D01*
X97920Y-53214D01*
X97864Y-52933D01*
X97808Y-52764D01*
X97751Y-52652D01*
X97639Y-52483D01*
X97583Y-52427D01*
G54D12*
X70980Y-54858D02*
G75*
G03X70980Y-54858I-157J0D01*
G74*
G01*
G54D13*
X72273Y-54155D02*
X72386Y-54155D01*
X72498Y-54211D01*
X72555Y-54267D01*
X72611Y-54380D01*
X72667Y-54605D01*
X72667Y-54886D01*
X72611Y-55111D01*
X72555Y-55223D01*
X72498Y-55280D01*
X72386Y-55336D01*
X72273Y-55336D01*
X72161Y-55280D01*
X72105Y-55223D01*
X72048Y-55111D01*
X71992Y-54886D01*
X71992Y-54605D01*
X72048Y-54380D01*
X72105Y-54267D01*
X72161Y-54211D01*
X72273Y-54155D01*
X73173Y-55223D02*
X73230Y-55280D01*
X73173Y-55336D01*
X73117Y-55280D01*
X73173Y-55223D01*
X73173Y-55336D01*
X73904Y-54661D02*
X73792Y-54605D01*
X73736Y-54548D01*
X73679Y-54436D01*
X73679Y-54380D01*
X73736Y-54267D01*
X73792Y-54211D01*
X73904Y-54155D01*
X74129Y-54155D01*
X74242Y-54211D01*
X74298Y-54267D01*
X74354Y-54380D01*
X74354Y-54436D01*
X74298Y-54548D01*
X74242Y-54605D01*
X74129Y-54661D01*
X73904Y-54661D01*
X73792Y-54717D01*
X73736Y-54773D01*
X73679Y-54886D01*
X73679Y-55111D01*
X73736Y-55223D01*
X73792Y-55280D01*
X73904Y-55336D01*
X74129Y-55336D01*
X74242Y-55280D01*
X74298Y-55223D01*
X74354Y-55111D01*
X74354Y-54886D01*
X74298Y-54773D01*
X74242Y-54717D01*
X74129Y-54661D01*
X75086Y-54155D02*
X75198Y-54155D01*
X75311Y-54211D01*
X75367Y-54267D01*
X75423Y-54380D01*
X75479Y-54605D01*
X75479Y-54886D01*
X75423Y-55111D01*
X75367Y-55223D01*
X75311Y-55280D01*
X75198Y-55336D01*
X75086Y-55336D01*
X74973Y-55280D01*
X74917Y-55223D01*
X74861Y-55111D01*
X74804Y-54886D01*
X74804Y-54605D01*
X74861Y-54380D01*
X74917Y-54267D01*
X74973Y-54211D01*
X75086Y-54155D01*
X75985Y-55336D02*
X75985Y-54548D01*
X75985Y-54661D02*
X76042Y-54605D01*
X76154Y-54548D01*
X76323Y-54548D01*
X76435Y-54605D01*
X76492Y-54717D01*
X76492Y-55336D01*
X76492Y-54717D02*
X76548Y-54605D01*
X76660Y-54548D01*
X76829Y-54548D01*
X76942Y-54605D01*
X76998Y-54717D01*
X76998Y-55336D01*
X77560Y-55336D02*
X77560Y-54548D01*
X77560Y-54661D02*
X77616Y-54605D01*
X77729Y-54548D01*
X77898Y-54548D01*
X78010Y-54605D01*
X78066Y-54717D01*
X78066Y-55336D01*
X78066Y-54717D02*
X78123Y-54605D01*
X78235Y-54548D01*
X78404Y-54548D01*
X78516Y-54605D01*
X78573Y-54717D01*
X78573Y-55336D01*
X80879Y-54098D02*
X79866Y-55617D01*
X82397Y-54155D02*
X82510Y-54155D01*
X82622Y-54211D01*
X82678Y-54267D01*
X82735Y-54380D01*
X82791Y-54605D01*
X82791Y-54886D01*
X82735Y-55111D01*
X82678Y-55223D01*
X82622Y-55280D01*
X82510Y-55336D01*
X82397Y-55336D01*
X82285Y-55280D01*
X82228Y-55223D01*
X82172Y-55111D01*
X82116Y-54886D01*
X82116Y-54605D01*
X82172Y-54380D01*
X82228Y-54267D01*
X82285Y-54211D01*
X82397Y-54155D01*
X83297Y-55223D02*
X83353Y-55280D01*
X83297Y-55336D01*
X83241Y-55280D01*
X83297Y-55223D01*
X83297Y-55336D01*
X84084Y-54155D02*
X84197Y-54155D01*
X84309Y-54211D01*
X84366Y-54267D01*
X84422Y-54380D01*
X84478Y-54605D01*
X84478Y-54886D01*
X84422Y-55111D01*
X84366Y-55223D01*
X84309Y-55280D01*
X84197Y-55336D01*
X84084Y-55336D01*
X83972Y-55280D01*
X83916Y-55223D01*
X83859Y-55111D01*
X83803Y-54886D01*
X83803Y-54605D01*
X83859Y-54380D01*
X83916Y-54267D01*
X83972Y-54211D01*
X84084Y-54155D01*
X84872Y-54155D02*
X85603Y-54155D01*
X85209Y-54605D01*
X85378Y-54605D01*
X85491Y-54661D01*
X85547Y-54717D01*
X85603Y-54830D01*
X85603Y-55111D01*
X85547Y-55223D01*
X85491Y-55280D01*
X85378Y-55336D01*
X85041Y-55336D01*
X84928Y-55280D01*
X84872Y-55223D01*
X86728Y-55336D02*
X86053Y-55336D01*
X86390Y-55336D02*
X86390Y-54155D01*
X86278Y-54323D01*
X86165Y-54436D01*
X86053Y-54492D01*
X87178Y-54155D02*
X87178Y-54380D01*
X87628Y-54155D02*
X87628Y-54380D01*
X89371Y-55786D02*
X89315Y-55730D01*
X89203Y-55561D01*
X89146Y-55448D01*
X89090Y-55280D01*
X89034Y-54998D01*
X89034Y-54773D01*
X89090Y-54492D01*
X89146Y-54323D01*
X89203Y-54211D01*
X89315Y-54042D01*
X89371Y-53986D01*
X89709Y-54155D02*
X90496Y-54155D01*
X89990Y-55336D01*
X91846Y-55336D02*
X91846Y-54155D01*
X92352Y-55336D02*
X92352Y-54717D01*
X92296Y-54605D01*
X92183Y-54548D01*
X92015Y-54548D01*
X91902Y-54605D01*
X91846Y-54661D01*
X93083Y-55336D02*
X92971Y-55280D01*
X92915Y-55223D01*
X92858Y-55111D01*
X92858Y-54773D01*
X92915Y-54661D01*
X92971Y-54605D01*
X93083Y-54548D01*
X93252Y-54548D01*
X93365Y-54605D01*
X93421Y-54661D01*
X93477Y-54773D01*
X93477Y-55111D01*
X93421Y-55223D01*
X93365Y-55280D01*
X93252Y-55336D01*
X93083Y-55336D01*
X94152Y-55336D02*
X94039Y-55280D01*
X93983Y-55167D01*
X93983Y-54155D01*
X95052Y-55280D02*
X94939Y-55336D01*
X94714Y-55336D01*
X94602Y-55280D01*
X94546Y-55167D01*
X94546Y-54717D01*
X94602Y-54605D01*
X94714Y-54548D01*
X94939Y-54548D01*
X95052Y-54605D01*
X95108Y-54717D01*
X95108Y-54830D01*
X94546Y-54942D01*
X95558Y-55280D02*
X95670Y-55336D01*
X95895Y-55336D01*
X96008Y-55280D01*
X96064Y-55167D01*
X96064Y-55111D01*
X96008Y-54998D01*
X95895Y-54942D01*
X95727Y-54942D01*
X95614Y-54886D01*
X95558Y-54773D01*
X95558Y-54717D01*
X95614Y-54605D01*
X95727Y-54548D01*
X95895Y-54548D01*
X96008Y-54605D01*
X96458Y-55786D02*
X96514Y-55730D01*
X96627Y-55561D01*
X96683Y-55448D01*
X96739Y-55280D01*
X96795Y-54998D01*
X96795Y-54773D01*
X96739Y-54492D01*
X96683Y-54323D01*
X96627Y-54211D01*
X96514Y-54042D01*
X96458Y-53986D01*
X70820Y-56257D02*
X70820Y-56577D01*
X70660Y-56417D02*
X70980Y-56417D01*
X72273Y-55714D02*
X72386Y-55714D01*
X72498Y-55770D01*
X72555Y-55826D01*
X72611Y-55939D01*
X72667Y-56164D01*
X72667Y-56445D01*
X72611Y-56670D01*
X72555Y-56782D01*
X72498Y-56839D01*
X72386Y-56895D01*
X72273Y-56895D01*
X72161Y-56839D01*
X72105Y-56782D01*
X72048Y-56670D01*
X71992Y-56445D01*
X71992Y-56164D01*
X72048Y-55939D01*
X72105Y-55826D01*
X72161Y-55770D01*
X72273Y-55714D01*
X73173Y-56782D02*
X73230Y-56839D01*
X73173Y-56895D01*
X73117Y-56839D01*
X73173Y-56782D01*
X73173Y-56895D01*
X73904Y-56220D02*
X73792Y-56164D01*
X73736Y-56107D01*
X73679Y-55995D01*
X73679Y-55939D01*
X73736Y-55826D01*
X73792Y-55770D01*
X73904Y-55714D01*
X74129Y-55714D01*
X74242Y-55770D01*
X74298Y-55826D01*
X74354Y-55939D01*
X74354Y-55995D01*
X74298Y-56107D01*
X74242Y-56164D01*
X74129Y-56220D01*
X73904Y-56220D01*
X73792Y-56276D01*
X73736Y-56332D01*
X73679Y-56445D01*
X73679Y-56670D01*
X73736Y-56782D01*
X73792Y-56839D01*
X73904Y-56895D01*
X74129Y-56895D01*
X74242Y-56839D01*
X74298Y-56782D01*
X74354Y-56670D01*
X74354Y-56445D01*
X74298Y-56332D01*
X74242Y-56276D01*
X74129Y-56220D01*
X75479Y-56895D02*
X74804Y-56895D01*
X75142Y-56895D02*
X75142Y-55714D01*
X75029Y-55883D01*
X74917Y-55995D01*
X74804Y-56051D01*
X75985Y-56895D02*
X75985Y-56107D01*
X75985Y-56220D02*
X76042Y-56164D01*
X76154Y-56107D01*
X76323Y-56107D01*
X76435Y-56164D01*
X76492Y-56276D01*
X76492Y-56895D01*
X76492Y-56276D02*
X76548Y-56164D01*
X76660Y-56107D01*
X76829Y-56107D01*
X76942Y-56164D01*
X76998Y-56276D01*
X76998Y-56895D01*
X77560Y-56895D02*
X77560Y-56107D01*
X77560Y-56220D02*
X77616Y-56164D01*
X77729Y-56107D01*
X77898Y-56107D01*
X78010Y-56164D01*
X78066Y-56276D01*
X78066Y-56895D01*
X78066Y-56276D02*
X78123Y-56164D01*
X78235Y-56107D01*
X78404Y-56107D01*
X78516Y-56164D01*
X78573Y-56276D01*
X78573Y-56895D01*
X80879Y-55658D02*
X79866Y-57176D01*
X82397Y-55714D02*
X82510Y-55714D01*
X82622Y-55770D01*
X82678Y-55826D01*
X82735Y-55939D01*
X82791Y-56164D01*
X82791Y-56445D01*
X82735Y-56670D01*
X82678Y-56782D01*
X82622Y-56839D01*
X82510Y-56895D01*
X82397Y-56895D01*
X82285Y-56839D01*
X82228Y-56782D01*
X82172Y-56670D01*
X82116Y-56445D01*
X82116Y-56164D01*
X82172Y-55939D01*
X82228Y-55826D01*
X82285Y-55770D01*
X82397Y-55714D01*
X83297Y-56782D02*
X83353Y-56839D01*
X83297Y-56895D01*
X83241Y-56839D01*
X83297Y-56782D01*
X83297Y-56895D01*
X84084Y-55714D02*
X84197Y-55714D01*
X84309Y-55770D01*
X84366Y-55826D01*
X84422Y-55939D01*
X84478Y-56164D01*
X84478Y-56445D01*
X84422Y-56670D01*
X84366Y-56782D01*
X84309Y-56839D01*
X84197Y-56895D01*
X84084Y-56895D01*
X83972Y-56839D01*
X83916Y-56782D01*
X83859Y-56670D01*
X83803Y-56445D01*
X83803Y-56164D01*
X83859Y-55939D01*
X83916Y-55826D01*
X83972Y-55770D01*
X84084Y-55714D01*
X84872Y-55714D02*
X85603Y-55714D01*
X85209Y-56164D01*
X85378Y-56164D01*
X85491Y-56220D01*
X85547Y-56276D01*
X85603Y-56389D01*
X85603Y-56670D01*
X85547Y-56782D01*
X85491Y-56839D01*
X85378Y-56895D01*
X85041Y-56895D01*
X84928Y-56839D01*
X84872Y-56782D01*
X86053Y-55826D02*
X86109Y-55770D01*
X86222Y-55714D01*
X86503Y-55714D01*
X86615Y-55770D01*
X86672Y-55826D01*
X86728Y-55939D01*
X86728Y-56051D01*
X86672Y-56220D01*
X85997Y-56895D01*
X86728Y-56895D01*
X87178Y-55714D02*
X87178Y-55939D01*
X87628Y-55714D02*
X87628Y-55939D01*
X89371Y-57345D02*
X89315Y-57289D01*
X89203Y-57120D01*
X89146Y-57007D01*
X89090Y-56839D01*
X89034Y-56557D01*
X89034Y-56332D01*
X89090Y-56051D01*
X89146Y-55883D01*
X89203Y-55770D01*
X89315Y-55601D01*
X89371Y-55545D01*
X89990Y-56220D02*
X89877Y-56164D01*
X89821Y-56107D01*
X89765Y-55995D01*
X89765Y-55939D01*
X89821Y-55826D01*
X89877Y-55770D01*
X89990Y-55714D01*
X90215Y-55714D01*
X90327Y-55770D01*
X90384Y-55826D01*
X90440Y-55939D01*
X90440Y-55995D01*
X90384Y-56107D01*
X90327Y-56164D01*
X90215Y-56220D01*
X89990Y-56220D01*
X89877Y-56276D01*
X89821Y-56332D01*
X89765Y-56445D01*
X89765Y-56670D01*
X89821Y-56782D01*
X89877Y-56839D01*
X89990Y-56895D01*
X90215Y-56895D01*
X90327Y-56839D01*
X90384Y-56782D01*
X90440Y-56670D01*
X90440Y-56445D01*
X90384Y-56332D01*
X90327Y-56276D01*
X90215Y-56220D01*
X91846Y-56895D02*
X91846Y-55714D01*
X92352Y-56895D02*
X92352Y-56276D01*
X92296Y-56164D01*
X92183Y-56107D01*
X92015Y-56107D01*
X91902Y-56164D01*
X91846Y-56220D01*
X93083Y-56895D02*
X92971Y-56839D01*
X92915Y-56782D01*
X92858Y-56670D01*
X92858Y-56332D01*
X92915Y-56220D01*
X92971Y-56164D01*
X93083Y-56107D01*
X93252Y-56107D01*
X93365Y-56164D01*
X93421Y-56220D01*
X93477Y-56332D01*
X93477Y-56670D01*
X93421Y-56782D01*
X93365Y-56839D01*
X93252Y-56895D01*
X93083Y-56895D01*
X94152Y-56895D02*
X94039Y-56839D01*
X93983Y-56726D01*
X93983Y-55714D01*
X95052Y-56839D02*
X94939Y-56895D01*
X94714Y-56895D01*
X94602Y-56839D01*
X94546Y-56726D01*
X94546Y-56276D01*
X94602Y-56164D01*
X94714Y-56107D01*
X94939Y-56107D01*
X95052Y-56164D01*
X95108Y-56276D01*
X95108Y-56389D01*
X94546Y-56501D01*
X95558Y-56839D02*
X95670Y-56895D01*
X95895Y-56895D01*
X96008Y-56839D01*
X96064Y-56726D01*
X96064Y-56670D01*
X96008Y-56557D01*
X95895Y-56501D01*
X95727Y-56501D01*
X95614Y-56445D01*
X95558Y-56332D01*
X95558Y-56276D01*
X95614Y-56164D01*
X95727Y-56107D01*
X95895Y-56107D01*
X96008Y-56164D01*
X96458Y-57345D02*
X96514Y-57289D01*
X96627Y-57120D01*
X96683Y-57007D01*
X96739Y-56839D01*
X96795Y-56557D01*
X96795Y-56332D01*
X96739Y-56051D01*
X96683Y-55883D01*
X96627Y-55770D01*
X96514Y-55601D01*
X96458Y-55545D01*
G54D12*
X70921Y-58117D02*
X70921Y-57834D01*
X70638Y-57834D01*
X70638Y-58117D01*
X70921Y-58117D01*
G54D13*
X72667Y-58454D02*
X71992Y-58454D01*
X72330Y-58454D02*
X72330Y-57273D01*
X72217Y-57442D01*
X72105Y-57554D01*
X71992Y-57610D01*
X73173Y-58341D02*
X73230Y-58398D01*
X73173Y-58454D01*
X73117Y-58398D01*
X73173Y-58341D01*
X73173Y-58454D01*
X73961Y-57273D02*
X74073Y-57273D01*
X74186Y-57329D01*
X74242Y-57385D01*
X74298Y-57498D01*
X74354Y-57723D01*
X74354Y-58004D01*
X74298Y-58229D01*
X74242Y-58341D01*
X74186Y-58398D01*
X74073Y-58454D01*
X73961Y-58454D01*
X73848Y-58398D01*
X73792Y-58341D01*
X73736Y-58229D01*
X73679Y-58004D01*
X73679Y-57723D01*
X73736Y-57498D01*
X73792Y-57385D01*
X73848Y-57329D01*
X73961Y-57273D01*
X74804Y-57385D02*
X74861Y-57329D01*
X74973Y-57273D01*
X75254Y-57273D01*
X75367Y-57329D01*
X75423Y-57385D01*
X75479Y-57498D01*
X75479Y-57610D01*
X75423Y-57779D01*
X74748Y-58454D01*
X75479Y-58454D01*
X75985Y-58454D02*
X75985Y-57667D01*
X75985Y-57779D02*
X76042Y-57723D01*
X76154Y-57667D01*
X76323Y-57667D01*
X76435Y-57723D01*
X76492Y-57835D01*
X76492Y-58454D01*
X76492Y-57835D02*
X76548Y-57723D01*
X76660Y-57667D01*
X76829Y-57667D01*
X76942Y-57723D01*
X76998Y-57835D01*
X76998Y-58454D01*
X77560Y-58454D02*
X77560Y-57667D01*
X77560Y-57779D02*
X77616Y-57723D01*
X77729Y-57667D01*
X77898Y-57667D01*
X78010Y-57723D01*
X78066Y-57835D01*
X78066Y-58454D01*
X78066Y-57835D02*
X78123Y-57723D01*
X78235Y-57667D01*
X78404Y-57667D01*
X78516Y-57723D01*
X78573Y-57835D01*
X78573Y-58454D01*
X80879Y-57217D02*
X79866Y-58735D01*
X82397Y-57273D02*
X82510Y-57273D01*
X82622Y-57329D01*
X82678Y-57385D01*
X82735Y-57498D01*
X82791Y-57723D01*
X82791Y-58004D01*
X82735Y-58229D01*
X82678Y-58341D01*
X82622Y-58398D01*
X82510Y-58454D01*
X82397Y-58454D01*
X82285Y-58398D01*
X82228Y-58341D01*
X82172Y-58229D01*
X82116Y-58004D01*
X82116Y-57723D01*
X82172Y-57498D01*
X82228Y-57385D01*
X82285Y-57329D01*
X82397Y-57273D01*
X83297Y-58341D02*
X83353Y-58398D01*
X83297Y-58454D01*
X83241Y-58398D01*
X83297Y-58341D01*
X83297Y-58454D01*
X84084Y-57273D02*
X84197Y-57273D01*
X84309Y-57329D01*
X84366Y-57385D01*
X84422Y-57498D01*
X84478Y-57723D01*
X84478Y-58004D01*
X84422Y-58229D01*
X84366Y-58341D01*
X84309Y-58398D01*
X84197Y-58454D01*
X84084Y-58454D01*
X83972Y-58398D01*
X83916Y-58341D01*
X83859Y-58229D01*
X83803Y-58004D01*
X83803Y-57723D01*
X83859Y-57498D01*
X83916Y-57385D01*
X83972Y-57329D01*
X84084Y-57273D01*
X85491Y-57667D02*
X85491Y-58454D01*
X85209Y-57217D02*
X84928Y-58060D01*
X85659Y-58060D01*
X86334Y-57273D02*
X86447Y-57273D01*
X86559Y-57329D01*
X86615Y-57385D01*
X86672Y-57498D01*
X86728Y-57723D01*
X86728Y-58004D01*
X86672Y-58229D01*
X86615Y-58341D01*
X86559Y-58398D01*
X86447Y-58454D01*
X86334Y-58454D01*
X86222Y-58398D01*
X86165Y-58341D01*
X86109Y-58229D01*
X86053Y-58004D01*
X86053Y-57723D01*
X86109Y-57498D01*
X86165Y-57385D01*
X86222Y-57329D01*
X86334Y-57273D01*
X87178Y-57273D02*
X87178Y-57498D01*
X87628Y-57273D02*
X87628Y-57498D01*
X89371Y-58904D02*
X89315Y-58848D01*
X89203Y-58679D01*
X89146Y-58566D01*
X89090Y-58398D01*
X89034Y-58116D01*
X89034Y-57892D01*
X89090Y-57610D01*
X89146Y-57442D01*
X89203Y-57329D01*
X89315Y-57160D01*
X89371Y-57104D01*
X89765Y-57385D02*
X89821Y-57329D01*
X89934Y-57273D01*
X90215Y-57273D01*
X90327Y-57329D01*
X90384Y-57385D01*
X90440Y-57498D01*
X90440Y-57610D01*
X90384Y-57779D01*
X89709Y-58454D01*
X90440Y-58454D01*
X91565Y-58454D02*
X90890Y-58454D01*
X91227Y-58454D02*
X91227Y-57273D01*
X91115Y-57442D01*
X91002Y-57554D01*
X90890Y-57610D01*
X92971Y-58454D02*
X92971Y-57273D01*
X93477Y-58454D02*
X93477Y-57835D01*
X93421Y-57723D01*
X93308Y-57667D01*
X93140Y-57667D01*
X93027Y-57723D01*
X92971Y-57779D01*
X94208Y-58454D02*
X94096Y-58398D01*
X94039Y-58341D01*
X93983Y-58229D01*
X93983Y-57892D01*
X94039Y-57779D01*
X94096Y-57723D01*
X94208Y-57667D01*
X94377Y-57667D01*
X94489Y-57723D01*
X94546Y-57779D01*
X94602Y-57892D01*
X94602Y-58229D01*
X94546Y-58341D01*
X94489Y-58398D01*
X94377Y-58454D01*
X94208Y-58454D01*
X95277Y-58454D02*
X95164Y-58398D01*
X95108Y-58285D01*
X95108Y-57273D01*
X96177Y-58398D02*
X96064Y-58454D01*
X95839Y-58454D01*
X95727Y-58398D01*
X95670Y-58285D01*
X95670Y-57835D01*
X95727Y-57723D01*
X95839Y-57667D01*
X96064Y-57667D01*
X96177Y-57723D01*
X96233Y-57835D01*
X96233Y-57948D01*
X95670Y-58060D01*
X96683Y-58398D02*
X96795Y-58454D01*
X97020Y-58454D01*
X97133Y-58398D01*
X97189Y-58285D01*
X97189Y-58229D01*
X97133Y-58116D01*
X97020Y-58060D01*
X96852Y-58060D01*
X96739Y-58004D01*
X96683Y-57892D01*
X96683Y-57835D01*
X96739Y-57723D01*
X96852Y-57667D01*
X97020Y-57667D01*
X97133Y-57723D01*
X97583Y-58904D02*
X97639Y-58848D01*
X97751Y-58679D01*
X97808Y-58566D01*
X97864Y-58398D01*
X97920Y-58116D01*
X97920Y-57892D01*
X97864Y-57610D01*
X97808Y-57442D01*
X97751Y-57329D01*
X97639Y-57160D01*
X97583Y-57104D01*
M02*
