G04 (created by PCBNEW (2013-04-19 BZR 4011)-stable) date 6/9/2013 6:15:15 PM*
%MOIN*%
G04 Gerber Fmt 3.4, Leading zero omitted, Abs format*
%FSLAX34Y34*%
G01*
G70*
G90*
G04 APERTURE LIST*
%ADD10C,0.006*%
%ADD11R,0.055X0.055*%
%ADD12C,0.055*%
%ADD13R,0.06X0.06*%
%ADD14C,0.06*%
%ADD15C,0.0314961*%
%ADD16C,0.035*%
%ADD17C,0.01*%
%ADD18C,0.015*%
G04 APERTURE END LIST*
G54D10*
G54D11*
X72000Y-44000D03*
G54D12*
X72000Y-43000D03*
X72000Y-42000D03*
X72000Y-41000D03*
G54D13*
X77000Y-40000D03*
G54D14*
X77000Y-39000D03*
X78000Y-40000D03*
X78000Y-39000D03*
X79000Y-40000D03*
X79000Y-39000D03*
X80000Y-40000D03*
X80000Y-39000D03*
X81000Y-40000D03*
X81000Y-39000D03*
G54D13*
X79500Y-48000D03*
G54D14*
X79500Y-47000D03*
X80500Y-48000D03*
X80500Y-47000D03*
X81500Y-48000D03*
X81500Y-47000D03*
G54D12*
X73500Y-39000D03*
X75500Y-39000D03*
X73500Y-42000D03*
X75500Y-42000D03*
G54D14*
X84960Y-39672D03*
X84960Y-47664D03*
X71631Y-46153D03*
X72615Y-46153D03*
X74584Y-46153D03*
X75568Y-46153D03*
X73600Y-48122D03*
G54D15*
X71631Y-48122D03*
X75568Y-48122D03*
X75568Y-49106D03*
X71631Y-49106D03*
X73600Y-46153D03*
G54D16*
X78860Y-44060D03*
X80220Y-41440D03*
X78680Y-38360D03*
X79940Y-41020D03*
X76660Y-44980D03*
X79500Y-42940D03*
X79080Y-42140D03*
X76060Y-43940D03*
X77720Y-42400D03*
X80360Y-45580D03*
X78880Y-45800D03*
X79680Y-45660D03*
G54D17*
X80160Y-42760D02*
X78860Y-44060D01*
X80180Y-42760D02*
X80160Y-42760D01*
X80220Y-41440D02*
X80180Y-42760D01*
X78460Y-46960D02*
X79500Y-48000D01*
X78460Y-38580D02*
X78460Y-46960D01*
X78680Y-38360D02*
X78460Y-38580D01*
X79940Y-41017D02*
X79945Y-41011D01*
X79940Y-41020D02*
X79940Y-41017D01*
X80500Y-47000D02*
X80740Y-45540D01*
X79500Y-39500D02*
X79000Y-39000D01*
X79500Y-40640D02*
X79500Y-39500D01*
X80740Y-45540D02*
X80560Y-41040D01*
X80560Y-41040D02*
X79945Y-41011D01*
X79945Y-41011D02*
X79500Y-40640D01*
G54D18*
X81500Y-48000D02*
X81500Y-48220D01*
X76660Y-47580D02*
X76660Y-44980D01*
X77880Y-48800D02*
X76660Y-47580D01*
X80920Y-48800D02*
X77880Y-48800D01*
X81500Y-48220D02*
X80920Y-48800D01*
G54D17*
X79500Y-42560D02*
X79500Y-42940D01*
X79080Y-42140D02*
X79500Y-42560D01*
G54D18*
X72000Y-44000D02*
X76000Y-44000D01*
G54D17*
X76000Y-44000D02*
X76060Y-43940D01*
G54D18*
X77720Y-42400D02*
X77660Y-42400D01*
X72000Y-41000D02*
X72000Y-40500D01*
X72000Y-40500D02*
X73500Y-39000D01*
X72000Y-41000D02*
X72500Y-41000D01*
X72500Y-41000D02*
X73500Y-42000D01*
X80360Y-45580D02*
X80280Y-45660D01*
X80280Y-45660D02*
X79680Y-45660D01*
X78880Y-45800D02*
X78900Y-45780D01*
X78900Y-45780D02*
X79560Y-45780D01*
X79560Y-45780D02*
X79680Y-45660D01*
X75500Y-39000D02*
X75500Y-42000D01*
G54D10*
G36*
X80439Y-45513D02*
X80278Y-46496D01*
X80188Y-46533D01*
X80034Y-46688D01*
X80000Y-46769D01*
X79966Y-46688D01*
X79811Y-46534D01*
X79609Y-46450D01*
X79391Y-46449D01*
X79188Y-46533D01*
X79034Y-46688D01*
X78950Y-46890D01*
X78949Y-47025D01*
X78760Y-46835D01*
X78760Y-44478D01*
X78775Y-44484D01*
X78944Y-44485D01*
X79100Y-44420D01*
X79220Y-44301D01*
X79284Y-44144D01*
X79285Y-44059D01*
X80331Y-43012D01*
X80338Y-43007D01*
X80439Y-45513D01*
X80439Y-45513D01*
G37*
G54D17*
X80439Y-45513D02*
X80278Y-46496D01*
X80188Y-46533D01*
X80034Y-46688D01*
X80000Y-46769D01*
X79966Y-46688D01*
X79811Y-46534D01*
X79609Y-46450D01*
X79391Y-46449D01*
X79188Y-46533D01*
X79034Y-46688D01*
X78950Y-46890D01*
X78949Y-47025D01*
X78760Y-46835D01*
X78760Y-44478D01*
X78775Y-44484D01*
X78944Y-44485D01*
X79100Y-44420D01*
X79220Y-44301D01*
X79284Y-44144D01*
X79285Y-44059D01*
X80331Y-43012D01*
X80338Y-43007D01*
X80439Y-45513D01*
G54D10*
G36*
X86700Y-49200D02*
X85514Y-49200D01*
X85514Y-39754D01*
X85503Y-39535D01*
X85441Y-39384D01*
X85345Y-39357D01*
X85275Y-39427D01*
X85275Y-39286D01*
X85247Y-39191D01*
X85041Y-39117D01*
X84823Y-39128D01*
X84672Y-39191D01*
X84644Y-39286D01*
X84960Y-39601D01*
X85275Y-39286D01*
X85275Y-39427D01*
X85030Y-39672D01*
X85345Y-39987D01*
X85441Y-39960D01*
X85514Y-39754D01*
X85514Y-49200D01*
X85510Y-49200D01*
X85510Y-47555D01*
X85426Y-47353D01*
X85275Y-47201D01*
X85275Y-40058D01*
X84960Y-39742D01*
X84889Y-39813D01*
X84889Y-39672D01*
X84574Y-39357D01*
X84478Y-39384D01*
X84405Y-39590D01*
X84416Y-39809D01*
X84478Y-39960D01*
X84574Y-39987D01*
X84889Y-39672D01*
X84889Y-39813D01*
X84644Y-40058D01*
X84672Y-40153D01*
X84878Y-40227D01*
X85096Y-40216D01*
X85247Y-40153D01*
X85275Y-40058D01*
X85275Y-47201D01*
X85271Y-47198D01*
X85069Y-47114D01*
X84851Y-47114D01*
X84648Y-47197D01*
X84494Y-47352D01*
X84410Y-47554D01*
X84409Y-47773D01*
X84493Y-47975D01*
X84648Y-48130D01*
X84850Y-48214D01*
X85068Y-48214D01*
X85271Y-48130D01*
X85425Y-47976D01*
X85509Y-47774D01*
X85510Y-47555D01*
X85510Y-49200D01*
X82054Y-49200D01*
X82054Y-47081D01*
X82043Y-46863D01*
X81981Y-46712D01*
X81885Y-46684D01*
X81815Y-46755D01*
X81815Y-46614D01*
X81787Y-46518D01*
X81581Y-46445D01*
X81554Y-46446D01*
X81554Y-40081D01*
X81554Y-39081D01*
X81543Y-38863D01*
X81481Y-38712D01*
X81385Y-38684D01*
X81315Y-38755D01*
X81315Y-38614D01*
X81287Y-38518D01*
X81081Y-38445D01*
X80863Y-38456D01*
X80712Y-38518D01*
X80684Y-38614D01*
X81000Y-38929D01*
X81315Y-38614D01*
X81315Y-38755D01*
X81070Y-39000D01*
X81385Y-39315D01*
X81481Y-39287D01*
X81554Y-39081D01*
X81554Y-40081D01*
X81543Y-39863D01*
X81481Y-39712D01*
X81385Y-39684D01*
X81315Y-39755D01*
X81315Y-39614D01*
X81287Y-39518D01*
X81239Y-39501D01*
X81287Y-39481D01*
X81315Y-39385D01*
X81000Y-39070D01*
X80684Y-39385D01*
X80712Y-39481D01*
X80760Y-39498D01*
X80712Y-39518D01*
X80684Y-39614D01*
X81000Y-39929D01*
X81315Y-39614D01*
X81315Y-39755D01*
X81070Y-40000D01*
X81385Y-40315D01*
X81481Y-40287D01*
X81554Y-40081D01*
X81554Y-46446D01*
X81363Y-46456D01*
X81315Y-46476D01*
X81315Y-40385D01*
X81000Y-40070D01*
X80684Y-40385D01*
X80712Y-40481D01*
X80918Y-40554D01*
X81136Y-40543D01*
X81287Y-40481D01*
X81315Y-40385D01*
X81315Y-46476D01*
X81212Y-46518D01*
X81184Y-46614D01*
X81500Y-46929D01*
X81815Y-46614D01*
X81815Y-46755D01*
X81570Y-47000D01*
X81885Y-47315D01*
X81981Y-47287D01*
X82054Y-47081D01*
X82054Y-49200D01*
X76118Y-49200D01*
X76118Y-46044D01*
X76035Y-45842D01*
X75880Y-45687D01*
X75678Y-45603D01*
X75459Y-45603D01*
X75257Y-45687D01*
X75102Y-45841D01*
X75076Y-45904D01*
X75050Y-45842D01*
X74896Y-45687D01*
X74694Y-45603D01*
X74475Y-45603D01*
X74273Y-45687D01*
X74118Y-45841D01*
X74034Y-46043D01*
X74034Y-46262D01*
X74117Y-46464D01*
X74272Y-46619D01*
X74474Y-46703D01*
X74693Y-46703D01*
X74895Y-46620D01*
X75050Y-46465D01*
X75076Y-46402D01*
X75101Y-46464D01*
X75256Y-46619D01*
X75458Y-46703D01*
X75677Y-46703D01*
X75879Y-46620D01*
X76034Y-46465D01*
X76118Y-46263D01*
X76118Y-46044D01*
X76118Y-49200D01*
X75970Y-49200D01*
X75975Y-49187D01*
X75976Y-49025D01*
X75976Y-48041D01*
X75914Y-47891D01*
X75799Y-47776D01*
X75649Y-47714D01*
X75487Y-47714D01*
X75337Y-47776D01*
X75223Y-47890D01*
X75161Y-48040D01*
X75160Y-48202D01*
X75222Y-48352D01*
X75337Y-48467D01*
X75487Y-48529D01*
X75649Y-48529D01*
X75799Y-48467D01*
X75913Y-48353D01*
X75975Y-48203D01*
X75976Y-48041D01*
X75976Y-49025D01*
X75914Y-48875D01*
X75799Y-48761D01*
X75649Y-48698D01*
X75487Y-48698D01*
X75337Y-48760D01*
X75223Y-48875D01*
X75161Y-49024D01*
X75160Y-49186D01*
X75166Y-49200D01*
X74154Y-49200D01*
X74154Y-48203D01*
X74143Y-47985D01*
X74081Y-47834D01*
X74007Y-47813D01*
X74007Y-46072D01*
X73945Y-45923D01*
X73831Y-45808D01*
X73681Y-45746D01*
X73519Y-45745D01*
X73369Y-45807D01*
X73254Y-45922D01*
X73192Y-46072D01*
X73192Y-46234D01*
X73254Y-46384D01*
X73368Y-46498D01*
X73518Y-46560D01*
X73680Y-46561D01*
X73830Y-46499D01*
X73945Y-46384D01*
X74007Y-46234D01*
X74007Y-46072D01*
X74007Y-47813D01*
X73985Y-47806D01*
X73915Y-47877D01*
X73915Y-47736D01*
X73887Y-47640D01*
X73681Y-47567D01*
X73463Y-47578D01*
X73312Y-47640D01*
X73284Y-47736D01*
X73600Y-48051D01*
X73915Y-47736D01*
X73915Y-47877D01*
X73670Y-48122D01*
X73985Y-48437D01*
X74081Y-48409D01*
X74154Y-48203D01*
X74154Y-49200D01*
X73915Y-49200D01*
X73915Y-48507D01*
X73600Y-48192D01*
X73529Y-48263D01*
X73529Y-48122D01*
X73214Y-47806D01*
X73118Y-47834D01*
X73045Y-48040D01*
X73056Y-48258D01*
X73118Y-48409D01*
X73214Y-48437D01*
X73529Y-48122D01*
X73529Y-48263D01*
X73284Y-48507D01*
X73312Y-48603D01*
X73518Y-48676D01*
X73736Y-48665D01*
X73887Y-48603D01*
X73915Y-48507D01*
X73915Y-49200D01*
X72033Y-49200D01*
X72038Y-49187D01*
X72039Y-49025D01*
X71977Y-48875D01*
X71862Y-48761D01*
X71712Y-48698D01*
X71550Y-48698D01*
X71400Y-48760D01*
X71300Y-48861D01*
X71300Y-48366D01*
X71400Y-48467D01*
X71550Y-48529D01*
X71712Y-48529D01*
X71862Y-48467D01*
X71976Y-48353D01*
X72038Y-48203D01*
X72039Y-48041D01*
X71977Y-47891D01*
X71862Y-47776D01*
X71712Y-47714D01*
X71550Y-47714D01*
X71400Y-47776D01*
X71300Y-47877D01*
X71300Y-46599D01*
X71319Y-46619D01*
X71521Y-46703D01*
X71740Y-46703D01*
X71942Y-46620D01*
X72097Y-46465D01*
X72123Y-46402D01*
X72149Y-46464D01*
X72303Y-46619D01*
X72505Y-46703D01*
X72724Y-46703D01*
X72926Y-46620D01*
X73081Y-46465D01*
X73165Y-46263D01*
X73165Y-46044D01*
X73082Y-45842D01*
X72927Y-45687D01*
X72725Y-45603D01*
X72506Y-45603D01*
X72304Y-45687D01*
X72149Y-45841D01*
X72123Y-45904D01*
X72098Y-45842D01*
X71943Y-45687D01*
X71741Y-45603D01*
X71522Y-45603D01*
X71320Y-45687D01*
X71300Y-45707D01*
X71300Y-38300D01*
X78255Y-38300D01*
X78254Y-38360D01*
X78247Y-38367D01*
X78182Y-38465D01*
X78180Y-38479D01*
X78109Y-38450D01*
X77891Y-38449D01*
X77688Y-38533D01*
X77534Y-38688D01*
X77500Y-38769D01*
X77466Y-38688D01*
X77311Y-38534D01*
X77109Y-38450D01*
X76891Y-38449D01*
X76688Y-38533D01*
X76534Y-38688D01*
X76450Y-38890D01*
X76449Y-39108D01*
X76533Y-39311D01*
X76672Y-39449D01*
X76650Y-39449D01*
X76558Y-39487D01*
X76488Y-39558D01*
X76450Y-39650D01*
X76449Y-39749D01*
X76449Y-40349D01*
X76487Y-40441D01*
X76558Y-40511D01*
X76650Y-40549D01*
X76749Y-40550D01*
X77349Y-40550D01*
X77441Y-40512D01*
X77511Y-40441D01*
X77549Y-40349D01*
X77549Y-40327D01*
X77688Y-40465D01*
X77890Y-40549D01*
X78108Y-40550D01*
X78160Y-40528D01*
X78160Y-46960D01*
X78182Y-47074D01*
X78247Y-47172D01*
X78949Y-47874D01*
X78949Y-48349D01*
X78987Y-48441D01*
X79021Y-48475D01*
X78014Y-48475D01*
X76985Y-47445D01*
X76985Y-45256D01*
X77020Y-45221D01*
X77084Y-45064D01*
X77085Y-44895D01*
X77020Y-44739D01*
X76901Y-44619D01*
X76744Y-44555D01*
X76575Y-44554D01*
X76485Y-44592D01*
X76485Y-43855D01*
X76420Y-43699D01*
X76301Y-43579D01*
X76144Y-43515D01*
X76025Y-43514D01*
X76025Y-41896D01*
X75945Y-41703D01*
X75825Y-41582D01*
X75825Y-39417D01*
X75944Y-39297D01*
X76024Y-39104D01*
X76025Y-38896D01*
X75945Y-38703D01*
X75797Y-38555D01*
X75604Y-38475D01*
X75396Y-38474D01*
X75203Y-38554D01*
X75055Y-38702D01*
X74975Y-38895D01*
X74974Y-39103D01*
X75054Y-39297D01*
X75175Y-39417D01*
X75175Y-41582D01*
X75055Y-41702D01*
X74975Y-41895D01*
X74974Y-42103D01*
X75054Y-42297D01*
X75202Y-42444D01*
X75395Y-42524D01*
X75603Y-42525D01*
X75797Y-42445D01*
X75944Y-42297D01*
X76024Y-42104D01*
X76025Y-41896D01*
X76025Y-43514D01*
X75975Y-43514D01*
X75819Y-43579D01*
X75723Y-43675D01*
X74029Y-43675D01*
X74029Y-42075D01*
X74029Y-39075D01*
X74018Y-38867D01*
X73960Y-38727D01*
X73867Y-38702D01*
X73797Y-38773D01*
X73797Y-38632D01*
X73772Y-38539D01*
X73575Y-38470D01*
X73367Y-38481D01*
X73227Y-38539D01*
X73202Y-38632D01*
X73500Y-38929D01*
X73797Y-38632D01*
X73797Y-38773D01*
X73570Y-39000D01*
X73867Y-39297D01*
X73960Y-39272D01*
X74029Y-39075D01*
X74029Y-42075D01*
X74018Y-41867D01*
X73960Y-41727D01*
X73867Y-41702D01*
X73797Y-41773D01*
X73797Y-41632D01*
X73797Y-39367D01*
X73500Y-39070D01*
X73429Y-39141D01*
X73429Y-39000D01*
X73132Y-38702D01*
X73039Y-38727D01*
X72970Y-38924D01*
X72981Y-39132D01*
X73039Y-39272D01*
X73132Y-39297D01*
X73429Y-39000D01*
X73429Y-39141D01*
X73202Y-39367D01*
X73227Y-39460D01*
X73424Y-39529D01*
X73632Y-39518D01*
X73772Y-39460D01*
X73797Y-39367D01*
X73797Y-41632D01*
X73772Y-41539D01*
X73575Y-41470D01*
X73367Y-41481D01*
X73227Y-41539D01*
X73202Y-41632D01*
X73500Y-41929D01*
X73797Y-41632D01*
X73797Y-41773D01*
X73570Y-42000D01*
X73867Y-42297D01*
X73960Y-42272D01*
X74029Y-42075D01*
X74029Y-43675D01*
X73797Y-43675D01*
X73797Y-42367D01*
X73500Y-42070D01*
X73429Y-42141D01*
X73429Y-42000D01*
X73132Y-41702D01*
X73039Y-41727D01*
X72970Y-41924D01*
X72981Y-42132D01*
X73039Y-42272D01*
X73132Y-42297D01*
X73429Y-42000D01*
X73429Y-42141D01*
X73202Y-42367D01*
X73227Y-42460D01*
X73424Y-42529D01*
X73632Y-42518D01*
X73772Y-42460D01*
X73797Y-42367D01*
X73797Y-43675D01*
X72529Y-43675D01*
X72529Y-41075D01*
X72518Y-40867D01*
X72460Y-40727D01*
X72367Y-40702D01*
X72297Y-40773D01*
X72297Y-40632D01*
X72272Y-40539D01*
X72075Y-40470D01*
X71867Y-40481D01*
X71727Y-40539D01*
X71702Y-40632D01*
X72000Y-40929D01*
X72297Y-40632D01*
X72297Y-40773D01*
X72070Y-41000D01*
X72367Y-41297D01*
X72460Y-41272D01*
X72529Y-41075D01*
X72529Y-43675D01*
X72524Y-43675D01*
X72487Y-43583D01*
X72416Y-43513D01*
X72324Y-43475D01*
X72225Y-43474D01*
X72225Y-43474D01*
X72297Y-43445D01*
X72444Y-43297D01*
X72524Y-43104D01*
X72525Y-42896D01*
X72445Y-42703D01*
X72297Y-42555D01*
X72164Y-42499D01*
X72297Y-42445D01*
X72444Y-42297D01*
X72524Y-42104D01*
X72525Y-41896D01*
X72445Y-41703D01*
X72297Y-41555D01*
X72171Y-41502D01*
X72272Y-41460D01*
X72297Y-41367D01*
X72000Y-41070D01*
X71929Y-41141D01*
X71929Y-41000D01*
X71632Y-40702D01*
X71539Y-40727D01*
X71470Y-40924D01*
X71481Y-41132D01*
X71539Y-41272D01*
X71632Y-41297D01*
X71929Y-41000D01*
X71929Y-41141D01*
X71702Y-41367D01*
X71727Y-41460D01*
X71837Y-41499D01*
X71703Y-41554D01*
X71555Y-41702D01*
X71475Y-41895D01*
X71474Y-42103D01*
X71554Y-42297D01*
X71702Y-42444D01*
X71835Y-42500D01*
X71703Y-42554D01*
X71555Y-42702D01*
X71475Y-42895D01*
X71474Y-43103D01*
X71554Y-43297D01*
X71702Y-43444D01*
X71774Y-43474D01*
X71675Y-43474D01*
X71583Y-43512D01*
X71513Y-43583D01*
X71475Y-43675D01*
X71474Y-43774D01*
X71474Y-44324D01*
X71512Y-44416D01*
X71583Y-44486D01*
X71675Y-44524D01*
X71774Y-44525D01*
X72324Y-44525D01*
X72416Y-44487D01*
X72486Y-44416D01*
X72524Y-44325D01*
X75878Y-44325D01*
X75975Y-44364D01*
X76144Y-44365D01*
X76300Y-44300D01*
X76420Y-44181D01*
X76484Y-44024D01*
X76485Y-43855D01*
X76485Y-44592D01*
X76419Y-44619D01*
X76299Y-44738D01*
X76235Y-44895D01*
X76234Y-45064D01*
X76299Y-45220D01*
X76335Y-45255D01*
X76335Y-47580D01*
X76359Y-47704D01*
X76430Y-47809D01*
X77650Y-49029D01*
X77650Y-49029D01*
X77755Y-49100D01*
X77755Y-49100D01*
X77855Y-49120D01*
X77879Y-49125D01*
X77879Y-49124D01*
X77880Y-49125D01*
X80920Y-49125D01*
X81044Y-49100D01*
X81044Y-49100D01*
X81149Y-49029D01*
X81644Y-48535D01*
X81811Y-48466D01*
X81965Y-48311D01*
X82049Y-48109D01*
X82050Y-47891D01*
X81966Y-47688D01*
X81811Y-47534D01*
X81736Y-47502D01*
X81787Y-47481D01*
X81815Y-47385D01*
X81500Y-47070D01*
X81184Y-47385D01*
X81212Y-47481D01*
X81267Y-47500D01*
X81188Y-47533D01*
X81034Y-47688D01*
X81000Y-47769D01*
X80966Y-47688D01*
X80811Y-47534D01*
X80730Y-47500D01*
X80811Y-47466D01*
X80965Y-47311D01*
X80997Y-47236D01*
X81018Y-47287D01*
X81114Y-47315D01*
X81429Y-47000D01*
X81114Y-46684D01*
X81018Y-46712D01*
X80999Y-46767D01*
X80966Y-46688D01*
X80870Y-46592D01*
X81035Y-45588D01*
X81034Y-45566D01*
X81040Y-45527D01*
X80859Y-41027D01*
X80848Y-40982D01*
X80842Y-40938D01*
X80835Y-40927D01*
X80832Y-40914D01*
X80803Y-40875D01*
X80781Y-40838D01*
X80771Y-40831D01*
X80763Y-40819D01*
X80721Y-40793D01*
X80687Y-40768D01*
X80675Y-40766D01*
X80663Y-40758D01*
X80614Y-40750D01*
X80574Y-40740D01*
X80246Y-40725D01*
X80181Y-40659D01*
X80024Y-40595D01*
X79914Y-40594D01*
X79831Y-40525D01*
X79890Y-40549D01*
X80108Y-40550D01*
X80311Y-40466D01*
X80465Y-40311D01*
X80497Y-40236D01*
X80518Y-40287D01*
X80614Y-40315D01*
X80929Y-40000D01*
X80614Y-39684D01*
X80518Y-39712D01*
X80499Y-39767D01*
X80466Y-39688D01*
X80311Y-39534D01*
X80230Y-39500D01*
X80311Y-39466D01*
X80465Y-39311D01*
X80497Y-39236D01*
X80518Y-39287D01*
X80614Y-39315D01*
X80929Y-39000D01*
X80614Y-38684D01*
X80518Y-38712D01*
X80499Y-38767D01*
X80466Y-38688D01*
X80311Y-38534D01*
X80109Y-38450D01*
X79891Y-38449D01*
X79688Y-38533D01*
X79534Y-38688D01*
X79500Y-38769D01*
X79466Y-38688D01*
X79311Y-38534D01*
X79109Y-38450D01*
X79102Y-38450D01*
X79104Y-38444D01*
X79105Y-38300D01*
X86700Y-38300D01*
X86700Y-49200D01*
X86700Y-49200D01*
G37*
G54D17*
X86700Y-49200D02*
X85514Y-49200D01*
X85514Y-39754D01*
X85503Y-39535D01*
X85441Y-39384D01*
X85345Y-39357D01*
X85275Y-39427D01*
X85275Y-39286D01*
X85247Y-39191D01*
X85041Y-39117D01*
X84823Y-39128D01*
X84672Y-39191D01*
X84644Y-39286D01*
X84960Y-39601D01*
X85275Y-39286D01*
X85275Y-39427D01*
X85030Y-39672D01*
X85345Y-39987D01*
X85441Y-39960D01*
X85514Y-39754D01*
X85514Y-49200D01*
X85510Y-49200D01*
X85510Y-47555D01*
X85426Y-47353D01*
X85275Y-47201D01*
X85275Y-40058D01*
X84960Y-39742D01*
X84889Y-39813D01*
X84889Y-39672D01*
X84574Y-39357D01*
X84478Y-39384D01*
X84405Y-39590D01*
X84416Y-39809D01*
X84478Y-39960D01*
X84574Y-39987D01*
X84889Y-39672D01*
X84889Y-39813D01*
X84644Y-40058D01*
X84672Y-40153D01*
X84878Y-40227D01*
X85096Y-40216D01*
X85247Y-40153D01*
X85275Y-40058D01*
X85275Y-47201D01*
X85271Y-47198D01*
X85069Y-47114D01*
X84851Y-47114D01*
X84648Y-47197D01*
X84494Y-47352D01*
X84410Y-47554D01*
X84409Y-47773D01*
X84493Y-47975D01*
X84648Y-48130D01*
X84850Y-48214D01*
X85068Y-48214D01*
X85271Y-48130D01*
X85425Y-47976D01*
X85509Y-47774D01*
X85510Y-47555D01*
X85510Y-49200D01*
X82054Y-49200D01*
X82054Y-47081D01*
X82043Y-46863D01*
X81981Y-46712D01*
X81885Y-46684D01*
X81815Y-46755D01*
X81815Y-46614D01*
X81787Y-46518D01*
X81581Y-46445D01*
X81554Y-46446D01*
X81554Y-40081D01*
X81554Y-39081D01*
X81543Y-38863D01*
X81481Y-38712D01*
X81385Y-38684D01*
X81315Y-38755D01*
X81315Y-38614D01*
X81287Y-38518D01*
X81081Y-38445D01*
X80863Y-38456D01*
X80712Y-38518D01*
X80684Y-38614D01*
X81000Y-38929D01*
X81315Y-38614D01*
X81315Y-38755D01*
X81070Y-39000D01*
X81385Y-39315D01*
X81481Y-39287D01*
X81554Y-39081D01*
X81554Y-40081D01*
X81543Y-39863D01*
X81481Y-39712D01*
X81385Y-39684D01*
X81315Y-39755D01*
X81315Y-39614D01*
X81287Y-39518D01*
X81239Y-39501D01*
X81287Y-39481D01*
X81315Y-39385D01*
X81000Y-39070D01*
X80684Y-39385D01*
X80712Y-39481D01*
X80760Y-39498D01*
X80712Y-39518D01*
X80684Y-39614D01*
X81000Y-39929D01*
X81315Y-39614D01*
X81315Y-39755D01*
X81070Y-40000D01*
X81385Y-40315D01*
X81481Y-40287D01*
X81554Y-40081D01*
X81554Y-46446D01*
X81363Y-46456D01*
X81315Y-46476D01*
X81315Y-40385D01*
X81000Y-40070D01*
X80684Y-40385D01*
X80712Y-40481D01*
X80918Y-40554D01*
X81136Y-40543D01*
X81287Y-40481D01*
X81315Y-40385D01*
X81315Y-46476D01*
X81212Y-46518D01*
X81184Y-46614D01*
X81500Y-46929D01*
X81815Y-46614D01*
X81815Y-46755D01*
X81570Y-47000D01*
X81885Y-47315D01*
X81981Y-47287D01*
X82054Y-47081D01*
X82054Y-49200D01*
X76118Y-49200D01*
X76118Y-46044D01*
X76035Y-45842D01*
X75880Y-45687D01*
X75678Y-45603D01*
X75459Y-45603D01*
X75257Y-45687D01*
X75102Y-45841D01*
X75076Y-45904D01*
X75050Y-45842D01*
X74896Y-45687D01*
X74694Y-45603D01*
X74475Y-45603D01*
X74273Y-45687D01*
X74118Y-45841D01*
X74034Y-46043D01*
X74034Y-46262D01*
X74117Y-46464D01*
X74272Y-46619D01*
X74474Y-46703D01*
X74693Y-46703D01*
X74895Y-46620D01*
X75050Y-46465D01*
X75076Y-46402D01*
X75101Y-46464D01*
X75256Y-46619D01*
X75458Y-46703D01*
X75677Y-46703D01*
X75879Y-46620D01*
X76034Y-46465D01*
X76118Y-46263D01*
X76118Y-46044D01*
X76118Y-49200D01*
X75970Y-49200D01*
X75975Y-49187D01*
X75976Y-49025D01*
X75976Y-48041D01*
X75914Y-47891D01*
X75799Y-47776D01*
X75649Y-47714D01*
X75487Y-47714D01*
X75337Y-47776D01*
X75223Y-47890D01*
X75161Y-48040D01*
X75160Y-48202D01*
X75222Y-48352D01*
X75337Y-48467D01*
X75487Y-48529D01*
X75649Y-48529D01*
X75799Y-48467D01*
X75913Y-48353D01*
X75975Y-48203D01*
X75976Y-48041D01*
X75976Y-49025D01*
X75914Y-48875D01*
X75799Y-48761D01*
X75649Y-48698D01*
X75487Y-48698D01*
X75337Y-48760D01*
X75223Y-48875D01*
X75161Y-49024D01*
X75160Y-49186D01*
X75166Y-49200D01*
X74154Y-49200D01*
X74154Y-48203D01*
X74143Y-47985D01*
X74081Y-47834D01*
X74007Y-47813D01*
X74007Y-46072D01*
X73945Y-45923D01*
X73831Y-45808D01*
X73681Y-45746D01*
X73519Y-45745D01*
X73369Y-45807D01*
X73254Y-45922D01*
X73192Y-46072D01*
X73192Y-46234D01*
X73254Y-46384D01*
X73368Y-46498D01*
X73518Y-46560D01*
X73680Y-46561D01*
X73830Y-46499D01*
X73945Y-46384D01*
X74007Y-46234D01*
X74007Y-46072D01*
X74007Y-47813D01*
X73985Y-47806D01*
X73915Y-47877D01*
X73915Y-47736D01*
X73887Y-47640D01*
X73681Y-47567D01*
X73463Y-47578D01*
X73312Y-47640D01*
X73284Y-47736D01*
X73600Y-48051D01*
X73915Y-47736D01*
X73915Y-47877D01*
X73670Y-48122D01*
X73985Y-48437D01*
X74081Y-48409D01*
X74154Y-48203D01*
X74154Y-49200D01*
X73915Y-49200D01*
X73915Y-48507D01*
X73600Y-48192D01*
X73529Y-48263D01*
X73529Y-48122D01*
X73214Y-47806D01*
X73118Y-47834D01*
X73045Y-48040D01*
X73056Y-48258D01*
X73118Y-48409D01*
X73214Y-48437D01*
X73529Y-48122D01*
X73529Y-48263D01*
X73284Y-48507D01*
X73312Y-48603D01*
X73518Y-48676D01*
X73736Y-48665D01*
X73887Y-48603D01*
X73915Y-48507D01*
X73915Y-49200D01*
X72033Y-49200D01*
X72038Y-49187D01*
X72039Y-49025D01*
X71977Y-48875D01*
X71862Y-48761D01*
X71712Y-48698D01*
X71550Y-48698D01*
X71400Y-48760D01*
X71300Y-48861D01*
X71300Y-48366D01*
X71400Y-48467D01*
X71550Y-48529D01*
X71712Y-48529D01*
X71862Y-48467D01*
X71976Y-48353D01*
X72038Y-48203D01*
X72039Y-48041D01*
X71977Y-47891D01*
X71862Y-47776D01*
X71712Y-47714D01*
X71550Y-47714D01*
X71400Y-47776D01*
X71300Y-47877D01*
X71300Y-46599D01*
X71319Y-46619D01*
X71521Y-46703D01*
X71740Y-46703D01*
X71942Y-46620D01*
X72097Y-46465D01*
X72123Y-46402D01*
X72149Y-46464D01*
X72303Y-46619D01*
X72505Y-46703D01*
X72724Y-46703D01*
X72926Y-46620D01*
X73081Y-46465D01*
X73165Y-46263D01*
X73165Y-46044D01*
X73082Y-45842D01*
X72927Y-45687D01*
X72725Y-45603D01*
X72506Y-45603D01*
X72304Y-45687D01*
X72149Y-45841D01*
X72123Y-45904D01*
X72098Y-45842D01*
X71943Y-45687D01*
X71741Y-45603D01*
X71522Y-45603D01*
X71320Y-45687D01*
X71300Y-45707D01*
X71300Y-38300D01*
X78255Y-38300D01*
X78254Y-38360D01*
X78247Y-38367D01*
X78182Y-38465D01*
X78180Y-38479D01*
X78109Y-38450D01*
X77891Y-38449D01*
X77688Y-38533D01*
X77534Y-38688D01*
X77500Y-38769D01*
X77466Y-38688D01*
X77311Y-38534D01*
X77109Y-38450D01*
X76891Y-38449D01*
X76688Y-38533D01*
X76534Y-38688D01*
X76450Y-38890D01*
X76449Y-39108D01*
X76533Y-39311D01*
X76672Y-39449D01*
X76650Y-39449D01*
X76558Y-39487D01*
X76488Y-39558D01*
X76450Y-39650D01*
X76449Y-39749D01*
X76449Y-40349D01*
X76487Y-40441D01*
X76558Y-40511D01*
X76650Y-40549D01*
X76749Y-40550D01*
X77349Y-40550D01*
X77441Y-40512D01*
X77511Y-40441D01*
X77549Y-40349D01*
X77549Y-40327D01*
X77688Y-40465D01*
X77890Y-40549D01*
X78108Y-40550D01*
X78160Y-40528D01*
X78160Y-46960D01*
X78182Y-47074D01*
X78247Y-47172D01*
X78949Y-47874D01*
X78949Y-48349D01*
X78987Y-48441D01*
X79021Y-48475D01*
X78014Y-48475D01*
X76985Y-47445D01*
X76985Y-45256D01*
X77020Y-45221D01*
X77084Y-45064D01*
X77085Y-44895D01*
X77020Y-44739D01*
X76901Y-44619D01*
X76744Y-44555D01*
X76575Y-44554D01*
X76485Y-44592D01*
X76485Y-43855D01*
X76420Y-43699D01*
X76301Y-43579D01*
X76144Y-43515D01*
X76025Y-43514D01*
X76025Y-41896D01*
X75945Y-41703D01*
X75825Y-41582D01*
X75825Y-39417D01*
X75944Y-39297D01*
X76024Y-39104D01*
X76025Y-38896D01*
X75945Y-38703D01*
X75797Y-38555D01*
X75604Y-38475D01*
X75396Y-38474D01*
X75203Y-38554D01*
X75055Y-38702D01*
X74975Y-38895D01*
X74974Y-39103D01*
X75054Y-39297D01*
X75175Y-39417D01*
X75175Y-41582D01*
X75055Y-41702D01*
X74975Y-41895D01*
X74974Y-42103D01*
X75054Y-42297D01*
X75202Y-42444D01*
X75395Y-42524D01*
X75603Y-42525D01*
X75797Y-42445D01*
X75944Y-42297D01*
X76024Y-42104D01*
X76025Y-41896D01*
X76025Y-43514D01*
X75975Y-43514D01*
X75819Y-43579D01*
X75723Y-43675D01*
X74029Y-43675D01*
X74029Y-42075D01*
X74029Y-39075D01*
X74018Y-38867D01*
X73960Y-38727D01*
X73867Y-38702D01*
X73797Y-38773D01*
X73797Y-38632D01*
X73772Y-38539D01*
X73575Y-38470D01*
X73367Y-38481D01*
X73227Y-38539D01*
X73202Y-38632D01*
X73500Y-38929D01*
X73797Y-38632D01*
X73797Y-38773D01*
X73570Y-39000D01*
X73867Y-39297D01*
X73960Y-39272D01*
X74029Y-39075D01*
X74029Y-42075D01*
X74018Y-41867D01*
X73960Y-41727D01*
X73867Y-41702D01*
X73797Y-41773D01*
X73797Y-41632D01*
X73797Y-39367D01*
X73500Y-39070D01*
X73429Y-39141D01*
X73429Y-39000D01*
X73132Y-38702D01*
X73039Y-38727D01*
X72970Y-38924D01*
X72981Y-39132D01*
X73039Y-39272D01*
X73132Y-39297D01*
X73429Y-39000D01*
X73429Y-39141D01*
X73202Y-39367D01*
X73227Y-39460D01*
X73424Y-39529D01*
X73632Y-39518D01*
X73772Y-39460D01*
X73797Y-39367D01*
X73797Y-41632D01*
X73772Y-41539D01*
X73575Y-41470D01*
X73367Y-41481D01*
X73227Y-41539D01*
X73202Y-41632D01*
X73500Y-41929D01*
X73797Y-41632D01*
X73797Y-41773D01*
X73570Y-42000D01*
X73867Y-42297D01*
X73960Y-42272D01*
X74029Y-42075D01*
X74029Y-43675D01*
X73797Y-43675D01*
X73797Y-42367D01*
X73500Y-42070D01*
X73429Y-42141D01*
X73429Y-42000D01*
X73132Y-41702D01*
X73039Y-41727D01*
X72970Y-41924D01*
X72981Y-42132D01*
X73039Y-42272D01*
X73132Y-42297D01*
X73429Y-42000D01*
X73429Y-42141D01*
X73202Y-42367D01*
X73227Y-42460D01*
X73424Y-42529D01*
X73632Y-42518D01*
X73772Y-42460D01*
X73797Y-42367D01*
X73797Y-43675D01*
X72529Y-43675D01*
X72529Y-41075D01*
X72518Y-40867D01*
X72460Y-40727D01*
X72367Y-40702D01*
X72297Y-40773D01*
X72297Y-40632D01*
X72272Y-40539D01*
X72075Y-40470D01*
X71867Y-40481D01*
X71727Y-40539D01*
X71702Y-40632D01*
X72000Y-40929D01*
X72297Y-40632D01*
X72297Y-40773D01*
X72070Y-41000D01*
X72367Y-41297D01*
X72460Y-41272D01*
X72529Y-41075D01*
X72529Y-43675D01*
X72524Y-43675D01*
X72487Y-43583D01*
X72416Y-43513D01*
X72324Y-43475D01*
X72225Y-43474D01*
X72225Y-43474D01*
X72297Y-43445D01*
X72444Y-43297D01*
X72524Y-43104D01*
X72525Y-42896D01*
X72445Y-42703D01*
X72297Y-42555D01*
X72164Y-42499D01*
X72297Y-42445D01*
X72444Y-42297D01*
X72524Y-42104D01*
X72525Y-41896D01*
X72445Y-41703D01*
X72297Y-41555D01*
X72171Y-41502D01*
X72272Y-41460D01*
X72297Y-41367D01*
X72000Y-41070D01*
X71929Y-41141D01*
X71929Y-41000D01*
X71632Y-40702D01*
X71539Y-40727D01*
X71470Y-40924D01*
X71481Y-41132D01*
X71539Y-41272D01*
X71632Y-41297D01*
X71929Y-41000D01*
X71929Y-41141D01*
X71702Y-41367D01*
X71727Y-41460D01*
X71837Y-41499D01*
X71703Y-41554D01*
X71555Y-41702D01*
X71475Y-41895D01*
X71474Y-42103D01*
X71554Y-42297D01*
X71702Y-42444D01*
X71835Y-42500D01*
X71703Y-42554D01*
X71555Y-42702D01*
X71475Y-42895D01*
X71474Y-43103D01*
X71554Y-43297D01*
X71702Y-43444D01*
X71774Y-43474D01*
X71675Y-43474D01*
X71583Y-43512D01*
X71513Y-43583D01*
X71475Y-43675D01*
X71474Y-43774D01*
X71474Y-44324D01*
X71512Y-44416D01*
X71583Y-44486D01*
X71675Y-44524D01*
X71774Y-44525D01*
X72324Y-44525D01*
X72416Y-44487D01*
X72486Y-44416D01*
X72524Y-44325D01*
X75878Y-44325D01*
X75975Y-44364D01*
X76144Y-44365D01*
X76300Y-44300D01*
X76420Y-44181D01*
X76484Y-44024D01*
X76485Y-43855D01*
X76485Y-44592D01*
X76419Y-44619D01*
X76299Y-44738D01*
X76235Y-44895D01*
X76234Y-45064D01*
X76299Y-45220D01*
X76335Y-45255D01*
X76335Y-47580D01*
X76359Y-47704D01*
X76430Y-47809D01*
X77650Y-49029D01*
X77650Y-49029D01*
X77755Y-49100D01*
X77755Y-49100D01*
X77855Y-49120D01*
X77879Y-49125D01*
X77879Y-49124D01*
X77880Y-49125D01*
X80920Y-49125D01*
X81044Y-49100D01*
X81044Y-49100D01*
X81149Y-49029D01*
X81644Y-48535D01*
X81811Y-48466D01*
X81965Y-48311D01*
X82049Y-48109D01*
X82050Y-47891D01*
X81966Y-47688D01*
X81811Y-47534D01*
X81736Y-47502D01*
X81787Y-47481D01*
X81815Y-47385D01*
X81500Y-47070D01*
X81184Y-47385D01*
X81212Y-47481D01*
X81267Y-47500D01*
X81188Y-47533D01*
X81034Y-47688D01*
X81000Y-47769D01*
X80966Y-47688D01*
X80811Y-47534D01*
X80730Y-47500D01*
X80811Y-47466D01*
X80965Y-47311D01*
X80997Y-47236D01*
X81018Y-47287D01*
X81114Y-47315D01*
X81429Y-47000D01*
X81114Y-46684D01*
X81018Y-46712D01*
X80999Y-46767D01*
X80966Y-46688D01*
X80870Y-46592D01*
X81035Y-45588D01*
X81034Y-45566D01*
X81040Y-45527D01*
X80859Y-41027D01*
X80848Y-40982D01*
X80842Y-40938D01*
X80835Y-40927D01*
X80832Y-40914D01*
X80803Y-40875D01*
X80781Y-40838D01*
X80771Y-40831D01*
X80763Y-40819D01*
X80721Y-40793D01*
X80687Y-40768D01*
X80675Y-40766D01*
X80663Y-40758D01*
X80614Y-40750D01*
X80574Y-40740D01*
X80246Y-40725D01*
X80181Y-40659D01*
X80024Y-40595D01*
X79914Y-40594D01*
X79831Y-40525D01*
X79890Y-40549D01*
X80108Y-40550D01*
X80311Y-40466D01*
X80465Y-40311D01*
X80497Y-40236D01*
X80518Y-40287D01*
X80614Y-40315D01*
X80929Y-40000D01*
X80614Y-39684D01*
X80518Y-39712D01*
X80499Y-39767D01*
X80466Y-39688D01*
X80311Y-39534D01*
X80230Y-39500D01*
X80311Y-39466D01*
X80465Y-39311D01*
X80497Y-39236D01*
X80518Y-39287D01*
X80614Y-39315D01*
X80929Y-39000D01*
X80614Y-38684D01*
X80518Y-38712D01*
X80499Y-38767D01*
X80466Y-38688D01*
X80311Y-38534D01*
X80109Y-38450D01*
X79891Y-38449D01*
X79688Y-38533D01*
X79534Y-38688D01*
X79500Y-38769D01*
X79466Y-38688D01*
X79311Y-38534D01*
X79109Y-38450D01*
X79102Y-38450D01*
X79104Y-38444D01*
X79105Y-38300D01*
X86700Y-38300D01*
X86700Y-49200D01*
M02*
