G04 (created by PCBNEW (2013-04-19 BZR 4011)-stable) date 6/9/2013 6:15:15 PM*
%MOIN*%
G04 Gerber Fmt 3.4, Leading zero omitted, Abs format*
%FSLAX34Y34*%
G01*
G70*
G90*
G04 APERTURE LIST*
%ADD10C,0.006*%
%ADD11C,0.005*%
%ADD12C,0.00787402*%
%ADD13C,0.012*%
%ADD14C,0.0026*%
%ADD15C,0.01*%
%ADD16C,0.004*%
%ADD17C,0.0047*%
%ADD18C,0.0028*%
%ADD19C,0.007*%
%ADD20C,4.72441e-006*%
%ADD21C,0.02*%
%ADD22C,0.00590551*%
%ADD23C,0.008*%
%ADD24C,0.003*%
%ADD25C,0.0045*%
%ADD26C,0.0035*%
%ADD27R,0.055X0.055*%
%ADD28C,0.055*%
%ADD29R,0.06X0.06*%
%ADD30C,0.06*%
%ADD31R,0.045X0.025*%
%ADD32R,0.025X0.045*%
%ADD33R,0.0314X0.0314*%
%ADD34R,0.099X0.04*%
%ADD35R,0.24X0.099*%
%ADD36R,0.0157X0.0236*%
%ADD37R,0.022X0.05*%
%ADD38R,0.05X0.022*%
%ADD39C,0.0314961*%
G04 APERTURE END LIST*
G54D10*
G54D11*
X76633Y-38180D02*
X76700Y-38380D01*
X76766Y-38180D01*
X76947Y-38361D02*
X76938Y-38371D01*
X76909Y-38380D01*
X76890Y-38380D01*
X76861Y-38371D01*
X76842Y-38352D01*
X76833Y-38333D01*
X76823Y-38295D01*
X76823Y-38266D01*
X76833Y-38228D01*
X76842Y-38209D01*
X76861Y-38190D01*
X76890Y-38180D01*
X76909Y-38180D01*
X76938Y-38190D01*
X76947Y-38200D01*
X77147Y-38361D02*
X77138Y-38371D01*
X77109Y-38380D01*
X77090Y-38380D01*
X77061Y-38371D01*
X77042Y-38352D01*
X77033Y-38333D01*
X77023Y-38295D01*
X77023Y-38266D01*
X77033Y-38228D01*
X77042Y-38209D01*
X77061Y-38190D01*
X77090Y-38180D01*
X77109Y-38180D01*
X77138Y-38190D01*
X77147Y-38200D01*
X80847Y-38190D02*
X80828Y-38180D01*
X80800Y-38180D01*
X80771Y-38190D01*
X80752Y-38209D01*
X80742Y-38228D01*
X80733Y-38266D01*
X80733Y-38295D01*
X80742Y-38333D01*
X80752Y-38352D01*
X80771Y-38371D01*
X80800Y-38380D01*
X80819Y-38380D01*
X80847Y-38371D01*
X80857Y-38361D01*
X80857Y-38295D01*
X80819Y-38295D01*
X80942Y-38380D02*
X80942Y-38180D01*
X81057Y-38380D01*
X81057Y-38180D01*
X81152Y-38380D02*
X81152Y-38180D01*
X81200Y-38180D01*
X81228Y-38190D01*
X81247Y-38209D01*
X81257Y-38228D01*
X81266Y-38266D01*
X81266Y-38295D01*
X81257Y-38333D01*
X81247Y-38352D01*
X81228Y-38371D01*
X81200Y-38380D01*
X81152Y-38380D01*
X79855Y-38380D02*
X79855Y-38180D01*
X80064Y-38380D02*
X79998Y-38285D01*
X79950Y-38380D02*
X79950Y-38180D01*
X80026Y-38180D01*
X80045Y-38190D01*
X80055Y-38200D01*
X80064Y-38219D01*
X80064Y-38247D01*
X80055Y-38266D01*
X80045Y-38276D01*
X80026Y-38285D01*
X79950Y-38285D01*
X80283Y-38400D02*
X80264Y-38390D01*
X80245Y-38371D01*
X80217Y-38342D01*
X80198Y-38333D01*
X80179Y-38333D01*
X80188Y-38380D02*
X80169Y-38371D01*
X80150Y-38352D01*
X80140Y-38314D01*
X80140Y-38247D01*
X80150Y-38209D01*
X80169Y-38190D01*
X80188Y-38180D01*
X80226Y-38180D01*
X80245Y-38190D01*
X80264Y-38209D01*
X80274Y-38247D01*
X80274Y-38314D01*
X80264Y-38352D01*
X80245Y-38371D01*
X80226Y-38380D01*
X80188Y-38380D01*
X78905Y-38360D02*
X78905Y-38160D01*
X78972Y-38303D01*
X79039Y-38160D01*
X79039Y-38360D01*
X79172Y-38160D02*
X79210Y-38160D01*
X79229Y-38170D01*
X79248Y-38189D01*
X79258Y-38227D01*
X79258Y-38294D01*
X79248Y-38332D01*
X79229Y-38351D01*
X79210Y-38360D01*
X79172Y-38360D01*
X79153Y-38351D01*
X79134Y-38332D01*
X79124Y-38294D01*
X79124Y-38227D01*
X79134Y-38189D01*
X79153Y-38170D01*
X79172Y-38160D01*
X79334Y-38351D02*
X79362Y-38360D01*
X79410Y-38360D01*
X79429Y-38351D01*
X79439Y-38341D01*
X79448Y-38322D01*
X79448Y-38303D01*
X79439Y-38284D01*
X79429Y-38275D01*
X79410Y-38265D01*
X79372Y-38256D01*
X79353Y-38246D01*
X79343Y-38237D01*
X79334Y-38218D01*
X79334Y-38199D01*
X79343Y-38180D01*
X79353Y-38170D01*
X79372Y-38160D01*
X79419Y-38160D01*
X79448Y-38170D01*
X79534Y-38360D02*
X79534Y-38160D01*
G54D12*
X86000Y-45875D02*
G75*
G03X86000Y-45875I-50J0D01*
G74*
G01*
G54D11*
X82646Y-41095D02*
X82722Y-41361D01*
X82799Y-41171D01*
X82875Y-41361D01*
X82951Y-41095D01*
X83103Y-41361D02*
X83103Y-41095D01*
X83103Y-40961D02*
X83084Y-40980D01*
X83103Y-41000D01*
X83122Y-40980D01*
X83103Y-40961D01*
X83103Y-41000D01*
X83294Y-41209D02*
X83599Y-41209D01*
X83789Y-41361D02*
X83789Y-41095D01*
X83789Y-41133D02*
X83808Y-41114D01*
X83846Y-41095D01*
X83903Y-41095D01*
X83941Y-41114D01*
X83960Y-41152D01*
X83960Y-41361D01*
X83960Y-41152D02*
X83980Y-41114D01*
X84018Y-41095D01*
X84075Y-41095D01*
X84113Y-41114D01*
X84132Y-41152D01*
X84132Y-41361D01*
X84322Y-41361D02*
X84322Y-41095D01*
X84322Y-40961D02*
X84303Y-40980D01*
X84322Y-41000D01*
X84341Y-40980D01*
X84322Y-40961D01*
X84322Y-41000D01*
X84513Y-41095D02*
X84513Y-41361D01*
X84513Y-41133D02*
X84532Y-41114D01*
X84570Y-41095D01*
X84627Y-41095D01*
X84665Y-41114D01*
X84684Y-41152D01*
X84684Y-41361D01*
X85141Y-41095D02*
X85237Y-41361D01*
X85332Y-41095D01*
X85465Y-41000D02*
X85484Y-40980D01*
X85522Y-40961D01*
X85618Y-40961D01*
X85656Y-40980D01*
X85675Y-41000D01*
X85694Y-41038D01*
X85694Y-41076D01*
X85675Y-41133D01*
X85446Y-41361D01*
X85694Y-41361D01*
X82151Y-41933D02*
X82132Y-41952D01*
X82075Y-41971D01*
X82037Y-41971D01*
X81980Y-41952D01*
X81941Y-41914D01*
X81922Y-41876D01*
X81903Y-41800D01*
X81903Y-41743D01*
X81922Y-41667D01*
X81941Y-41629D01*
X81980Y-41590D01*
X82037Y-41571D01*
X82075Y-41571D01*
X82132Y-41590D01*
X82151Y-41610D01*
X82380Y-41971D02*
X82341Y-41952D01*
X82322Y-41933D01*
X82303Y-41895D01*
X82303Y-41781D01*
X82322Y-41743D01*
X82341Y-41724D01*
X82380Y-41705D01*
X82437Y-41705D01*
X82475Y-41724D01*
X82494Y-41743D01*
X82513Y-41781D01*
X82513Y-41895D01*
X82494Y-41933D01*
X82475Y-41952D01*
X82437Y-41971D01*
X82380Y-41971D01*
X82856Y-41971D02*
X82856Y-41571D01*
X82856Y-41952D02*
X82818Y-41971D01*
X82741Y-41971D01*
X82703Y-41952D01*
X82684Y-41933D01*
X82665Y-41895D01*
X82665Y-41781D01*
X82684Y-41743D01*
X82703Y-41724D01*
X82741Y-41705D01*
X82818Y-41705D01*
X82856Y-41724D01*
X83008Y-41705D02*
X83103Y-41971D01*
X83199Y-41705D02*
X83103Y-41971D01*
X83065Y-42067D01*
X83046Y-42086D01*
X83008Y-42105D01*
X83656Y-41971D02*
X83656Y-41571D01*
X83808Y-41571D01*
X83846Y-41590D01*
X83865Y-41610D01*
X83884Y-41648D01*
X83884Y-41705D01*
X83865Y-41743D01*
X83846Y-41762D01*
X83808Y-41781D01*
X83656Y-41781D01*
X84341Y-41952D02*
X84399Y-41971D01*
X84494Y-41971D01*
X84532Y-41952D01*
X84551Y-41933D01*
X84570Y-41895D01*
X84570Y-41857D01*
X84551Y-41819D01*
X84532Y-41800D01*
X84494Y-41781D01*
X84418Y-41762D01*
X84380Y-41743D01*
X84360Y-41724D01*
X84341Y-41686D01*
X84341Y-41648D01*
X84360Y-41610D01*
X84380Y-41590D01*
X84418Y-41571D01*
X84513Y-41571D01*
X84570Y-41590D01*
X84913Y-41952D02*
X84875Y-41971D01*
X84799Y-41971D01*
X84760Y-41952D01*
X84741Y-41933D01*
X84722Y-41895D01*
X84722Y-41781D01*
X84741Y-41743D01*
X84760Y-41724D01*
X84799Y-41705D01*
X84875Y-41705D01*
X84913Y-41724D01*
X85084Y-41971D02*
X85084Y-41571D01*
X85256Y-41971D02*
X85256Y-41762D01*
X85237Y-41724D01*
X85199Y-41705D01*
X85141Y-41705D01*
X85103Y-41724D01*
X85084Y-41743D01*
X85618Y-41971D02*
X85618Y-41762D01*
X85599Y-41724D01*
X85560Y-41705D01*
X85484Y-41705D01*
X85446Y-41724D01*
X85618Y-41952D02*
X85580Y-41971D01*
X85484Y-41971D01*
X85446Y-41952D01*
X85427Y-41914D01*
X85427Y-41876D01*
X85446Y-41838D01*
X85484Y-41819D01*
X85580Y-41819D01*
X85618Y-41800D01*
X85751Y-41705D02*
X85903Y-41705D01*
X85808Y-41971D02*
X85808Y-41629D01*
X85827Y-41590D01*
X85865Y-41571D01*
X85903Y-41571D01*
X86189Y-41952D02*
X86151Y-41971D01*
X86075Y-41971D01*
X86037Y-41952D01*
X86018Y-41914D01*
X86018Y-41762D01*
X86037Y-41724D01*
X86075Y-41705D01*
X86151Y-41705D01*
X86189Y-41724D01*
X86208Y-41762D01*
X86208Y-41800D01*
X86018Y-41838D01*
X86380Y-41971D02*
X86380Y-41705D01*
X86380Y-41781D02*
X86399Y-41743D01*
X86418Y-41724D01*
X86456Y-41705D01*
X86494Y-41705D01*
X82237Y-42220D02*
X82256Y-42200D01*
X82294Y-42181D01*
X82389Y-42181D01*
X82427Y-42200D01*
X82446Y-42220D01*
X82465Y-42258D01*
X82465Y-42296D01*
X82446Y-42353D01*
X82218Y-42581D01*
X82465Y-42581D01*
X82713Y-42181D02*
X82751Y-42181D01*
X82789Y-42200D01*
X82808Y-42220D01*
X82827Y-42258D01*
X82846Y-42334D01*
X82846Y-42429D01*
X82827Y-42505D01*
X82808Y-42543D01*
X82789Y-42562D01*
X82751Y-42581D01*
X82713Y-42581D01*
X82675Y-42562D01*
X82656Y-42543D01*
X82637Y-42505D01*
X82618Y-42429D01*
X82618Y-42334D01*
X82637Y-42258D01*
X82656Y-42220D01*
X82675Y-42200D01*
X82713Y-42181D01*
X83227Y-42581D02*
X82999Y-42581D01*
X83113Y-42581D02*
X83113Y-42181D01*
X83075Y-42239D01*
X83037Y-42277D01*
X82999Y-42296D01*
X83360Y-42181D02*
X83608Y-42181D01*
X83475Y-42334D01*
X83532Y-42334D01*
X83570Y-42353D01*
X83589Y-42372D01*
X83608Y-42410D01*
X83608Y-42505D01*
X83589Y-42543D01*
X83570Y-42562D01*
X83532Y-42581D01*
X83418Y-42581D01*
X83380Y-42562D01*
X83360Y-42543D01*
X83780Y-42429D02*
X84084Y-42429D01*
X84351Y-42181D02*
X84389Y-42181D01*
X84427Y-42200D01*
X84446Y-42220D01*
X84465Y-42258D01*
X84484Y-42334D01*
X84484Y-42429D01*
X84465Y-42505D01*
X84446Y-42543D01*
X84427Y-42562D01*
X84389Y-42581D01*
X84351Y-42581D01*
X84313Y-42562D01*
X84294Y-42543D01*
X84275Y-42505D01*
X84256Y-42429D01*
X84256Y-42334D01*
X84275Y-42258D01*
X84294Y-42220D01*
X84313Y-42200D01*
X84351Y-42181D01*
X84846Y-42181D02*
X84656Y-42181D01*
X84637Y-42372D01*
X84656Y-42353D01*
X84694Y-42334D01*
X84789Y-42334D01*
X84827Y-42353D01*
X84846Y-42372D01*
X84865Y-42410D01*
X84865Y-42505D01*
X84846Y-42543D01*
X84827Y-42562D01*
X84789Y-42581D01*
X84694Y-42581D01*
X84656Y-42562D01*
X84637Y-42543D01*
X85037Y-42429D02*
X85341Y-42429D01*
X85513Y-42220D02*
X85532Y-42200D01*
X85570Y-42181D01*
X85665Y-42181D01*
X85703Y-42200D01*
X85722Y-42220D01*
X85741Y-42258D01*
X85741Y-42296D01*
X85722Y-42353D01*
X85494Y-42581D01*
X85741Y-42581D01*
X85932Y-42581D02*
X86008Y-42581D01*
X86046Y-42562D01*
X86065Y-42543D01*
X86103Y-42486D01*
X86122Y-42410D01*
X86122Y-42258D01*
X86103Y-42220D01*
X86084Y-42200D01*
X86046Y-42181D01*
X85970Y-42181D01*
X85932Y-42200D01*
X85913Y-42220D01*
X85894Y-42258D01*
X85894Y-42353D01*
X85913Y-42391D01*
X85932Y-42410D01*
X85970Y-42429D01*
X86046Y-42429D01*
X86084Y-42410D01*
X86103Y-42391D01*
X86122Y-42353D01*
X77841Y-38361D02*
X77832Y-38371D01*
X77803Y-38380D01*
X77784Y-38380D01*
X77756Y-38371D01*
X77737Y-38352D01*
X77727Y-38333D01*
X77718Y-38295D01*
X77718Y-38266D01*
X77727Y-38228D01*
X77737Y-38209D01*
X77756Y-38190D01*
X77784Y-38180D01*
X77803Y-38180D01*
X77832Y-38190D01*
X77841Y-38200D01*
X77918Y-38371D02*
X77946Y-38380D01*
X77994Y-38380D01*
X78013Y-38371D01*
X78022Y-38361D01*
X78032Y-38342D01*
X78032Y-38323D01*
X78022Y-38304D01*
X78013Y-38295D01*
X77994Y-38285D01*
X77956Y-38276D01*
X77937Y-38266D01*
X77927Y-38257D01*
X77918Y-38238D01*
X77918Y-38219D01*
X77927Y-38200D01*
X77937Y-38190D01*
X77956Y-38180D01*
X78003Y-38180D01*
X78032Y-38190D01*
X78118Y-38380D02*
X78118Y-38180D01*
X78232Y-38380D01*
X78232Y-38180D01*
X81289Y-40635D02*
X81489Y-40635D01*
X81346Y-40702D01*
X81489Y-40769D01*
X81289Y-40769D01*
X81489Y-40902D02*
X81489Y-40940D01*
X81479Y-40959D01*
X81460Y-40978D01*
X81422Y-40988D01*
X81355Y-40988D01*
X81317Y-40978D01*
X81298Y-40959D01*
X81289Y-40940D01*
X81289Y-40902D01*
X81298Y-40883D01*
X81317Y-40864D01*
X81355Y-40854D01*
X81422Y-40854D01*
X81460Y-40864D01*
X81479Y-40883D01*
X81489Y-40902D01*
X81298Y-41064D02*
X81289Y-41092D01*
X81289Y-41140D01*
X81298Y-41159D01*
X81308Y-41169D01*
X81327Y-41178D01*
X81346Y-41178D01*
X81365Y-41169D01*
X81374Y-41159D01*
X81384Y-41140D01*
X81393Y-41102D01*
X81403Y-41083D01*
X81412Y-41073D01*
X81431Y-41064D01*
X81450Y-41064D01*
X81470Y-41073D01*
X81479Y-41083D01*
X81489Y-41102D01*
X81489Y-41149D01*
X81479Y-41178D01*
X81289Y-41264D02*
X81489Y-41264D01*
X78204Y-39919D02*
X78204Y-40119D01*
X77995Y-39919D02*
X78061Y-40014D01*
X78109Y-39919D02*
X78109Y-40119D01*
X78033Y-40119D01*
X78014Y-40109D01*
X78004Y-40100D01*
X77995Y-40080D01*
X77995Y-40052D01*
X78004Y-40033D01*
X78014Y-40023D01*
X78033Y-40014D01*
X78109Y-40014D01*
X77776Y-39900D02*
X77795Y-39909D01*
X77814Y-39928D01*
X77842Y-39957D01*
X77861Y-39966D01*
X77880Y-39966D01*
X77871Y-39919D02*
X77890Y-39928D01*
X77909Y-39947D01*
X77919Y-39985D01*
X77919Y-40052D01*
X77909Y-40090D01*
X77890Y-40109D01*
X77871Y-40119D01*
X77833Y-40119D01*
X77814Y-40109D01*
X77795Y-40090D01*
X77785Y-40052D01*
X77785Y-39985D01*
X77795Y-39947D01*
X77814Y-39928D01*
X77833Y-39919D01*
X77871Y-39919D01*
X77152Y-40109D02*
X77171Y-40119D01*
X77200Y-40119D01*
X77228Y-40109D01*
X77247Y-40090D01*
X77257Y-40071D01*
X77266Y-40033D01*
X77266Y-40004D01*
X77257Y-39966D01*
X77247Y-39947D01*
X77228Y-39928D01*
X77200Y-39919D01*
X77180Y-39919D01*
X77152Y-39928D01*
X77142Y-39938D01*
X77142Y-40004D01*
X77180Y-40004D01*
X77057Y-39919D02*
X77057Y-40119D01*
X76942Y-39919D01*
X76942Y-40119D01*
X76847Y-39919D02*
X76847Y-40119D01*
X76800Y-40119D01*
X76771Y-40109D01*
X76752Y-40090D01*
X76742Y-40071D01*
X76733Y-40033D01*
X76733Y-40004D01*
X76742Y-39966D01*
X76752Y-39947D01*
X76771Y-39928D01*
X76800Y-39919D01*
X76847Y-39919D01*
X80787Y-40610D02*
X80768Y-40600D01*
X80740Y-40600D01*
X80711Y-40610D01*
X80692Y-40629D01*
X80682Y-40648D01*
X80673Y-40686D01*
X80673Y-40715D01*
X80682Y-40753D01*
X80692Y-40772D01*
X80711Y-40791D01*
X80740Y-40800D01*
X80759Y-40800D01*
X80787Y-40791D01*
X80797Y-40781D01*
X80797Y-40715D01*
X80759Y-40715D01*
X80882Y-40800D02*
X80882Y-40600D01*
X80997Y-40800D01*
X80997Y-40600D01*
X81092Y-40800D02*
X81092Y-40600D01*
X81140Y-40600D01*
X81168Y-40610D01*
X81187Y-40629D01*
X81197Y-40648D01*
X81206Y-40686D01*
X81206Y-40715D01*
X81197Y-40753D01*
X81187Y-40772D01*
X81168Y-40791D01*
X81140Y-40800D01*
X81092Y-40800D01*
X79625Y-40800D02*
X79625Y-40600D01*
X79692Y-40743D01*
X79759Y-40600D01*
X79759Y-40800D01*
X79854Y-40800D02*
X79854Y-40600D01*
X79940Y-40791D02*
X79968Y-40800D01*
X80016Y-40800D01*
X80035Y-40791D01*
X80044Y-40781D01*
X80054Y-40762D01*
X80054Y-40743D01*
X80044Y-40724D01*
X80035Y-40715D01*
X80016Y-40705D01*
X79978Y-40696D01*
X79959Y-40686D01*
X79949Y-40677D01*
X79940Y-40658D01*
X79940Y-40639D01*
X79949Y-40620D01*
X79959Y-40610D01*
X79978Y-40600D01*
X80025Y-40600D01*
X80054Y-40610D01*
X80178Y-40600D02*
X80216Y-40600D01*
X80235Y-40610D01*
X80254Y-40629D01*
X80263Y-40667D01*
X80263Y-40734D01*
X80254Y-40772D01*
X80235Y-40791D01*
X80216Y-40800D01*
X80178Y-40800D01*
X80159Y-40791D01*
X80140Y-40772D01*
X80130Y-40734D01*
X80130Y-40667D01*
X80140Y-40629D01*
X80159Y-40610D01*
X80178Y-40600D01*
X77911Y-40781D02*
X77901Y-40791D01*
X77873Y-40800D01*
X77854Y-40800D01*
X77825Y-40791D01*
X77806Y-40772D01*
X77797Y-40753D01*
X77787Y-40715D01*
X77787Y-40686D01*
X77797Y-40648D01*
X77806Y-40629D01*
X77825Y-40610D01*
X77854Y-40600D01*
X77873Y-40600D01*
X77901Y-40610D01*
X77911Y-40620D01*
X77997Y-40696D02*
X78063Y-40696D01*
X78092Y-40800D02*
X77997Y-40800D01*
X77997Y-40600D01*
X78092Y-40600D01*
X78682Y-40791D02*
X78711Y-40800D01*
X78759Y-40800D01*
X78778Y-40791D01*
X78787Y-40781D01*
X78797Y-40762D01*
X78797Y-40743D01*
X78787Y-40724D01*
X78778Y-40715D01*
X78759Y-40705D01*
X78720Y-40696D01*
X78701Y-40686D01*
X78692Y-40677D01*
X78682Y-40658D01*
X78682Y-40639D01*
X78692Y-40620D01*
X78701Y-40610D01*
X78720Y-40600D01*
X78768Y-40600D01*
X78797Y-40610D01*
X78997Y-40781D02*
X78987Y-40791D01*
X78959Y-40800D01*
X78940Y-40800D01*
X78911Y-40791D01*
X78892Y-40772D01*
X78882Y-40753D01*
X78873Y-40715D01*
X78873Y-40686D01*
X78882Y-40648D01*
X78892Y-40629D01*
X78911Y-40610D01*
X78940Y-40600D01*
X78959Y-40600D01*
X78987Y-40610D01*
X78997Y-40620D01*
X79082Y-40800D02*
X79082Y-40600D01*
X79197Y-40800D02*
X79111Y-40686D01*
X79197Y-40600D02*
X79082Y-40715D01*
X76673Y-40600D02*
X76740Y-40800D01*
X76806Y-40600D01*
X76987Y-40781D02*
X76978Y-40791D01*
X76949Y-40800D01*
X76930Y-40800D01*
X76901Y-40791D01*
X76882Y-40772D01*
X76873Y-40753D01*
X76863Y-40715D01*
X76863Y-40686D01*
X76873Y-40648D01*
X76882Y-40629D01*
X76901Y-40610D01*
X76930Y-40600D01*
X76949Y-40600D01*
X76978Y-40610D01*
X76987Y-40620D01*
X77187Y-40781D02*
X77178Y-40791D01*
X77149Y-40800D01*
X77130Y-40800D01*
X77101Y-40791D01*
X77082Y-40772D01*
X77073Y-40753D01*
X77063Y-40715D01*
X77063Y-40686D01*
X77073Y-40648D01*
X77082Y-40629D01*
X77101Y-40610D01*
X77130Y-40600D01*
X77149Y-40600D01*
X77178Y-40610D01*
X77187Y-40620D01*
X81266Y-40119D02*
X81200Y-39919D01*
X81133Y-40119D01*
X80952Y-39938D02*
X80961Y-39928D01*
X80990Y-39919D01*
X81009Y-39919D01*
X81038Y-39928D01*
X81057Y-39947D01*
X81066Y-39966D01*
X81076Y-40004D01*
X81076Y-40033D01*
X81066Y-40071D01*
X81057Y-40090D01*
X81038Y-40109D01*
X81009Y-40119D01*
X80990Y-40119D01*
X80961Y-40109D01*
X80952Y-40100D01*
X80752Y-39938D02*
X80761Y-39928D01*
X80790Y-39919D01*
X80809Y-39919D01*
X80838Y-39928D01*
X80857Y-39947D01*
X80866Y-39966D01*
X80876Y-40004D01*
X80876Y-40033D01*
X80866Y-40071D01*
X80857Y-40090D01*
X80838Y-40109D01*
X80809Y-40119D01*
X80790Y-40119D01*
X80761Y-40109D01*
X80752Y-40100D01*
G54D13*
X71500Y-44500D02*
X71500Y-44500D01*
X72500Y-44500D02*
X71500Y-44500D01*
X71500Y-44500D02*
X71500Y-44500D01*
X71500Y-44500D02*
X71500Y-40500D01*
X71500Y-40500D02*
X72500Y-40500D01*
X72500Y-40500D02*
X72500Y-44500D01*
X72500Y-43500D02*
X71500Y-43500D01*
X76500Y-38500D02*
X81500Y-38500D01*
X81500Y-38500D02*
X81500Y-40500D01*
X81500Y-40500D02*
X76500Y-40500D01*
X76500Y-40500D02*
X76500Y-38500D01*
G54D14*
X79400Y-47100D02*
X79600Y-47100D01*
X79600Y-47100D02*
X79600Y-46900D01*
X79400Y-46900D02*
X79600Y-46900D01*
X79400Y-47100D02*
X79400Y-46900D01*
X80400Y-47100D02*
X80600Y-47100D01*
X80600Y-47100D02*
X80600Y-46900D01*
X80400Y-46900D02*
X80600Y-46900D01*
X80400Y-47100D02*
X80400Y-46900D01*
X80400Y-48100D02*
X80600Y-48100D01*
X80600Y-48100D02*
X80600Y-47900D01*
X80400Y-47900D02*
X80600Y-47900D01*
X80400Y-48100D02*
X80400Y-47900D01*
X81400Y-47100D02*
X81600Y-47100D01*
X81600Y-47100D02*
X81600Y-46900D01*
X81400Y-46900D02*
X81600Y-46900D01*
X81400Y-47100D02*
X81400Y-46900D01*
X81400Y-48100D02*
X81600Y-48100D01*
X81600Y-48100D02*
X81600Y-47900D01*
X81400Y-47900D02*
X81600Y-47900D01*
X81400Y-48100D02*
X81400Y-47900D01*
G54D15*
X79000Y-46500D02*
X82000Y-46500D01*
X82000Y-46500D02*
X82000Y-48500D01*
X82000Y-48500D02*
X79000Y-48500D01*
X79000Y-48500D02*
X79000Y-46500D01*
G54D11*
X75750Y-42550D02*
X75750Y-43450D01*
X75750Y-43450D02*
X75250Y-43450D01*
X75250Y-43450D02*
X75250Y-42550D01*
X75250Y-42550D02*
X75750Y-42550D01*
X75500Y-40500D02*
G75*
G03X75500Y-40500I-1000J0D01*
G74*
G01*
X73000Y-42000D02*
X73000Y-39000D01*
X73000Y-39000D02*
X76000Y-39000D01*
X76000Y-39000D02*
X76000Y-42000D01*
X73000Y-42000D02*
X76000Y-42000D01*
X81050Y-42750D02*
X81950Y-42750D01*
X81950Y-42750D02*
X81950Y-43250D01*
X81950Y-43250D02*
X81050Y-43250D01*
X81050Y-43250D02*
X81050Y-42750D01*
G54D14*
X83677Y-42823D02*
X83677Y-43177D01*
X83677Y-43177D02*
X83834Y-43177D01*
X83834Y-42823D02*
X83834Y-43177D01*
X83677Y-42823D02*
X83834Y-42823D01*
X83166Y-42823D02*
X83166Y-43177D01*
X83166Y-43177D02*
X83323Y-43177D01*
X83323Y-42823D02*
X83323Y-43177D01*
X83166Y-42823D02*
X83323Y-42823D01*
X83500Y-42823D02*
X83500Y-42882D01*
X83500Y-42882D02*
X83618Y-42882D01*
X83618Y-42823D02*
X83618Y-42882D01*
X83500Y-42823D02*
X83618Y-42823D01*
X83500Y-43118D02*
X83500Y-43177D01*
X83500Y-43177D02*
X83618Y-43177D01*
X83618Y-43118D02*
X83618Y-43177D01*
X83500Y-43118D02*
X83618Y-43118D01*
X83500Y-42941D02*
X83500Y-43059D01*
X83500Y-43059D02*
X83618Y-43059D01*
X83618Y-42941D02*
X83618Y-43059D01*
X83500Y-42941D02*
X83618Y-42941D01*
G54D16*
X83677Y-42843D02*
X83323Y-42843D01*
X83677Y-43157D02*
X83323Y-43157D01*
G54D17*
X77803Y-46744D02*
X77528Y-46744D01*
X78197Y-46744D02*
X78472Y-46744D01*
X77803Y-47256D02*
X77528Y-47256D01*
X78472Y-47256D02*
X78197Y-47256D01*
X77528Y-47250D02*
X77528Y-46750D01*
X78472Y-46750D02*
X78472Y-47250D01*
X81256Y-41303D02*
X81256Y-41028D01*
X81256Y-41697D02*
X81256Y-41972D01*
X80744Y-41303D02*
X80744Y-41028D01*
X80744Y-41972D02*
X80744Y-41697D01*
X80750Y-41028D02*
X81250Y-41028D01*
X81250Y-41972D02*
X80750Y-41972D01*
G54D18*
X77900Y-47850D02*
X77700Y-47850D01*
X77700Y-47850D02*
X77700Y-48150D01*
X77700Y-48150D02*
X77900Y-48150D01*
X78100Y-47850D02*
X78300Y-47850D01*
X78300Y-47850D02*
X78300Y-48150D01*
X78300Y-48150D02*
X78100Y-48150D01*
G54D14*
X78480Y-41820D02*
X78480Y-41430D01*
X78480Y-41430D02*
X78300Y-41430D01*
X78300Y-41820D02*
X78300Y-41430D01*
X78480Y-41820D02*
X78300Y-41820D01*
X78780Y-41820D02*
X78780Y-41430D01*
X78780Y-41430D02*
X78600Y-41430D01*
X78600Y-41820D02*
X78600Y-41430D01*
X78780Y-41820D02*
X78600Y-41820D01*
X78170Y-41820D02*
X78170Y-41430D01*
X78170Y-41430D02*
X77990Y-41430D01*
X77990Y-41820D02*
X77990Y-41430D01*
X78170Y-41820D02*
X77990Y-41820D01*
X77860Y-41820D02*
X77860Y-41430D01*
X77860Y-41430D02*
X77681Y-41430D01*
X77681Y-41820D02*
X77681Y-41430D01*
X77860Y-41820D02*
X77681Y-41820D01*
X77550Y-41820D02*
X77550Y-41430D01*
X77550Y-41430D02*
X77370Y-41430D01*
X77370Y-41820D02*
X77370Y-41430D01*
X77550Y-41820D02*
X77370Y-41820D01*
X79090Y-41820D02*
X79090Y-41430D01*
X79090Y-41430D02*
X78910Y-41430D01*
X78910Y-41820D02*
X78910Y-41430D01*
X79090Y-41820D02*
X78910Y-41820D01*
X79399Y-41820D02*
X79399Y-41430D01*
X79399Y-41430D02*
X79220Y-41430D01*
X79220Y-41820D02*
X79220Y-41430D01*
X79399Y-41820D02*
X79220Y-41820D01*
X79710Y-41820D02*
X79710Y-41430D01*
X79710Y-41430D02*
X79530Y-41430D01*
X79530Y-41820D02*
X79530Y-41430D01*
X79710Y-41820D02*
X79530Y-41820D01*
X80330Y-43160D02*
X80330Y-42980D01*
X80330Y-42980D02*
X79940Y-42980D01*
X79940Y-43160D02*
X79940Y-42980D01*
X80330Y-43160D02*
X79940Y-43160D01*
X80330Y-43460D02*
X80330Y-43280D01*
X80330Y-43280D02*
X79940Y-43280D01*
X79940Y-43460D02*
X79940Y-43280D01*
X80330Y-43460D02*
X79940Y-43460D01*
X80330Y-42850D02*
X80330Y-42670D01*
X80330Y-42670D02*
X79940Y-42670D01*
X79940Y-42850D02*
X79940Y-42670D01*
X80330Y-42850D02*
X79940Y-42850D01*
X80330Y-42540D02*
X80330Y-42361D01*
X80330Y-42361D02*
X79940Y-42361D01*
X79940Y-42540D02*
X79940Y-42361D01*
X80330Y-42540D02*
X79940Y-42540D01*
X80330Y-42230D02*
X80330Y-42050D01*
X80330Y-42050D02*
X79940Y-42050D01*
X79940Y-42230D02*
X79940Y-42050D01*
X80330Y-42230D02*
X79940Y-42230D01*
X80330Y-43770D02*
X80330Y-43590D01*
X80330Y-43590D02*
X79940Y-43590D01*
X79940Y-43770D02*
X79940Y-43590D01*
X80330Y-43770D02*
X79940Y-43770D01*
X80330Y-44079D02*
X80330Y-43900D01*
X80330Y-43900D02*
X79940Y-43900D01*
X79940Y-44079D02*
X79940Y-43900D01*
X80330Y-44079D02*
X79940Y-44079D01*
X80330Y-44390D02*
X80330Y-44210D01*
X80330Y-44210D02*
X79940Y-44210D01*
X79940Y-44390D02*
X79940Y-44210D01*
X80330Y-44390D02*
X79940Y-44390D01*
X78780Y-45010D02*
X78780Y-44620D01*
X78780Y-44620D02*
X78600Y-44620D01*
X78600Y-45010D02*
X78600Y-44620D01*
X78780Y-45010D02*
X78600Y-45010D01*
X78480Y-45010D02*
X78480Y-44620D01*
X78480Y-44620D02*
X78300Y-44620D01*
X78300Y-45010D02*
X78300Y-44620D01*
X78480Y-45010D02*
X78300Y-45010D01*
X79090Y-45010D02*
X79090Y-44620D01*
X79090Y-44620D02*
X78910Y-44620D01*
X78910Y-45010D02*
X78910Y-44620D01*
X79090Y-45010D02*
X78910Y-45010D01*
X79399Y-45010D02*
X79399Y-44620D01*
X79399Y-44620D02*
X79220Y-44620D01*
X79220Y-45010D02*
X79220Y-44620D01*
X79399Y-45010D02*
X79220Y-45010D01*
X79710Y-45010D02*
X79710Y-44620D01*
X79710Y-44620D02*
X79530Y-44620D01*
X79530Y-45010D02*
X79530Y-44620D01*
X79710Y-45010D02*
X79530Y-45010D01*
X78170Y-45010D02*
X78170Y-44620D01*
X78170Y-44620D02*
X77990Y-44620D01*
X77990Y-45010D02*
X77990Y-44620D01*
X78170Y-45010D02*
X77990Y-45010D01*
X77860Y-45010D02*
X77860Y-44620D01*
X77860Y-44620D02*
X77681Y-44620D01*
X77681Y-45010D02*
X77681Y-44620D01*
X77860Y-45010D02*
X77681Y-45010D01*
X77550Y-45010D02*
X77550Y-44620D01*
X77550Y-44620D02*
X77370Y-44620D01*
X77370Y-45010D02*
X77370Y-44620D01*
X77550Y-45010D02*
X77370Y-45010D01*
X77140Y-43460D02*
X77140Y-43280D01*
X77140Y-43280D02*
X76750Y-43280D01*
X76750Y-43460D02*
X76750Y-43280D01*
X77140Y-43460D02*
X76750Y-43460D01*
X77140Y-43160D02*
X77140Y-42980D01*
X77140Y-42980D02*
X76750Y-42980D01*
X76750Y-43160D02*
X76750Y-42980D01*
X77140Y-43160D02*
X76750Y-43160D01*
X77140Y-43770D02*
X77140Y-43590D01*
X77140Y-43590D02*
X76750Y-43590D01*
X76750Y-43770D02*
X76750Y-43590D01*
X77140Y-43770D02*
X76750Y-43770D01*
X77140Y-44079D02*
X77140Y-43900D01*
X77140Y-43900D02*
X76750Y-43900D01*
X76750Y-44079D02*
X76750Y-43900D01*
X77140Y-44079D02*
X76750Y-44079D01*
X77140Y-44390D02*
X77140Y-44210D01*
X77140Y-44210D02*
X76750Y-44210D01*
X76750Y-44390D02*
X76750Y-44210D01*
X77140Y-44390D02*
X76750Y-44390D01*
X77140Y-42850D02*
X77140Y-42670D01*
X77140Y-42670D02*
X76750Y-42670D01*
X76750Y-42850D02*
X76750Y-42670D01*
X77140Y-42850D02*
X76750Y-42850D01*
X77140Y-42540D02*
X77140Y-42361D01*
X77140Y-42361D02*
X76750Y-42361D01*
X76750Y-42540D02*
X76750Y-42361D01*
X77140Y-42540D02*
X76750Y-42540D01*
X77140Y-42230D02*
X77140Y-42050D01*
X77140Y-42050D02*
X76750Y-42050D01*
X76750Y-42230D02*
X76750Y-42050D01*
X77140Y-42230D02*
X76750Y-42230D01*
G54D19*
X77161Y-41841D02*
X79919Y-41841D01*
X79919Y-41841D02*
X79919Y-44599D01*
X79919Y-44599D02*
X77300Y-44599D01*
X77161Y-44460D02*
X77161Y-41841D01*
X77161Y-44460D02*
X77300Y-44599D01*
G54D20*
X77558Y-44300D02*
G75*
G03X77558Y-44300I-98J0D01*
G74*
G01*
G54D21*
X72418Y-49893D02*
X71828Y-49893D01*
X71828Y-49893D02*
X71828Y-49500D01*
X75371Y-49893D02*
X74781Y-49893D01*
X75371Y-49893D02*
X75371Y-49500D01*
X72418Y-49500D02*
X72418Y-50681D01*
X72418Y-50681D02*
X74781Y-50681D01*
X74781Y-50681D02*
X74781Y-49500D01*
X71237Y-45169D02*
X71237Y-49500D01*
X75962Y-49500D02*
X71237Y-49500D01*
X75962Y-49500D02*
X75962Y-45169D01*
X74328Y-49500D02*
X72911Y-49500D01*
G54D22*
X73659Y-42790D02*
X73265Y-42790D01*
X73265Y-42640D01*
X73284Y-42603D01*
X73303Y-42584D01*
X73340Y-42565D01*
X73396Y-42565D01*
X73434Y-42584D01*
X73453Y-42603D01*
X73471Y-42640D01*
X73471Y-42790D01*
X73265Y-42434D02*
X73265Y-42190D01*
X73415Y-42321D01*
X73415Y-42265D01*
X73434Y-42228D01*
X73453Y-42209D01*
X73490Y-42190D01*
X73584Y-42190D01*
X73621Y-42209D01*
X73640Y-42228D01*
X73659Y-42265D01*
X73659Y-42378D01*
X73640Y-42415D01*
X73621Y-42434D01*
G54D23*
X81704Y-39661D02*
X81704Y-39261D01*
X81857Y-39261D01*
X81895Y-39280D01*
X81914Y-39300D01*
X81933Y-39338D01*
X81933Y-39395D01*
X81914Y-39433D01*
X81895Y-39452D01*
X81857Y-39471D01*
X81704Y-39471D01*
X82085Y-39300D02*
X82104Y-39280D01*
X82142Y-39261D01*
X82238Y-39261D01*
X82276Y-39280D01*
X82295Y-39300D01*
X82314Y-39338D01*
X82314Y-39376D01*
X82295Y-39433D01*
X82066Y-39661D01*
X82314Y-39661D01*
G54D22*
X78862Y-48409D02*
X78637Y-48409D01*
X78750Y-48409D02*
X78750Y-48015D01*
X78712Y-48071D01*
X78675Y-48109D01*
X78637Y-48128D01*
G54D24*
X79185Y-48830D02*
X79185Y-48630D01*
X79252Y-48773D01*
X79319Y-48630D01*
X79319Y-48830D01*
X79414Y-48830D02*
X79414Y-48630D01*
X79500Y-48821D02*
X79528Y-48830D01*
X79576Y-48830D01*
X79595Y-48821D01*
X79604Y-48811D01*
X79614Y-48792D01*
X79614Y-48773D01*
X79604Y-48754D01*
X79595Y-48745D01*
X79576Y-48735D01*
X79538Y-48726D01*
X79519Y-48716D01*
X79509Y-48707D01*
X79500Y-48688D01*
X79500Y-48669D01*
X79509Y-48650D01*
X79519Y-48640D01*
X79538Y-48630D01*
X79585Y-48630D01*
X79614Y-48640D01*
X79738Y-48630D02*
X79776Y-48630D01*
X79795Y-48640D01*
X79814Y-48659D01*
X79823Y-48697D01*
X79823Y-48764D01*
X79814Y-48802D01*
X79795Y-48821D01*
X79776Y-48830D01*
X79738Y-48830D01*
X79719Y-48821D01*
X79700Y-48802D01*
X79690Y-48764D01*
X79690Y-48697D01*
X79700Y-48659D01*
X79719Y-48640D01*
X79738Y-48630D01*
X80242Y-48821D02*
X80271Y-48830D01*
X80319Y-48830D01*
X80338Y-48821D01*
X80347Y-48811D01*
X80357Y-48792D01*
X80357Y-48773D01*
X80347Y-48754D01*
X80338Y-48745D01*
X80319Y-48735D01*
X80280Y-48726D01*
X80261Y-48716D01*
X80252Y-48707D01*
X80242Y-48688D01*
X80242Y-48669D01*
X80252Y-48650D01*
X80261Y-48640D01*
X80280Y-48630D01*
X80328Y-48630D01*
X80357Y-48640D01*
X80557Y-48811D02*
X80547Y-48821D01*
X80519Y-48830D01*
X80500Y-48830D01*
X80471Y-48821D01*
X80452Y-48802D01*
X80442Y-48783D01*
X80433Y-48745D01*
X80433Y-48716D01*
X80442Y-48678D01*
X80452Y-48659D01*
X80471Y-48640D01*
X80500Y-48630D01*
X80519Y-48630D01*
X80547Y-48640D01*
X80557Y-48650D01*
X80642Y-48830D02*
X80642Y-48630D01*
X80757Y-48830D02*
X80671Y-48716D01*
X80757Y-48630D02*
X80642Y-48745D01*
X81390Y-48830D02*
X81323Y-48735D01*
X81276Y-48830D02*
X81276Y-48630D01*
X81352Y-48630D01*
X81371Y-48640D01*
X81380Y-48650D01*
X81390Y-48669D01*
X81390Y-48697D01*
X81380Y-48716D01*
X81371Y-48726D01*
X81352Y-48735D01*
X81276Y-48735D01*
X81466Y-48821D02*
X81495Y-48830D01*
X81542Y-48830D01*
X81561Y-48821D01*
X81571Y-48811D01*
X81580Y-48792D01*
X81580Y-48773D01*
X81571Y-48754D01*
X81561Y-48745D01*
X81542Y-48735D01*
X81504Y-48726D01*
X81485Y-48716D01*
X81476Y-48707D01*
X81466Y-48688D01*
X81466Y-48669D01*
X81476Y-48650D01*
X81485Y-48640D01*
X81504Y-48630D01*
X81552Y-48630D01*
X81580Y-48640D01*
X81638Y-48630D02*
X81752Y-48630D01*
X81695Y-48830D02*
X81695Y-48630D01*
X79233Y-46130D02*
X79300Y-46330D01*
X79366Y-46130D01*
X79547Y-46311D02*
X79538Y-46321D01*
X79509Y-46330D01*
X79490Y-46330D01*
X79461Y-46321D01*
X79442Y-46302D01*
X79433Y-46283D01*
X79423Y-46245D01*
X79423Y-46216D01*
X79433Y-46178D01*
X79442Y-46159D01*
X79461Y-46140D01*
X79490Y-46130D01*
X79509Y-46130D01*
X79538Y-46140D01*
X79547Y-46150D01*
X79747Y-46311D02*
X79738Y-46321D01*
X79709Y-46330D01*
X79690Y-46330D01*
X79661Y-46321D01*
X79642Y-46302D01*
X79633Y-46283D01*
X79623Y-46245D01*
X79623Y-46216D01*
X79633Y-46178D01*
X79642Y-46159D01*
X79661Y-46140D01*
X79690Y-46130D01*
X79709Y-46130D01*
X79738Y-46140D01*
X79747Y-46150D01*
X80185Y-46330D02*
X80185Y-46130D01*
X80252Y-46273D01*
X80319Y-46130D01*
X80319Y-46330D01*
X80452Y-46130D02*
X80490Y-46130D01*
X80509Y-46140D01*
X80528Y-46159D01*
X80538Y-46197D01*
X80538Y-46264D01*
X80528Y-46302D01*
X80509Y-46321D01*
X80490Y-46330D01*
X80452Y-46330D01*
X80433Y-46321D01*
X80414Y-46302D01*
X80404Y-46264D01*
X80404Y-46197D01*
X80414Y-46159D01*
X80433Y-46140D01*
X80452Y-46130D01*
X80614Y-46321D02*
X80642Y-46330D01*
X80690Y-46330D01*
X80709Y-46321D01*
X80719Y-46311D01*
X80728Y-46292D01*
X80728Y-46273D01*
X80719Y-46254D01*
X80709Y-46245D01*
X80690Y-46235D01*
X80652Y-46226D01*
X80633Y-46216D01*
X80623Y-46207D01*
X80614Y-46188D01*
X80614Y-46169D01*
X80623Y-46150D01*
X80633Y-46140D01*
X80652Y-46130D01*
X80699Y-46130D01*
X80728Y-46140D01*
X80814Y-46330D02*
X80814Y-46130D01*
X81347Y-46140D02*
X81328Y-46130D01*
X81300Y-46130D01*
X81271Y-46140D01*
X81252Y-46159D01*
X81242Y-46178D01*
X81233Y-46216D01*
X81233Y-46245D01*
X81242Y-46283D01*
X81252Y-46302D01*
X81271Y-46321D01*
X81300Y-46330D01*
X81319Y-46330D01*
X81347Y-46321D01*
X81357Y-46311D01*
X81357Y-46245D01*
X81319Y-46245D01*
X81442Y-46330D02*
X81442Y-46130D01*
X81557Y-46330D01*
X81557Y-46130D01*
X81652Y-46330D02*
X81652Y-46130D01*
X81700Y-46130D01*
X81728Y-46140D01*
X81747Y-46159D01*
X81757Y-46178D01*
X81766Y-46216D01*
X81766Y-46245D01*
X81757Y-46283D01*
X81747Y-46302D01*
X81728Y-46321D01*
X81700Y-46330D01*
X81652Y-46330D01*
G54D25*
X75580Y-43030D02*
X75485Y-43090D01*
X75580Y-43132D02*
X75380Y-43132D01*
X75380Y-43064D01*
X75390Y-43047D01*
X75400Y-43038D01*
X75419Y-43030D01*
X75447Y-43030D01*
X75466Y-43038D01*
X75476Y-43047D01*
X75485Y-43064D01*
X75485Y-43132D01*
X75580Y-42858D02*
X75580Y-42961D01*
X75580Y-42910D02*
X75380Y-42910D01*
X75409Y-42927D01*
X75428Y-42944D01*
X75438Y-42961D01*
G54D23*
X74142Y-40783D02*
X74161Y-40726D01*
X74161Y-40630D01*
X74142Y-40592D01*
X74123Y-40573D01*
X74085Y-40554D01*
X74047Y-40554D01*
X74009Y-40573D01*
X73990Y-40592D01*
X73971Y-40630D01*
X73952Y-40707D01*
X73933Y-40745D01*
X73914Y-40764D01*
X73876Y-40783D01*
X73838Y-40783D01*
X73800Y-40764D01*
X73780Y-40745D01*
X73761Y-40707D01*
X73761Y-40611D01*
X73780Y-40554D01*
X73761Y-40421D02*
X74161Y-40326D01*
X73876Y-40250D01*
X74161Y-40173D01*
X73761Y-40078D01*
X74161Y-39716D02*
X74161Y-39945D01*
X74161Y-39830D02*
X73761Y-39830D01*
X73819Y-39869D01*
X73857Y-39907D01*
X73876Y-39945D01*
X75042Y-41157D02*
X75061Y-41099D01*
X75061Y-41004D01*
X75042Y-40966D01*
X75023Y-40947D01*
X74985Y-40928D01*
X74947Y-40928D01*
X74909Y-40947D01*
X74890Y-40966D01*
X74871Y-41004D01*
X74852Y-41080D01*
X74833Y-41119D01*
X74814Y-41138D01*
X74776Y-41157D01*
X74738Y-41157D01*
X74700Y-41138D01*
X74680Y-41119D01*
X74661Y-41080D01*
X74661Y-40985D01*
X74680Y-40928D01*
X75061Y-40757D02*
X74661Y-40757D01*
X74661Y-40604D01*
X74680Y-40566D01*
X74700Y-40547D01*
X74738Y-40528D01*
X74795Y-40528D01*
X74833Y-40547D01*
X74852Y-40566D01*
X74871Y-40604D01*
X74871Y-40757D01*
X75042Y-40376D02*
X75061Y-40319D01*
X75061Y-40223D01*
X75042Y-40185D01*
X75023Y-40166D01*
X74985Y-40147D01*
X74947Y-40147D01*
X74909Y-40166D01*
X74890Y-40185D01*
X74871Y-40223D01*
X74852Y-40299D01*
X74833Y-40338D01*
X74814Y-40357D01*
X74776Y-40376D01*
X74738Y-40376D01*
X74700Y-40357D01*
X74680Y-40338D01*
X74661Y-40299D01*
X74661Y-40204D01*
X74680Y-40147D01*
X74661Y-40033D02*
X74661Y-39804D01*
X75061Y-39919D02*
X74661Y-39919D01*
G54D25*
X81580Y-43030D02*
X81485Y-43090D01*
X81580Y-43132D02*
X81380Y-43132D01*
X81380Y-43064D01*
X81390Y-43047D01*
X81400Y-43038D01*
X81419Y-43030D01*
X81447Y-43030D01*
X81466Y-43038D01*
X81476Y-43047D01*
X81485Y-43064D01*
X81485Y-43132D01*
X81400Y-42961D02*
X81390Y-42952D01*
X81380Y-42935D01*
X81380Y-42892D01*
X81390Y-42875D01*
X81400Y-42867D01*
X81419Y-42858D01*
X81438Y-42858D01*
X81466Y-42867D01*
X81580Y-42970D01*
X81580Y-42858D01*
G54D11*
X83352Y-42680D02*
X83352Y-42480D01*
X83400Y-42480D01*
X83428Y-42490D01*
X83447Y-42509D01*
X83457Y-42528D01*
X83466Y-42566D01*
X83466Y-42595D01*
X83457Y-42633D01*
X83447Y-42652D01*
X83428Y-42671D01*
X83400Y-42680D01*
X83352Y-42680D01*
X83657Y-42680D02*
X83542Y-42680D01*
X83600Y-42680D02*
X83600Y-42480D01*
X83580Y-42509D01*
X83561Y-42528D01*
X83542Y-42538D01*
X83371Y-43480D02*
X83276Y-43480D01*
X83276Y-43280D01*
X83438Y-43376D02*
X83504Y-43376D01*
X83533Y-43480D02*
X83438Y-43480D01*
X83438Y-43280D01*
X83533Y-43280D01*
X83619Y-43480D02*
X83619Y-43280D01*
X83666Y-43280D01*
X83695Y-43290D01*
X83714Y-43309D01*
X83723Y-43328D01*
X83733Y-43366D01*
X83733Y-43395D01*
X83723Y-43433D01*
X83714Y-43452D01*
X83695Y-43471D01*
X83666Y-43480D01*
X83619Y-43480D01*
G54D13*
X83614Y-45342D02*
X84014Y-45942D01*
X84014Y-45342D02*
X83614Y-45942D01*
X84557Y-45942D02*
X84214Y-45942D01*
X84385Y-45942D02*
X84385Y-45342D01*
X84328Y-45428D01*
X84271Y-45485D01*
X84214Y-45514D01*
G54D25*
X78061Y-47030D02*
X78071Y-47038D01*
X78080Y-47064D01*
X78080Y-47081D01*
X78071Y-47107D01*
X78052Y-47124D01*
X78033Y-47132D01*
X77995Y-47141D01*
X77966Y-47141D01*
X77928Y-47132D01*
X77909Y-47124D01*
X77890Y-47107D01*
X77880Y-47081D01*
X77880Y-47064D01*
X77890Y-47038D01*
X77900Y-47030D01*
X77900Y-46961D02*
X77890Y-46952D01*
X77880Y-46935D01*
X77880Y-46892D01*
X77890Y-46875D01*
X77900Y-46867D01*
X77919Y-46858D01*
X77938Y-46858D01*
X77966Y-46867D01*
X78080Y-46970D01*
X78080Y-46858D01*
X78711Y-46944D02*
X78721Y-46952D01*
X78730Y-46978D01*
X78730Y-46995D01*
X78721Y-47021D01*
X78702Y-47038D01*
X78683Y-47047D01*
X78645Y-47055D01*
X78616Y-47055D01*
X78578Y-47047D01*
X78559Y-47038D01*
X78540Y-47021D01*
X78530Y-46995D01*
X78530Y-46978D01*
X78540Y-46952D01*
X78550Y-46944D01*
X80970Y-41561D02*
X80961Y-41571D01*
X80935Y-41580D01*
X80918Y-41580D01*
X80892Y-41571D01*
X80875Y-41552D01*
X80867Y-41533D01*
X80858Y-41495D01*
X80858Y-41466D01*
X80867Y-41428D01*
X80875Y-41409D01*
X80892Y-41390D01*
X80918Y-41380D01*
X80935Y-41380D01*
X80961Y-41390D01*
X80970Y-41400D01*
X81030Y-41380D02*
X81141Y-41380D01*
X81081Y-41457D01*
X81107Y-41457D01*
X81124Y-41466D01*
X81132Y-41476D01*
X81141Y-41495D01*
X81141Y-41542D01*
X81132Y-41561D01*
X81124Y-41571D01*
X81107Y-41580D01*
X81055Y-41580D01*
X81038Y-41571D01*
X81030Y-41561D01*
X81055Y-42211D02*
X81047Y-42221D01*
X81021Y-42230D01*
X81004Y-42230D01*
X80978Y-42221D01*
X80961Y-42202D01*
X80952Y-42183D01*
X80944Y-42145D01*
X80944Y-42116D01*
X80952Y-42078D01*
X80961Y-42059D01*
X80978Y-42040D01*
X81004Y-42030D01*
X81021Y-42030D01*
X81047Y-42040D01*
X81055Y-42050D01*
G54D18*
X77917Y-48100D02*
X78016Y-48100D01*
X78036Y-48105D01*
X78049Y-48117D01*
X78055Y-48134D01*
X78055Y-48145D01*
X78055Y-48042D02*
X77917Y-48042D01*
X77917Y-47997D01*
X77924Y-47985D01*
X77931Y-47979D01*
X77944Y-47974D01*
X77963Y-47974D01*
X77977Y-47979D01*
X77983Y-47985D01*
X77990Y-47997D01*
X77990Y-48042D01*
X78055Y-47859D02*
X78055Y-47928D01*
X78055Y-47894D02*
X77917Y-47894D01*
X77937Y-47905D01*
X77950Y-47917D01*
X77957Y-47928D01*
G54D26*
X76384Y-43857D02*
X76064Y-43857D01*
X76354Y-43522D02*
X76369Y-43537D01*
X76384Y-43583D01*
X76384Y-43613D01*
X76369Y-43659D01*
X76338Y-43689D01*
X76308Y-43704D01*
X76247Y-43720D01*
X76201Y-43720D01*
X76140Y-43704D01*
X76110Y-43689D01*
X76079Y-43659D01*
X76064Y-43613D01*
X76064Y-43583D01*
X76079Y-43537D01*
X76095Y-43522D01*
X76384Y-43217D02*
X76384Y-43400D01*
X76384Y-43308D02*
X76064Y-43308D01*
X76110Y-43339D01*
X76140Y-43369D01*
X76155Y-43400D01*
X79043Y-44670D02*
X79043Y-44518D01*
X79134Y-44700D02*
X78814Y-44594D01*
X79134Y-44487D01*
X78814Y-44426D02*
X78814Y-44243D01*
X79134Y-44335D02*
X78814Y-44335D01*
X79134Y-44137D02*
X78814Y-44137D01*
X79043Y-44030D01*
X78814Y-43923D01*
X79134Y-43923D01*
X78966Y-43771D02*
X78966Y-43664D01*
X79134Y-43619D02*
X79134Y-43771D01*
X78814Y-43771D01*
X78814Y-43619D01*
X78829Y-43314D02*
X78814Y-43344D01*
X78814Y-43390D01*
X78829Y-43436D01*
X78860Y-43466D01*
X78890Y-43481D01*
X78951Y-43497D01*
X78997Y-43497D01*
X79058Y-43481D01*
X79088Y-43466D01*
X79119Y-43436D01*
X79134Y-43390D01*
X79134Y-43360D01*
X79119Y-43314D01*
X79104Y-43299D01*
X78997Y-43299D01*
X78997Y-43360D01*
X79043Y-43177D02*
X79043Y-43024D01*
X79134Y-43207D02*
X78814Y-43100D01*
X79134Y-42994D01*
X78951Y-42841D02*
X78936Y-42872D01*
X78921Y-42887D01*
X78890Y-42902D01*
X78875Y-42902D01*
X78845Y-42887D01*
X78829Y-42872D01*
X78814Y-42841D01*
X78814Y-42780D01*
X78829Y-42750D01*
X78845Y-42735D01*
X78875Y-42720D01*
X78890Y-42720D01*
X78921Y-42735D01*
X78936Y-42750D01*
X78951Y-42780D01*
X78951Y-42841D01*
X78966Y-42872D01*
X78982Y-42887D01*
X79012Y-42902D01*
X79073Y-42902D01*
X79104Y-42887D01*
X79119Y-42872D01*
X79134Y-42841D01*
X79134Y-42780D01*
X79119Y-42750D01*
X79104Y-42735D01*
X79073Y-42720D01*
X79012Y-42720D01*
X78982Y-42735D01*
X78966Y-42750D01*
X78951Y-42780D01*
X79043Y-42598D02*
X79043Y-42445D01*
X79134Y-42628D02*
X78814Y-42521D01*
X79134Y-42415D01*
X79012Y-42308D02*
X79012Y-42064D01*
X79134Y-41912D02*
X78814Y-41912D01*
X78814Y-41790D01*
X78829Y-41760D01*
X78845Y-41744D01*
X78875Y-41729D01*
X78921Y-41729D01*
X78951Y-41744D01*
X78966Y-41760D01*
X78982Y-41790D01*
X78982Y-41912D01*
G54D22*
X73309Y-49068D02*
X73309Y-48675D01*
X73459Y-48675D01*
X73496Y-48693D01*
X73515Y-48712D01*
X73534Y-48750D01*
X73534Y-48806D01*
X73515Y-48843D01*
X73496Y-48862D01*
X73459Y-48881D01*
X73309Y-48881D01*
X73871Y-48806D02*
X73871Y-49068D01*
X73778Y-48656D02*
X73684Y-48937D01*
X73928Y-48937D01*
X72925Y-44344D02*
X73168Y-44344D01*
X73037Y-44494D01*
X73093Y-44494D01*
X73131Y-44513D01*
X73150Y-44531D01*
X73168Y-44569D01*
X73168Y-44663D01*
X73150Y-44700D01*
X73131Y-44719D01*
X73093Y-44738D01*
X72981Y-44738D01*
X72943Y-44719D01*
X72925Y-44700D01*
X73468Y-44531D02*
X73337Y-44531D01*
X73337Y-44738D02*
X73337Y-44344D01*
X73525Y-44344D01*
X73749Y-44344D02*
X73787Y-44344D01*
X73824Y-44363D01*
X73843Y-44381D01*
X73862Y-44419D01*
X73881Y-44494D01*
X73881Y-44588D01*
X73862Y-44663D01*
X73843Y-44700D01*
X73824Y-44719D01*
X73787Y-44738D01*
X73749Y-44738D01*
X73712Y-44719D01*
X73693Y-44700D01*
X73674Y-44663D01*
X73656Y-44588D01*
X73656Y-44494D01*
X73674Y-44419D01*
X73693Y-44381D01*
X73712Y-44363D01*
X73749Y-44344D01*
X74012Y-44344D02*
X74274Y-44344D01*
X74106Y-44738D01*
%LPC*%
G54D27*
X72000Y-44000D03*
G54D28*
X72000Y-43000D03*
X72000Y-42000D03*
X72000Y-41000D03*
G54D29*
X77000Y-40000D03*
G54D30*
X77000Y-39000D03*
X78000Y-40000D03*
X78000Y-39000D03*
X79000Y-40000D03*
X79000Y-39000D03*
X80000Y-40000D03*
X80000Y-39000D03*
X81000Y-40000D03*
X81000Y-39000D03*
G54D29*
X79500Y-48000D03*
G54D30*
X79500Y-47000D03*
X80500Y-48000D03*
X80500Y-47000D03*
X81500Y-48000D03*
X81500Y-47000D03*
G54D31*
X75500Y-42700D03*
X75500Y-43300D03*
G54D28*
X73500Y-39000D03*
X75500Y-39000D03*
X73500Y-42000D03*
X75500Y-42000D03*
G54D32*
X81200Y-43000D03*
X81800Y-43000D03*
G54D33*
X83205Y-43000D03*
X83795Y-43000D03*
G54D34*
X81505Y-44000D03*
X81505Y-45000D03*
G54D35*
X84090Y-44500D03*
G54D32*
X78300Y-47000D03*
X77700Y-47000D03*
G54D31*
X81000Y-41800D03*
X81000Y-41200D03*
G54D30*
X84960Y-39672D03*
X84960Y-47664D03*
G54D36*
X77823Y-48000D03*
X78177Y-48000D03*
G54D37*
X77460Y-44910D03*
X77770Y-44910D03*
X78080Y-44910D03*
X78390Y-44910D03*
X78690Y-44910D03*
X79000Y-44910D03*
X79310Y-44910D03*
X79620Y-44910D03*
G54D38*
X80230Y-44300D03*
X80230Y-43990D03*
X80230Y-43680D03*
X80230Y-43370D03*
X80230Y-43070D03*
X80230Y-42760D03*
X80230Y-42450D03*
X80230Y-42140D03*
G54D37*
X79620Y-41530D03*
X79310Y-41530D03*
X79000Y-41530D03*
X78690Y-41530D03*
X78390Y-41530D03*
X78080Y-41530D03*
X77770Y-41530D03*
X77460Y-41530D03*
G54D38*
X76850Y-42140D03*
X76850Y-42450D03*
X76850Y-42760D03*
X76850Y-43070D03*
X76850Y-43370D03*
X76850Y-43680D03*
X76850Y-43990D03*
X76850Y-44300D03*
G54D30*
X71631Y-46153D03*
X72615Y-46153D03*
X74584Y-46153D03*
X75568Y-46153D03*
X73600Y-48122D03*
G54D39*
X71631Y-48122D03*
X75568Y-48122D03*
X75568Y-49106D03*
X71631Y-49106D03*
X73600Y-46153D03*
M02*
