M48
INCH,TZ
T1C0.025
T2C0.031
T3C0.032
T4C0.040
%
G90
G05
T1
X076060Y-043940
X076660Y-044980
X077720Y-042400
X078680Y-038360
X078860Y-044060
X078880Y-045800
X079080Y-042140
X079500Y-042940
X079680Y-045660
X079940Y-041020
X080220Y-041440
X080360Y-045580
T2
X071631Y-048122
X071631Y-049106
X073600Y-046154
X075569Y-048122
X075569Y-049106
X084960Y-039672
X084960Y-047664
T3
X072000Y-041000
X072000Y-042000
X072000Y-043000
X072000Y-044000
X073500Y-039000
X073500Y-042000
X075500Y-039000
X075500Y-042000
T4
X071631Y-046154
X072616Y-046154
X073600Y-048122
X074584Y-046154
X075569Y-046154
X077000Y-039000
X077000Y-040000
X078000Y-039000
X078000Y-040000
X079000Y-039000
X079000Y-040000
X079500Y-047000
X079500Y-048000
X080000Y-039000
X080000Y-040000
X080500Y-047000
X080500Y-048000
X081000Y-039000
X081000Y-040000
X081500Y-047000
X081500Y-048000
T0
M30
