G04 (created by PCBNEW (2013-04-19 BZR 4011)-stable) date 5/10/2013 9:41:03 PM*
%MOIN*%
G04 Gerber Fmt 3.4, Leading zero omitted, Abs format*
%FSLAX34Y34*%
G01*
G70*
G90*
G04 APERTURE LIST*
%ADD10C,0.006*%
%ADD11R,0.055X0.055*%
%ADD12C,0.055*%
%ADD13R,0.06X0.06*%
%ADD14C,0.06*%
%ADD15C,0.035*%
G04 APERTURE END LIST*
G54D10*
G54D11*
X73500Y-39500D03*
G54D12*
X74500Y-39500D03*
X75500Y-39500D03*
X76500Y-39500D03*
G54D11*
X81500Y-39500D03*
G54D12*
X82500Y-39500D03*
G54D13*
X82500Y-48000D03*
G54D14*
X82500Y-47000D03*
X83500Y-48000D03*
X83500Y-47000D03*
X84500Y-48000D03*
X84500Y-47000D03*
X85500Y-48000D03*
X85500Y-47000D03*
X86500Y-48000D03*
X86500Y-47000D03*
G54D12*
X74500Y-45500D03*
X75500Y-45500D03*
X76500Y-45500D03*
X77500Y-45500D03*
X78500Y-45500D03*
X79500Y-45500D03*
X80500Y-45500D03*
X81500Y-45500D03*
X82500Y-45500D03*
X83500Y-45500D03*
X84500Y-45500D03*
X85500Y-45500D03*
X86500Y-45500D03*
G54D11*
X73500Y-45500D03*
G54D12*
X86500Y-42500D03*
X85500Y-42500D03*
X84500Y-42500D03*
X83500Y-42500D03*
X82500Y-42500D03*
X81500Y-42500D03*
X80500Y-42500D03*
X79500Y-42500D03*
X78500Y-42500D03*
X77500Y-42500D03*
X76500Y-42500D03*
X75500Y-42500D03*
X74500Y-42500D03*
X73500Y-42500D03*
G54D13*
X84500Y-40500D03*
G54D14*
X84500Y-39500D03*
X85500Y-40500D03*
X85500Y-39500D03*
X86500Y-40500D03*
X86500Y-39500D03*
G54D11*
X73500Y-48000D03*
G54D12*
X74500Y-48000D03*
X75500Y-48000D03*
G54D15*
X85250Y-44250D03*
X76500Y-41500D03*
X75500Y-46750D03*
M02*
