M48
INCH,TZ
T1C0.025
T2C0.032
T3C0.040
%
G90
G05
T1
X7.55Y-4.675
X7.65Y-4.15
X8.525Y-4.425
T2
X7.35Y-3.95
X7.35Y-4.25
X7.35Y-4.55
X7.35Y-4.8
X7.45Y-3.95
X7.45Y-4.25
X7.45Y-4.55
X7.45Y-4.8
X7.55Y-3.95
X7.55Y-4.25
X7.55Y-4.55
X7.55Y-4.8
X7.65Y-3.95
X7.65Y-4.25
X7.65Y-4.55
X7.75Y-4.25
X7.75Y-4.55
X7.85Y-4.25
X7.85Y-4.55
X7.95Y-4.25
X7.95Y-4.55
X8.05Y-4.25
X8.05Y-4.55
X8.15Y-3.95
X8.15Y-4.25
X8.15Y-4.55
X8.25Y-3.95
X8.25Y-4.25
X8.25Y-4.55
X8.35Y-4.25
X8.35Y-4.55
X8.45Y-4.25
X8.45Y-4.55
X8.55Y-4.25
X8.55Y-4.55
X8.65Y-4.25
X8.65Y-4.55
T3
X8.25Y-4.7
X8.25Y-4.8
X8.35Y-4.7
X8.35Y-4.8
X8.45Y-3.95
X8.45Y-4.05
X8.45Y-4.7
X8.45Y-4.8
X8.55Y-3.95
X8.55Y-4.05
X8.55Y-4.7
X8.55Y-4.8
X8.65Y-3.95
X8.65Y-4.05
X8.65Y-4.7
X8.65Y-4.8
T0
M30
