G04 (created by PCBNEW (2013-04-19 BZR 4011)-stable) date 5/10/2013 9:41:03 PM*
%MOIN*%
G04 Gerber Fmt 3.4, Leading zero omitted, Abs format*
%FSLAX34Y34*%
G01*
G70*
G90*
G04 APERTURE LIST*
%ADD10C,0.006*%
%ADD11R,0.055X0.055*%
%ADD12C,0.055*%
%ADD13R,0.06X0.06*%
%ADD14C,0.06*%
%ADD15C,0.035*%
%ADD16C,0.01*%
G04 APERTURE END LIST*
G54D10*
G54D11*
X73500Y-39500D03*
G54D12*
X74500Y-39500D03*
X75500Y-39500D03*
X76500Y-39500D03*
G54D11*
X81500Y-39500D03*
G54D12*
X82500Y-39500D03*
G54D13*
X82500Y-48000D03*
G54D14*
X82500Y-47000D03*
X83500Y-48000D03*
X83500Y-47000D03*
X84500Y-48000D03*
X84500Y-47000D03*
X85500Y-48000D03*
X85500Y-47000D03*
X86500Y-48000D03*
X86500Y-47000D03*
G54D12*
X74500Y-45500D03*
X75500Y-45500D03*
X76500Y-45500D03*
X77500Y-45500D03*
X78500Y-45500D03*
X79500Y-45500D03*
X80500Y-45500D03*
X81500Y-45500D03*
X82500Y-45500D03*
X83500Y-45500D03*
X84500Y-45500D03*
X85500Y-45500D03*
X86500Y-45500D03*
G54D11*
X73500Y-45500D03*
G54D12*
X86500Y-42500D03*
X85500Y-42500D03*
X84500Y-42500D03*
X83500Y-42500D03*
X82500Y-42500D03*
X81500Y-42500D03*
X80500Y-42500D03*
X79500Y-42500D03*
X78500Y-42500D03*
X77500Y-42500D03*
X76500Y-42500D03*
X75500Y-42500D03*
X74500Y-42500D03*
X73500Y-42500D03*
G54D13*
X84500Y-40500D03*
G54D14*
X84500Y-39500D03*
X85500Y-40500D03*
X85500Y-39500D03*
X86500Y-40500D03*
X86500Y-39500D03*
G54D11*
X73500Y-48000D03*
G54D12*
X74500Y-48000D03*
X75500Y-48000D03*
G54D15*
X85250Y-44250D03*
X76500Y-41500D03*
X75500Y-46750D03*
G54D16*
X85500Y-47000D02*
X84500Y-46000D01*
X84500Y-46000D02*
X84000Y-46000D01*
X84000Y-46000D02*
X84000Y-45000D01*
X84000Y-45000D02*
X77000Y-45000D01*
X77000Y-45000D02*
X76500Y-45500D01*
X83500Y-42500D02*
X85250Y-44250D01*
X76500Y-41500D02*
X78000Y-40000D01*
X78000Y-40000D02*
X86000Y-40000D01*
X86000Y-40000D02*
X86500Y-40500D01*
X85500Y-40500D02*
X84000Y-42000D01*
X84000Y-42000D02*
X83000Y-42000D01*
X83000Y-42000D02*
X82500Y-42500D01*
X74500Y-48000D02*
X74500Y-47750D01*
X74500Y-47750D02*
X75500Y-46750D01*
X81500Y-45500D02*
X82500Y-46500D01*
X82500Y-46500D02*
X83000Y-46500D01*
X83000Y-46500D02*
X83000Y-47500D01*
X83000Y-47500D02*
X83500Y-48000D01*
X79500Y-45500D02*
X81000Y-47000D01*
X81000Y-47000D02*
X82500Y-47000D01*
X81500Y-39500D02*
X81000Y-39000D01*
X81000Y-39000D02*
X76000Y-39000D01*
X76000Y-39000D02*
X75500Y-39500D01*
X81500Y-39500D02*
X82000Y-39000D01*
X82000Y-39000D02*
X83000Y-39000D01*
X83000Y-39000D02*
X83500Y-39500D01*
X83500Y-39500D02*
X84500Y-39500D01*
X81500Y-42500D02*
X80500Y-42500D01*
G54D10*
G36*
X82148Y-46573D02*
X82034Y-46688D01*
X82029Y-46700D01*
X81124Y-46700D01*
X80452Y-46028D01*
X80632Y-46018D01*
X80772Y-45960D01*
X80797Y-45867D01*
X80500Y-45570D01*
X80494Y-45576D01*
X80423Y-45505D01*
X80429Y-45500D01*
X80423Y-45494D01*
X80494Y-45423D01*
X80500Y-45429D01*
X80505Y-45423D01*
X80576Y-45494D01*
X80570Y-45500D01*
X80867Y-45797D01*
X80960Y-45772D01*
X80999Y-45662D01*
X81054Y-45797D01*
X81202Y-45944D01*
X81395Y-46024D01*
X81600Y-46025D01*
X82148Y-46573D01*
X82148Y-46573D01*
G37*
G54D16*
X82148Y-46573D02*
X82034Y-46688D01*
X82029Y-46700D01*
X81124Y-46700D01*
X80452Y-46028D01*
X80632Y-46018D01*
X80772Y-45960D01*
X80797Y-45867D01*
X80500Y-45570D01*
X80494Y-45576D01*
X80423Y-45505D01*
X80429Y-45500D01*
X80423Y-45494D01*
X80494Y-45423D01*
X80500Y-45429D01*
X80505Y-45423D01*
X80576Y-45494D01*
X80570Y-45500D01*
X80867Y-45797D01*
X80960Y-45772D01*
X80999Y-45662D01*
X81054Y-45797D01*
X81202Y-45944D01*
X81395Y-46024D01*
X81600Y-46025D01*
X82148Y-46573D01*
G54D10*
G36*
X82576Y-39505D02*
X82505Y-39576D01*
X82500Y-39570D01*
X82494Y-39576D01*
X82423Y-39505D01*
X82429Y-39500D01*
X82423Y-39494D01*
X82494Y-39423D01*
X82500Y-39429D01*
X82505Y-39423D01*
X82576Y-39494D01*
X82570Y-39500D01*
X82576Y-39505D01*
X82576Y-39505D01*
G37*
G54D16*
X82576Y-39505D02*
X82505Y-39576D01*
X82500Y-39570D01*
X82494Y-39576D01*
X82423Y-39505D01*
X82429Y-39500D01*
X82423Y-39494D01*
X82494Y-39423D01*
X82500Y-39429D01*
X82505Y-39423D01*
X82576Y-39494D01*
X82570Y-39500D01*
X82576Y-39505D01*
G54D10*
G36*
X87950Y-48950D02*
X87054Y-48950D01*
X87054Y-48081D01*
X87054Y-47081D01*
X87054Y-39581D01*
X87043Y-39363D01*
X86981Y-39212D01*
X86885Y-39184D01*
X86815Y-39255D01*
X86815Y-39114D01*
X86787Y-39018D01*
X86581Y-38945D01*
X86363Y-38956D01*
X86212Y-39018D01*
X86184Y-39114D01*
X86500Y-39429D01*
X86815Y-39114D01*
X86815Y-39255D01*
X86570Y-39500D01*
X86885Y-39815D01*
X86981Y-39787D01*
X87054Y-39581D01*
X87054Y-47081D01*
X87050Y-46988D01*
X87050Y-40391D01*
X86966Y-40188D01*
X86811Y-40034D01*
X86736Y-40002D01*
X86787Y-39981D01*
X86815Y-39885D01*
X86500Y-39570D01*
X86494Y-39576D01*
X86423Y-39505D01*
X86429Y-39500D01*
X86114Y-39184D01*
X86018Y-39212D01*
X85999Y-39267D01*
X85966Y-39188D01*
X85811Y-39034D01*
X85609Y-38950D01*
X85391Y-38949D01*
X85188Y-39033D01*
X85034Y-39188D01*
X85000Y-39269D01*
X84966Y-39188D01*
X84811Y-39034D01*
X84609Y-38950D01*
X84391Y-38949D01*
X84188Y-39033D01*
X84034Y-39188D01*
X84029Y-39200D01*
X83624Y-39200D01*
X83212Y-38787D01*
X83114Y-38722D01*
X83000Y-38700D01*
X82000Y-38700D01*
X81885Y-38722D01*
X81787Y-38787D01*
X81600Y-38974D01*
X81399Y-38974D01*
X81212Y-38787D01*
X81114Y-38722D01*
X81000Y-38700D01*
X76000Y-38700D01*
X75885Y-38722D01*
X75787Y-38787D01*
X75600Y-38975D01*
X75396Y-38974D01*
X75203Y-39054D01*
X75055Y-39202D01*
X74999Y-39335D01*
X74945Y-39203D01*
X74797Y-39055D01*
X74604Y-38975D01*
X74396Y-38974D01*
X74203Y-39054D01*
X74055Y-39202D01*
X74025Y-39274D01*
X74025Y-39175D01*
X73987Y-39083D01*
X73916Y-39013D01*
X73824Y-38975D01*
X73725Y-38974D01*
X73175Y-38974D01*
X73083Y-39012D01*
X73013Y-39083D01*
X72975Y-39175D01*
X72974Y-39274D01*
X72974Y-39824D01*
X73012Y-39916D01*
X73083Y-39986D01*
X73175Y-40024D01*
X73274Y-40025D01*
X73824Y-40025D01*
X73916Y-39987D01*
X73986Y-39916D01*
X74024Y-39824D01*
X74025Y-39725D01*
X74025Y-39725D01*
X74054Y-39797D01*
X74202Y-39944D01*
X74395Y-40024D01*
X74603Y-40025D01*
X74797Y-39945D01*
X74944Y-39797D01*
X75000Y-39664D01*
X75054Y-39797D01*
X75202Y-39944D01*
X75395Y-40024D01*
X75603Y-40025D01*
X75797Y-39945D01*
X75944Y-39797D01*
X75997Y-39671D01*
X76039Y-39772D01*
X76132Y-39797D01*
X76429Y-39500D01*
X76423Y-39494D01*
X76494Y-39423D01*
X76500Y-39429D01*
X76505Y-39423D01*
X76576Y-39494D01*
X76570Y-39500D01*
X76867Y-39797D01*
X76960Y-39772D01*
X77029Y-39575D01*
X77018Y-39367D01*
X76990Y-39300D01*
X80875Y-39300D01*
X80974Y-39399D01*
X80974Y-39700D01*
X78000Y-39700D01*
X77885Y-39722D01*
X77787Y-39787D01*
X76797Y-40778D01*
X76797Y-39867D01*
X76500Y-39570D01*
X76202Y-39867D01*
X76227Y-39960D01*
X76424Y-40029D01*
X76632Y-40018D01*
X76772Y-39960D01*
X76797Y-39867D01*
X76797Y-40778D01*
X76500Y-41075D01*
X76415Y-41074D01*
X76259Y-41139D01*
X76139Y-41258D01*
X76075Y-41415D01*
X76074Y-41584D01*
X76139Y-41740D01*
X76258Y-41860D01*
X76415Y-41924D01*
X76584Y-41925D01*
X76740Y-41860D01*
X76860Y-41741D01*
X76924Y-41584D01*
X76925Y-41499D01*
X78124Y-40300D01*
X83949Y-40300D01*
X83949Y-40849D01*
X83987Y-40941D01*
X84058Y-41011D01*
X84150Y-41049D01*
X84249Y-41050D01*
X84525Y-41050D01*
X83875Y-41700D01*
X83000Y-41700D01*
X82885Y-41722D01*
X82787Y-41787D01*
X82600Y-41975D01*
X82396Y-41974D01*
X82203Y-42054D01*
X82055Y-42202D01*
X81999Y-42335D01*
X81945Y-42203D01*
X81797Y-42055D01*
X81604Y-41975D01*
X81396Y-41974D01*
X81203Y-42054D01*
X81057Y-42200D01*
X80942Y-42200D01*
X80797Y-42055D01*
X80604Y-41975D01*
X80396Y-41974D01*
X80203Y-42054D01*
X80055Y-42202D01*
X80002Y-42328D01*
X79960Y-42227D01*
X79867Y-42202D01*
X79797Y-42273D01*
X79797Y-42132D01*
X79772Y-42039D01*
X79575Y-41970D01*
X79367Y-41981D01*
X79227Y-42039D01*
X79202Y-42132D01*
X79500Y-42429D01*
X79797Y-42132D01*
X79797Y-42273D01*
X79570Y-42500D01*
X79867Y-42797D01*
X79960Y-42772D01*
X79999Y-42662D01*
X80054Y-42797D01*
X80202Y-42944D01*
X80395Y-43024D01*
X80603Y-43025D01*
X80797Y-42945D01*
X80942Y-42800D01*
X81057Y-42800D01*
X81202Y-42944D01*
X81395Y-43024D01*
X81603Y-43025D01*
X81797Y-42945D01*
X81944Y-42797D01*
X82000Y-42664D01*
X82054Y-42797D01*
X82202Y-42944D01*
X82395Y-43024D01*
X82603Y-43025D01*
X82797Y-42945D01*
X82944Y-42797D01*
X83000Y-42664D01*
X83054Y-42797D01*
X83202Y-42944D01*
X83395Y-43024D01*
X83600Y-43025D01*
X84825Y-44249D01*
X84824Y-44334D01*
X84889Y-44490D01*
X85008Y-44610D01*
X85165Y-44674D01*
X85334Y-44675D01*
X85490Y-44610D01*
X85610Y-44491D01*
X85674Y-44334D01*
X85675Y-44165D01*
X85610Y-44009D01*
X85491Y-43889D01*
X85334Y-43825D01*
X85249Y-43824D01*
X84449Y-43024D01*
X84603Y-43025D01*
X84797Y-42945D01*
X84944Y-42797D01*
X85000Y-42664D01*
X85054Y-42797D01*
X85202Y-42944D01*
X85395Y-43024D01*
X85603Y-43025D01*
X85797Y-42945D01*
X85944Y-42797D01*
X86000Y-42664D01*
X86054Y-42797D01*
X86202Y-42944D01*
X86395Y-43024D01*
X86603Y-43025D01*
X86797Y-42945D01*
X86944Y-42797D01*
X87024Y-42604D01*
X87025Y-42396D01*
X86945Y-42203D01*
X86797Y-42055D01*
X86604Y-41975D01*
X86396Y-41974D01*
X86203Y-42054D01*
X86055Y-42202D01*
X85999Y-42335D01*
X85945Y-42203D01*
X85797Y-42055D01*
X85604Y-41975D01*
X85396Y-41974D01*
X85203Y-42054D01*
X85055Y-42202D01*
X84999Y-42335D01*
X84945Y-42203D01*
X84797Y-42055D01*
X84604Y-41975D01*
X84449Y-41974D01*
X85378Y-41045D01*
X85390Y-41049D01*
X85608Y-41050D01*
X85811Y-40966D01*
X85965Y-40811D01*
X85999Y-40730D01*
X86033Y-40811D01*
X86188Y-40965D01*
X86390Y-41049D01*
X86608Y-41050D01*
X86811Y-40966D01*
X86965Y-40811D01*
X87049Y-40609D01*
X87050Y-40391D01*
X87050Y-46988D01*
X87043Y-46863D01*
X87025Y-46817D01*
X87025Y-45396D01*
X86945Y-45203D01*
X86797Y-45055D01*
X86604Y-44975D01*
X86396Y-44974D01*
X86203Y-45054D01*
X86055Y-45202D01*
X85999Y-45335D01*
X85945Y-45203D01*
X85797Y-45055D01*
X85604Y-44975D01*
X85396Y-44974D01*
X85203Y-45054D01*
X85055Y-45202D01*
X84999Y-45335D01*
X84945Y-45203D01*
X84797Y-45055D01*
X84604Y-44975D01*
X84396Y-44974D01*
X84300Y-45014D01*
X84300Y-45000D01*
X84277Y-44885D01*
X84212Y-44787D01*
X84114Y-44722D01*
X84000Y-44700D01*
X79797Y-44700D01*
X79797Y-42867D01*
X79500Y-42570D01*
X79429Y-42641D01*
X79429Y-42500D01*
X79132Y-42202D01*
X79039Y-42227D01*
X79000Y-42337D01*
X78945Y-42203D01*
X78797Y-42055D01*
X78604Y-41975D01*
X78396Y-41974D01*
X78203Y-42054D01*
X78055Y-42202D01*
X77999Y-42335D01*
X77945Y-42203D01*
X77797Y-42055D01*
X77604Y-41975D01*
X77396Y-41974D01*
X77203Y-42054D01*
X77055Y-42202D01*
X76999Y-42335D01*
X76945Y-42203D01*
X76797Y-42055D01*
X76604Y-41975D01*
X76396Y-41974D01*
X76203Y-42054D01*
X76055Y-42202D01*
X75999Y-42335D01*
X75945Y-42203D01*
X75797Y-42055D01*
X75604Y-41975D01*
X75396Y-41974D01*
X75203Y-42054D01*
X75055Y-42202D01*
X74999Y-42335D01*
X74945Y-42203D01*
X74797Y-42055D01*
X74604Y-41975D01*
X74396Y-41974D01*
X74203Y-42054D01*
X74055Y-42202D01*
X73999Y-42335D01*
X73945Y-42203D01*
X73797Y-42055D01*
X73604Y-41975D01*
X73396Y-41974D01*
X73203Y-42054D01*
X73055Y-42202D01*
X72975Y-42395D01*
X72974Y-42603D01*
X73054Y-42797D01*
X73202Y-42944D01*
X73395Y-43024D01*
X73603Y-43025D01*
X73797Y-42945D01*
X73944Y-42797D01*
X74000Y-42664D01*
X74054Y-42797D01*
X74202Y-42944D01*
X74395Y-43024D01*
X74603Y-43025D01*
X74797Y-42945D01*
X74944Y-42797D01*
X75000Y-42664D01*
X75054Y-42797D01*
X75202Y-42944D01*
X75395Y-43024D01*
X75603Y-43025D01*
X75797Y-42945D01*
X75944Y-42797D01*
X76000Y-42664D01*
X76054Y-42797D01*
X76202Y-42944D01*
X76395Y-43024D01*
X76603Y-43025D01*
X76797Y-42945D01*
X76944Y-42797D01*
X77000Y-42664D01*
X77054Y-42797D01*
X77202Y-42944D01*
X77395Y-43024D01*
X77603Y-43025D01*
X77797Y-42945D01*
X77944Y-42797D01*
X78000Y-42664D01*
X78054Y-42797D01*
X78202Y-42944D01*
X78395Y-43024D01*
X78603Y-43025D01*
X78797Y-42945D01*
X78944Y-42797D01*
X78997Y-42671D01*
X79039Y-42772D01*
X79132Y-42797D01*
X79429Y-42500D01*
X79429Y-42641D01*
X79202Y-42867D01*
X79227Y-42960D01*
X79424Y-43029D01*
X79632Y-43018D01*
X79772Y-42960D01*
X79797Y-42867D01*
X79797Y-44700D01*
X77000Y-44700D01*
X76885Y-44722D01*
X76787Y-44787D01*
X76600Y-44975D01*
X76396Y-44974D01*
X76203Y-45054D01*
X76055Y-45202D01*
X75999Y-45335D01*
X75945Y-45203D01*
X75797Y-45055D01*
X75604Y-44975D01*
X75396Y-44974D01*
X75203Y-45054D01*
X75055Y-45202D01*
X74999Y-45335D01*
X74945Y-45203D01*
X74797Y-45055D01*
X74604Y-44975D01*
X74396Y-44974D01*
X74203Y-45054D01*
X74055Y-45202D01*
X74025Y-45274D01*
X74025Y-45175D01*
X73987Y-45083D01*
X73916Y-45013D01*
X73824Y-44975D01*
X73725Y-44974D01*
X73175Y-44974D01*
X73083Y-45012D01*
X73013Y-45083D01*
X72975Y-45175D01*
X72974Y-45274D01*
X72974Y-45824D01*
X73012Y-45916D01*
X73083Y-45986D01*
X73175Y-46024D01*
X73274Y-46025D01*
X73824Y-46025D01*
X73916Y-45987D01*
X73986Y-45916D01*
X74024Y-45824D01*
X74025Y-45725D01*
X74025Y-45725D01*
X74054Y-45797D01*
X74202Y-45944D01*
X74395Y-46024D01*
X74603Y-46025D01*
X74797Y-45945D01*
X74944Y-45797D01*
X75000Y-45664D01*
X75054Y-45797D01*
X75202Y-45944D01*
X75395Y-46024D01*
X75603Y-46025D01*
X75797Y-45945D01*
X75944Y-45797D01*
X76000Y-45664D01*
X76054Y-45797D01*
X76202Y-45944D01*
X76395Y-46024D01*
X76603Y-46025D01*
X76797Y-45945D01*
X76944Y-45797D01*
X77000Y-45664D01*
X77054Y-45797D01*
X77202Y-45944D01*
X77395Y-46024D01*
X77603Y-46025D01*
X77797Y-45945D01*
X77944Y-45797D01*
X78000Y-45664D01*
X78054Y-45797D01*
X78202Y-45944D01*
X78395Y-46024D01*
X78603Y-46025D01*
X78797Y-45945D01*
X78944Y-45797D01*
X79000Y-45664D01*
X79054Y-45797D01*
X79202Y-45944D01*
X79395Y-46024D01*
X79600Y-46025D01*
X80787Y-47212D01*
X80787Y-47212D01*
X80885Y-47277D01*
X81000Y-47300D01*
X82028Y-47300D01*
X82033Y-47311D01*
X82172Y-47449D01*
X82150Y-47449D01*
X82058Y-47487D01*
X81988Y-47558D01*
X81950Y-47650D01*
X81949Y-47749D01*
X81949Y-48349D01*
X81987Y-48441D01*
X82058Y-48511D01*
X82150Y-48549D01*
X82249Y-48550D01*
X82849Y-48550D01*
X82941Y-48512D01*
X83011Y-48441D01*
X83049Y-48349D01*
X83049Y-48327D01*
X83188Y-48465D01*
X83390Y-48549D01*
X83608Y-48550D01*
X83811Y-48466D01*
X83965Y-48311D01*
X83999Y-48230D01*
X84033Y-48311D01*
X84188Y-48465D01*
X84390Y-48549D01*
X84608Y-48550D01*
X84811Y-48466D01*
X84965Y-48311D01*
X84999Y-48230D01*
X85033Y-48311D01*
X85188Y-48465D01*
X85390Y-48549D01*
X85608Y-48550D01*
X85811Y-48466D01*
X85965Y-48311D01*
X85997Y-48236D01*
X86018Y-48287D01*
X86114Y-48315D01*
X86429Y-48000D01*
X86114Y-47684D01*
X86018Y-47712D01*
X85999Y-47767D01*
X85966Y-47688D01*
X85811Y-47534D01*
X85730Y-47500D01*
X85811Y-47466D01*
X85965Y-47311D01*
X85997Y-47236D01*
X86018Y-47287D01*
X86114Y-47315D01*
X86429Y-47000D01*
X86114Y-46684D01*
X86018Y-46712D01*
X85999Y-46767D01*
X85966Y-46688D01*
X85811Y-46534D01*
X85609Y-46450D01*
X85391Y-46449D01*
X85379Y-46454D01*
X84833Y-45909D01*
X84944Y-45797D01*
X85000Y-45664D01*
X85054Y-45797D01*
X85202Y-45944D01*
X85395Y-46024D01*
X85603Y-46025D01*
X85797Y-45945D01*
X85944Y-45797D01*
X86000Y-45664D01*
X86054Y-45797D01*
X86202Y-45944D01*
X86395Y-46024D01*
X86603Y-46025D01*
X86797Y-45945D01*
X86944Y-45797D01*
X87024Y-45604D01*
X87025Y-45396D01*
X87025Y-46817D01*
X86981Y-46712D01*
X86885Y-46684D01*
X86815Y-46755D01*
X86815Y-46614D01*
X86787Y-46518D01*
X86581Y-46445D01*
X86363Y-46456D01*
X86212Y-46518D01*
X86184Y-46614D01*
X86500Y-46929D01*
X86815Y-46614D01*
X86815Y-46755D01*
X86570Y-47000D01*
X86885Y-47315D01*
X86981Y-47287D01*
X87054Y-47081D01*
X87054Y-48081D01*
X87043Y-47863D01*
X86981Y-47712D01*
X86885Y-47684D01*
X86815Y-47755D01*
X86815Y-47614D01*
X86787Y-47518D01*
X86739Y-47501D01*
X86787Y-47481D01*
X86815Y-47385D01*
X86500Y-47070D01*
X86184Y-47385D01*
X86212Y-47481D01*
X86260Y-47498D01*
X86212Y-47518D01*
X86184Y-47614D01*
X86500Y-47929D01*
X86815Y-47614D01*
X86815Y-47755D01*
X86570Y-48000D01*
X86885Y-48315D01*
X86981Y-48287D01*
X87054Y-48081D01*
X87054Y-48950D01*
X86815Y-48950D01*
X86815Y-48385D01*
X86500Y-48070D01*
X86184Y-48385D01*
X86212Y-48481D01*
X86418Y-48554D01*
X86636Y-48543D01*
X86787Y-48481D01*
X86815Y-48385D01*
X86815Y-48950D01*
X76025Y-48950D01*
X76025Y-47896D01*
X75945Y-47703D01*
X75797Y-47555D01*
X75604Y-47475D01*
X75396Y-47474D01*
X75203Y-47554D01*
X75055Y-47702D01*
X74999Y-47835D01*
X74952Y-47721D01*
X75499Y-47174D01*
X75584Y-47175D01*
X75740Y-47110D01*
X75860Y-46991D01*
X75924Y-46834D01*
X75925Y-46665D01*
X75860Y-46509D01*
X75741Y-46389D01*
X75584Y-46325D01*
X75415Y-46324D01*
X75259Y-46389D01*
X75139Y-46508D01*
X75075Y-46665D01*
X75074Y-46750D01*
X74318Y-47506D01*
X74203Y-47554D01*
X74055Y-47702D01*
X74025Y-47774D01*
X74025Y-47774D01*
X74024Y-47675D01*
X73986Y-47583D01*
X73916Y-47512D01*
X73824Y-47474D01*
X73612Y-47475D01*
X73550Y-47537D01*
X73550Y-47950D01*
X73557Y-47950D01*
X73557Y-48050D01*
X73550Y-48050D01*
X73550Y-48462D01*
X73612Y-48525D01*
X73824Y-48525D01*
X73916Y-48487D01*
X73986Y-48416D01*
X74024Y-48324D01*
X74025Y-48225D01*
X74025Y-48225D01*
X74054Y-48297D01*
X74202Y-48444D01*
X74395Y-48524D01*
X74603Y-48525D01*
X74797Y-48445D01*
X74944Y-48297D01*
X75000Y-48164D01*
X75054Y-48297D01*
X75202Y-48444D01*
X75395Y-48524D01*
X75603Y-48525D01*
X75797Y-48445D01*
X75944Y-48297D01*
X76024Y-48104D01*
X76025Y-47896D01*
X76025Y-48950D01*
X73450Y-48950D01*
X73450Y-48462D01*
X73450Y-48050D01*
X73450Y-47950D01*
X73450Y-47537D01*
X73387Y-47475D01*
X73175Y-47474D01*
X73083Y-47512D01*
X73013Y-47583D01*
X72975Y-47675D01*
X72974Y-47774D01*
X72975Y-47887D01*
X73037Y-47950D01*
X73450Y-47950D01*
X73450Y-48050D01*
X73037Y-48050D01*
X72975Y-48112D01*
X72974Y-48225D01*
X72975Y-48324D01*
X73013Y-48416D01*
X73083Y-48487D01*
X73175Y-48525D01*
X73387Y-48525D01*
X73450Y-48462D01*
X73450Y-48950D01*
X71550Y-48950D01*
X71550Y-38550D01*
X87950Y-38550D01*
X87950Y-48950D01*
X87950Y-48950D01*
G37*
G54D16*
X87950Y-48950D02*
X87054Y-48950D01*
X87054Y-48081D01*
X87054Y-47081D01*
X87054Y-39581D01*
X87043Y-39363D01*
X86981Y-39212D01*
X86885Y-39184D01*
X86815Y-39255D01*
X86815Y-39114D01*
X86787Y-39018D01*
X86581Y-38945D01*
X86363Y-38956D01*
X86212Y-39018D01*
X86184Y-39114D01*
X86500Y-39429D01*
X86815Y-39114D01*
X86815Y-39255D01*
X86570Y-39500D01*
X86885Y-39815D01*
X86981Y-39787D01*
X87054Y-39581D01*
X87054Y-47081D01*
X87050Y-46988D01*
X87050Y-40391D01*
X86966Y-40188D01*
X86811Y-40034D01*
X86736Y-40002D01*
X86787Y-39981D01*
X86815Y-39885D01*
X86500Y-39570D01*
X86494Y-39576D01*
X86423Y-39505D01*
X86429Y-39500D01*
X86114Y-39184D01*
X86018Y-39212D01*
X85999Y-39267D01*
X85966Y-39188D01*
X85811Y-39034D01*
X85609Y-38950D01*
X85391Y-38949D01*
X85188Y-39033D01*
X85034Y-39188D01*
X85000Y-39269D01*
X84966Y-39188D01*
X84811Y-39034D01*
X84609Y-38950D01*
X84391Y-38949D01*
X84188Y-39033D01*
X84034Y-39188D01*
X84029Y-39200D01*
X83624Y-39200D01*
X83212Y-38787D01*
X83114Y-38722D01*
X83000Y-38700D01*
X82000Y-38700D01*
X81885Y-38722D01*
X81787Y-38787D01*
X81600Y-38974D01*
X81399Y-38974D01*
X81212Y-38787D01*
X81114Y-38722D01*
X81000Y-38700D01*
X76000Y-38700D01*
X75885Y-38722D01*
X75787Y-38787D01*
X75600Y-38975D01*
X75396Y-38974D01*
X75203Y-39054D01*
X75055Y-39202D01*
X74999Y-39335D01*
X74945Y-39203D01*
X74797Y-39055D01*
X74604Y-38975D01*
X74396Y-38974D01*
X74203Y-39054D01*
X74055Y-39202D01*
X74025Y-39274D01*
X74025Y-39175D01*
X73987Y-39083D01*
X73916Y-39013D01*
X73824Y-38975D01*
X73725Y-38974D01*
X73175Y-38974D01*
X73083Y-39012D01*
X73013Y-39083D01*
X72975Y-39175D01*
X72974Y-39274D01*
X72974Y-39824D01*
X73012Y-39916D01*
X73083Y-39986D01*
X73175Y-40024D01*
X73274Y-40025D01*
X73824Y-40025D01*
X73916Y-39987D01*
X73986Y-39916D01*
X74024Y-39824D01*
X74025Y-39725D01*
X74025Y-39725D01*
X74054Y-39797D01*
X74202Y-39944D01*
X74395Y-40024D01*
X74603Y-40025D01*
X74797Y-39945D01*
X74944Y-39797D01*
X75000Y-39664D01*
X75054Y-39797D01*
X75202Y-39944D01*
X75395Y-40024D01*
X75603Y-40025D01*
X75797Y-39945D01*
X75944Y-39797D01*
X75997Y-39671D01*
X76039Y-39772D01*
X76132Y-39797D01*
X76429Y-39500D01*
X76423Y-39494D01*
X76494Y-39423D01*
X76500Y-39429D01*
X76505Y-39423D01*
X76576Y-39494D01*
X76570Y-39500D01*
X76867Y-39797D01*
X76960Y-39772D01*
X77029Y-39575D01*
X77018Y-39367D01*
X76990Y-39300D01*
X80875Y-39300D01*
X80974Y-39399D01*
X80974Y-39700D01*
X78000Y-39700D01*
X77885Y-39722D01*
X77787Y-39787D01*
X76797Y-40778D01*
X76797Y-39867D01*
X76500Y-39570D01*
X76202Y-39867D01*
X76227Y-39960D01*
X76424Y-40029D01*
X76632Y-40018D01*
X76772Y-39960D01*
X76797Y-39867D01*
X76797Y-40778D01*
X76500Y-41075D01*
X76415Y-41074D01*
X76259Y-41139D01*
X76139Y-41258D01*
X76075Y-41415D01*
X76074Y-41584D01*
X76139Y-41740D01*
X76258Y-41860D01*
X76415Y-41924D01*
X76584Y-41925D01*
X76740Y-41860D01*
X76860Y-41741D01*
X76924Y-41584D01*
X76925Y-41499D01*
X78124Y-40300D01*
X83949Y-40300D01*
X83949Y-40849D01*
X83987Y-40941D01*
X84058Y-41011D01*
X84150Y-41049D01*
X84249Y-41050D01*
X84525Y-41050D01*
X83875Y-41700D01*
X83000Y-41700D01*
X82885Y-41722D01*
X82787Y-41787D01*
X82600Y-41975D01*
X82396Y-41974D01*
X82203Y-42054D01*
X82055Y-42202D01*
X81999Y-42335D01*
X81945Y-42203D01*
X81797Y-42055D01*
X81604Y-41975D01*
X81396Y-41974D01*
X81203Y-42054D01*
X81057Y-42200D01*
X80942Y-42200D01*
X80797Y-42055D01*
X80604Y-41975D01*
X80396Y-41974D01*
X80203Y-42054D01*
X80055Y-42202D01*
X80002Y-42328D01*
X79960Y-42227D01*
X79867Y-42202D01*
X79797Y-42273D01*
X79797Y-42132D01*
X79772Y-42039D01*
X79575Y-41970D01*
X79367Y-41981D01*
X79227Y-42039D01*
X79202Y-42132D01*
X79500Y-42429D01*
X79797Y-42132D01*
X79797Y-42273D01*
X79570Y-42500D01*
X79867Y-42797D01*
X79960Y-42772D01*
X79999Y-42662D01*
X80054Y-42797D01*
X80202Y-42944D01*
X80395Y-43024D01*
X80603Y-43025D01*
X80797Y-42945D01*
X80942Y-42800D01*
X81057Y-42800D01*
X81202Y-42944D01*
X81395Y-43024D01*
X81603Y-43025D01*
X81797Y-42945D01*
X81944Y-42797D01*
X82000Y-42664D01*
X82054Y-42797D01*
X82202Y-42944D01*
X82395Y-43024D01*
X82603Y-43025D01*
X82797Y-42945D01*
X82944Y-42797D01*
X83000Y-42664D01*
X83054Y-42797D01*
X83202Y-42944D01*
X83395Y-43024D01*
X83600Y-43025D01*
X84825Y-44249D01*
X84824Y-44334D01*
X84889Y-44490D01*
X85008Y-44610D01*
X85165Y-44674D01*
X85334Y-44675D01*
X85490Y-44610D01*
X85610Y-44491D01*
X85674Y-44334D01*
X85675Y-44165D01*
X85610Y-44009D01*
X85491Y-43889D01*
X85334Y-43825D01*
X85249Y-43824D01*
X84449Y-43024D01*
X84603Y-43025D01*
X84797Y-42945D01*
X84944Y-42797D01*
X85000Y-42664D01*
X85054Y-42797D01*
X85202Y-42944D01*
X85395Y-43024D01*
X85603Y-43025D01*
X85797Y-42945D01*
X85944Y-42797D01*
X86000Y-42664D01*
X86054Y-42797D01*
X86202Y-42944D01*
X86395Y-43024D01*
X86603Y-43025D01*
X86797Y-42945D01*
X86944Y-42797D01*
X87024Y-42604D01*
X87025Y-42396D01*
X86945Y-42203D01*
X86797Y-42055D01*
X86604Y-41975D01*
X86396Y-41974D01*
X86203Y-42054D01*
X86055Y-42202D01*
X85999Y-42335D01*
X85945Y-42203D01*
X85797Y-42055D01*
X85604Y-41975D01*
X85396Y-41974D01*
X85203Y-42054D01*
X85055Y-42202D01*
X84999Y-42335D01*
X84945Y-42203D01*
X84797Y-42055D01*
X84604Y-41975D01*
X84449Y-41974D01*
X85378Y-41045D01*
X85390Y-41049D01*
X85608Y-41050D01*
X85811Y-40966D01*
X85965Y-40811D01*
X85999Y-40730D01*
X86033Y-40811D01*
X86188Y-40965D01*
X86390Y-41049D01*
X86608Y-41050D01*
X86811Y-40966D01*
X86965Y-40811D01*
X87049Y-40609D01*
X87050Y-40391D01*
X87050Y-46988D01*
X87043Y-46863D01*
X87025Y-46817D01*
X87025Y-45396D01*
X86945Y-45203D01*
X86797Y-45055D01*
X86604Y-44975D01*
X86396Y-44974D01*
X86203Y-45054D01*
X86055Y-45202D01*
X85999Y-45335D01*
X85945Y-45203D01*
X85797Y-45055D01*
X85604Y-44975D01*
X85396Y-44974D01*
X85203Y-45054D01*
X85055Y-45202D01*
X84999Y-45335D01*
X84945Y-45203D01*
X84797Y-45055D01*
X84604Y-44975D01*
X84396Y-44974D01*
X84300Y-45014D01*
X84300Y-45000D01*
X84277Y-44885D01*
X84212Y-44787D01*
X84114Y-44722D01*
X84000Y-44700D01*
X79797Y-44700D01*
X79797Y-42867D01*
X79500Y-42570D01*
X79429Y-42641D01*
X79429Y-42500D01*
X79132Y-42202D01*
X79039Y-42227D01*
X79000Y-42337D01*
X78945Y-42203D01*
X78797Y-42055D01*
X78604Y-41975D01*
X78396Y-41974D01*
X78203Y-42054D01*
X78055Y-42202D01*
X77999Y-42335D01*
X77945Y-42203D01*
X77797Y-42055D01*
X77604Y-41975D01*
X77396Y-41974D01*
X77203Y-42054D01*
X77055Y-42202D01*
X76999Y-42335D01*
X76945Y-42203D01*
X76797Y-42055D01*
X76604Y-41975D01*
X76396Y-41974D01*
X76203Y-42054D01*
X76055Y-42202D01*
X75999Y-42335D01*
X75945Y-42203D01*
X75797Y-42055D01*
X75604Y-41975D01*
X75396Y-41974D01*
X75203Y-42054D01*
X75055Y-42202D01*
X74999Y-42335D01*
X74945Y-42203D01*
X74797Y-42055D01*
X74604Y-41975D01*
X74396Y-41974D01*
X74203Y-42054D01*
X74055Y-42202D01*
X73999Y-42335D01*
X73945Y-42203D01*
X73797Y-42055D01*
X73604Y-41975D01*
X73396Y-41974D01*
X73203Y-42054D01*
X73055Y-42202D01*
X72975Y-42395D01*
X72974Y-42603D01*
X73054Y-42797D01*
X73202Y-42944D01*
X73395Y-43024D01*
X73603Y-43025D01*
X73797Y-42945D01*
X73944Y-42797D01*
X74000Y-42664D01*
X74054Y-42797D01*
X74202Y-42944D01*
X74395Y-43024D01*
X74603Y-43025D01*
X74797Y-42945D01*
X74944Y-42797D01*
X75000Y-42664D01*
X75054Y-42797D01*
X75202Y-42944D01*
X75395Y-43024D01*
X75603Y-43025D01*
X75797Y-42945D01*
X75944Y-42797D01*
X76000Y-42664D01*
X76054Y-42797D01*
X76202Y-42944D01*
X76395Y-43024D01*
X76603Y-43025D01*
X76797Y-42945D01*
X76944Y-42797D01*
X77000Y-42664D01*
X77054Y-42797D01*
X77202Y-42944D01*
X77395Y-43024D01*
X77603Y-43025D01*
X77797Y-42945D01*
X77944Y-42797D01*
X78000Y-42664D01*
X78054Y-42797D01*
X78202Y-42944D01*
X78395Y-43024D01*
X78603Y-43025D01*
X78797Y-42945D01*
X78944Y-42797D01*
X78997Y-42671D01*
X79039Y-42772D01*
X79132Y-42797D01*
X79429Y-42500D01*
X79429Y-42641D01*
X79202Y-42867D01*
X79227Y-42960D01*
X79424Y-43029D01*
X79632Y-43018D01*
X79772Y-42960D01*
X79797Y-42867D01*
X79797Y-44700D01*
X77000Y-44700D01*
X76885Y-44722D01*
X76787Y-44787D01*
X76600Y-44975D01*
X76396Y-44974D01*
X76203Y-45054D01*
X76055Y-45202D01*
X75999Y-45335D01*
X75945Y-45203D01*
X75797Y-45055D01*
X75604Y-44975D01*
X75396Y-44974D01*
X75203Y-45054D01*
X75055Y-45202D01*
X74999Y-45335D01*
X74945Y-45203D01*
X74797Y-45055D01*
X74604Y-44975D01*
X74396Y-44974D01*
X74203Y-45054D01*
X74055Y-45202D01*
X74025Y-45274D01*
X74025Y-45175D01*
X73987Y-45083D01*
X73916Y-45013D01*
X73824Y-44975D01*
X73725Y-44974D01*
X73175Y-44974D01*
X73083Y-45012D01*
X73013Y-45083D01*
X72975Y-45175D01*
X72974Y-45274D01*
X72974Y-45824D01*
X73012Y-45916D01*
X73083Y-45986D01*
X73175Y-46024D01*
X73274Y-46025D01*
X73824Y-46025D01*
X73916Y-45987D01*
X73986Y-45916D01*
X74024Y-45824D01*
X74025Y-45725D01*
X74025Y-45725D01*
X74054Y-45797D01*
X74202Y-45944D01*
X74395Y-46024D01*
X74603Y-46025D01*
X74797Y-45945D01*
X74944Y-45797D01*
X75000Y-45664D01*
X75054Y-45797D01*
X75202Y-45944D01*
X75395Y-46024D01*
X75603Y-46025D01*
X75797Y-45945D01*
X75944Y-45797D01*
X76000Y-45664D01*
X76054Y-45797D01*
X76202Y-45944D01*
X76395Y-46024D01*
X76603Y-46025D01*
X76797Y-45945D01*
X76944Y-45797D01*
X77000Y-45664D01*
X77054Y-45797D01*
X77202Y-45944D01*
X77395Y-46024D01*
X77603Y-46025D01*
X77797Y-45945D01*
X77944Y-45797D01*
X78000Y-45664D01*
X78054Y-45797D01*
X78202Y-45944D01*
X78395Y-46024D01*
X78603Y-46025D01*
X78797Y-45945D01*
X78944Y-45797D01*
X79000Y-45664D01*
X79054Y-45797D01*
X79202Y-45944D01*
X79395Y-46024D01*
X79600Y-46025D01*
X80787Y-47212D01*
X80787Y-47212D01*
X80885Y-47277D01*
X81000Y-47300D01*
X82028Y-47300D01*
X82033Y-47311D01*
X82172Y-47449D01*
X82150Y-47449D01*
X82058Y-47487D01*
X81988Y-47558D01*
X81950Y-47650D01*
X81949Y-47749D01*
X81949Y-48349D01*
X81987Y-48441D01*
X82058Y-48511D01*
X82150Y-48549D01*
X82249Y-48550D01*
X82849Y-48550D01*
X82941Y-48512D01*
X83011Y-48441D01*
X83049Y-48349D01*
X83049Y-48327D01*
X83188Y-48465D01*
X83390Y-48549D01*
X83608Y-48550D01*
X83811Y-48466D01*
X83965Y-48311D01*
X83999Y-48230D01*
X84033Y-48311D01*
X84188Y-48465D01*
X84390Y-48549D01*
X84608Y-48550D01*
X84811Y-48466D01*
X84965Y-48311D01*
X84999Y-48230D01*
X85033Y-48311D01*
X85188Y-48465D01*
X85390Y-48549D01*
X85608Y-48550D01*
X85811Y-48466D01*
X85965Y-48311D01*
X85997Y-48236D01*
X86018Y-48287D01*
X86114Y-48315D01*
X86429Y-48000D01*
X86114Y-47684D01*
X86018Y-47712D01*
X85999Y-47767D01*
X85966Y-47688D01*
X85811Y-47534D01*
X85730Y-47500D01*
X85811Y-47466D01*
X85965Y-47311D01*
X85997Y-47236D01*
X86018Y-47287D01*
X86114Y-47315D01*
X86429Y-47000D01*
X86114Y-46684D01*
X86018Y-46712D01*
X85999Y-46767D01*
X85966Y-46688D01*
X85811Y-46534D01*
X85609Y-46450D01*
X85391Y-46449D01*
X85379Y-46454D01*
X84833Y-45909D01*
X84944Y-45797D01*
X85000Y-45664D01*
X85054Y-45797D01*
X85202Y-45944D01*
X85395Y-46024D01*
X85603Y-46025D01*
X85797Y-45945D01*
X85944Y-45797D01*
X86000Y-45664D01*
X86054Y-45797D01*
X86202Y-45944D01*
X86395Y-46024D01*
X86603Y-46025D01*
X86797Y-45945D01*
X86944Y-45797D01*
X87024Y-45604D01*
X87025Y-45396D01*
X87025Y-46817D01*
X86981Y-46712D01*
X86885Y-46684D01*
X86815Y-46755D01*
X86815Y-46614D01*
X86787Y-46518D01*
X86581Y-46445D01*
X86363Y-46456D01*
X86212Y-46518D01*
X86184Y-46614D01*
X86500Y-46929D01*
X86815Y-46614D01*
X86815Y-46755D01*
X86570Y-47000D01*
X86885Y-47315D01*
X86981Y-47287D01*
X87054Y-47081D01*
X87054Y-48081D01*
X87043Y-47863D01*
X86981Y-47712D01*
X86885Y-47684D01*
X86815Y-47755D01*
X86815Y-47614D01*
X86787Y-47518D01*
X86739Y-47501D01*
X86787Y-47481D01*
X86815Y-47385D01*
X86500Y-47070D01*
X86184Y-47385D01*
X86212Y-47481D01*
X86260Y-47498D01*
X86212Y-47518D01*
X86184Y-47614D01*
X86500Y-47929D01*
X86815Y-47614D01*
X86815Y-47755D01*
X86570Y-48000D01*
X86885Y-48315D01*
X86981Y-48287D01*
X87054Y-48081D01*
X87054Y-48950D01*
X86815Y-48950D01*
X86815Y-48385D01*
X86500Y-48070D01*
X86184Y-48385D01*
X86212Y-48481D01*
X86418Y-48554D01*
X86636Y-48543D01*
X86787Y-48481D01*
X86815Y-48385D01*
X86815Y-48950D01*
X76025Y-48950D01*
X76025Y-47896D01*
X75945Y-47703D01*
X75797Y-47555D01*
X75604Y-47475D01*
X75396Y-47474D01*
X75203Y-47554D01*
X75055Y-47702D01*
X74999Y-47835D01*
X74952Y-47721D01*
X75499Y-47174D01*
X75584Y-47175D01*
X75740Y-47110D01*
X75860Y-46991D01*
X75924Y-46834D01*
X75925Y-46665D01*
X75860Y-46509D01*
X75741Y-46389D01*
X75584Y-46325D01*
X75415Y-46324D01*
X75259Y-46389D01*
X75139Y-46508D01*
X75075Y-46665D01*
X75074Y-46750D01*
X74318Y-47506D01*
X74203Y-47554D01*
X74055Y-47702D01*
X74025Y-47774D01*
X74025Y-47774D01*
X74024Y-47675D01*
X73986Y-47583D01*
X73916Y-47512D01*
X73824Y-47474D01*
X73612Y-47475D01*
X73550Y-47537D01*
X73550Y-47950D01*
X73557Y-47950D01*
X73557Y-48050D01*
X73550Y-48050D01*
X73550Y-48462D01*
X73612Y-48525D01*
X73824Y-48525D01*
X73916Y-48487D01*
X73986Y-48416D01*
X74024Y-48324D01*
X74025Y-48225D01*
X74025Y-48225D01*
X74054Y-48297D01*
X74202Y-48444D01*
X74395Y-48524D01*
X74603Y-48525D01*
X74797Y-48445D01*
X74944Y-48297D01*
X75000Y-48164D01*
X75054Y-48297D01*
X75202Y-48444D01*
X75395Y-48524D01*
X75603Y-48525D01*
X75797Y-48445D01*
X75944Y-48297D01*
X76024Y-48104D01*
X76025Y-47896D01*
X76025Y-48950D01*
X73450Y-48950D01*
X73450Y-48462D01*
X73450Y-48050D01*
X73450Y-47950D01*
X73450Y-47537D01*
X73387Y-47475D01*
X73175Y-47474D01*
X73083Y-47512D01*
X73013Y-47583D01*
X72975Y-47675D01*
X72974Y-47774D01*
X72975Y-47887D01*
X73037Y-47950D01*
X73450Y-47950D01*
X73450Y-48050D01*
X73037Y-48050D01*
X72975Y-48112D01*
X72974Y-48225D01*
X72975Y-48324D01*
X73013Y-48416D01*
X73083Y-48487D01*
X73175Y-48525D01*
X73387Y-48525D01*
X73450Y-48462D01*
X73450Y-48950D01*
X71550Y-48950D01*
X71550Y-38550D01*
X87950Y-38550D01*
X87950Y-48950D01*
M02*
