G04 (created by PCBNEW (2013-04-19 BZR 4011)-stable) date 6/24/2013 11:27:29 PM*
%MOIN*%
G04 Gerber Fmt 3.4, Leading zero omitted, Abs format*
%FSLAX34Y34*%
G01*
G70*
G90*
G04 APERTURE LIST*
%ADD10C,0.006*%
%ADD11R,0.055X0.055*%
%ADD12C,0.055*%
%ADD13R,0.06X0.06*%
%ADD14C,0.06*%
%ADD15R,0.045X0.025*%
%ADD16R,0.025X0.045*%
%ADD17R,0.0314X0.0314*%
%ADD18R,0.04X0.099*%
%ADD19R,0.099X0.24*%
%ADD20C,0.0393701*%
%ADD21R,0.0177X0.0787*%
%ADD22R,0.0787X0.0177*%
%ADD23C,0.035*%
%ADD24C,0.02*%
%ADD25C,0.015*%
%ADD26C,0.01*%
G04 APERTURE END LIST*
G54D10*
G54D11*
X71850Y-42700D03*
G54D12*
X72850Y-42700D03*
X73850Y-42700D03*
X74850Y-42700D03*
G54D13*
X75600Y-39500D03*
G54D14*
X75600Y-38500D03*
X76600Y-39500D03*
X76600Y-38500D03*
X77600Y-39500D03*
X77600Y-38500D03*
X78600Y-39500D03*
X78600Y-38500D03*
X79600Y-39500D03*
X79600Y-38500D03*
G54D13*
X79000Y-47500D03*
G54D14*
X79000Y-48500D03*
X78000Y-47500D03*
X78000Y-48500D03*
X77000Y-47500D03*
X77000Y-48500D03*
G54D15*
X75200Y-40300D03*
X75200Y-40900D03*
G54D12*
X72000Y-38500D03*
X74000Y-38500D03*
X72000Y-41500D03*
X74000Y-41500D03*
G54D16*
X80900Y-43000D03*
X81500Y-43000D03*
G54D17*
X81605Y-43900D03*
X82195Y-43900D03*
G54D18*
X81100Y-45105D03*
X80100Y-45105D03*
G54D19*
X80600Y-47690D03*
G54D16*
X78600Y-45850D03*
X78000Y-45850D03*
G54D15*
X80000Y-41300D03*
X80000Y-40700D03*
G54D14*
X71631Y-46153D03*
X72615Y-46153D03*
X74584Y-46153D03*
X75568Y-46153D03*
X73600Y-48122D03*
G54D20*
X71631Y-48122D03*
X75568Y-48122D03*
X75568Y-49106D03*
X71631Y-49106D03*
X73600Y-46153D03*
G54D12*
X80750Y-40500D03*
X80750Y-38500D03*
X83750Y-40500D03*
X83750Y-38500D03*
G54D15*
X82300Y-42600D03*
X82300Y-43200D03*
X75850Y-40900D03*
X75850Y-40300D03*
X82300Y-41350D03*
X82300Y-41950D03*
G54D16*
X80900Y-42200D03*
X81500Y-42200D03*
G54D17*
X81495Y-41400D03*
X80905Y-41400D03*
G54D21*
X79093Y-44896D03*
X78778Y-44896D03*
X78463Y-44896D03*
X78148Y-44896D03*
X77833Y-44896D03*
X77518Y-44896D03*
X77203Y-44896D03*
X76888Y-44896D03*
X76890Y-41130D03*
X79100Y-41130D03*
X78780Y-41130D03*
X78460Y-41130D03*
X78150Y-41130D03*
X77830Y-41130D03*
X77520Y-41130D03*
X77200Y-41130D03*
G54D22*
X76100Y-44112D03*
X76100Y-43798D03*
X76100Y-43482D03*
X76100Y-43168D03*
X76100Y-42852D03*
X76100Y-42538D03*
X76100Y-42222D03*
X76100Y-41908D03*
X79880Y-44110D03*
X79880Y-43800D03*
X79880Y-43480D03*
X79880Y-43170D03*
X79880Y-42860D03*
X79880Y-42540D03*
X79880Y-42220D03*
X79880Y-41900D03*
G54D23*
X78100Y-42550D03*
X80550Y-41800D03*
X79000Y-42800D03*
X76250Y-44900D03*
X77150Y-43200D03*
X78100Y-43600D03*
X81700Y-48500D03*
X81700Y-47100D03*
X83700Y-48900D03*
X83300Y-42900D03*
X83200Y-44600D03*
X82400Y-45900D03*
X77200Y-46200D03*
X74900Y-41600D03*
X71500Y-43700D03*
X77600Y-40300D03*
X76500Y-41000D03*
X77650Y-44000D03*
X77500Y-41950D03*
X80500Y-41050D03*
X78600Y-41950D03*
G54D24*
X76600Y-39500D02*
X77200Y-40500D01*
X77200Y-40500D02*
X77200Y-41130D01*
G54D25*
X76890Y-41130D02*
X76890Y-40790D01*
X76100Y-39000D02*
X76600Y-38500D01*
X76100Y-39800D02*
X76100Y-39000D01*
X76890Y-40790D02*
X76100Y-39800D01*
G54D26*
X77038Y-44112D02*
X76100Y-44112D01*
X78100Y-43050D02*
X77038Y-44112D01*
X78100Y-42550D02*
X78100Y-43050D01*
G54D24*
X79880Y-42860D02*
X80760Y-42860D01*
X80760Y-42860D02*
X80900Y-43000D01*
X79880Y-42540D02*
X80560Y-42540D01*
X80560Y-42540D02*
X80900Y-42200D01*
G54D10*
X79880Y-41900D02*
X80450Y-41900D01*
X80450Y-41900D02*
X80550Y-41800D01*
G54D26*
X78600Y-39500D02*
X79600Y-40500D01*
X79600Y-41620D02*
X79880Y-41900D01*
X79600Y-40500D02*
X79600Y-41620D01*
X79100Y-42350D02*
X79300Y-42150D01*
X79000Y-42800D02*
X79100Y-42350D01*
X79880Y-42220D02*
X79810Y-42150D01*
X78100Y-39000D02*
X77600Y-38500D01*
X78100Y-40000D02*
X78100Y-39000D01*
X78250Y-40150D02*
X78100Y-40000D01*
X78400Y-40150D02*
X78250Y-40150D01*
X78950Y-40150D02*
X78400Y-40150D01*
X79350Y-40550D02*
X78950Y-40150D01*
X79350Y-41650D02*
X79350Y-40550D01*
X79300Y-41700D02*
X79350Y-41650D01*
X79300Y-42150D02*
X79300Y-41700D01*
X79810Y-42150D02*
X79300Y-42150D01*
X75850Y-40900D02*
X77150Y-42200D01*
X77150Y-42200D02*
X77150Y-43200D01*
X77000Y-47500D02*
X76400Y-46900D01*
X76400Y-46900D02*
X76400Y-45050D01*
X76400Y-45050D02*
X76250Y-44900D01*
G54D10*
X76132Y-43200D02*
X76100Y-43168D01*
G54D26*
X77150Y-43200D02*
X76132Y-43200D01*
G54D24*
X75200Y-40900D02*
X75850Y-40900D01*
G54D25*
X76100Y-43798D02*
X75602Y-43798D01*
X75500Y-46085D02*
X75568Y-46153D01*
X75500Y-43900D02*
X75500Y-46085D01*
X75602Y-43798D02*
X75500Y-43900D01*
G54D26*
X79100Y-41130D02*
X79100Y-41640D01*
X78500Y-43000D02*
X78100Y-43600D01*
X78530Y-42510D02*
X78500Y-43000D01*
X79070Y-41970D02*
X78530Y-42510D01*
X79070Y-41670D02*
X79070Y-41970D01*
X79100Y-41640D02*
X79070Y-41670D01*
X77600Y-39500D02*
X77800Y-40000D01*
X79100Y-40650D02*
X79100Y-41130D01*
X78900Y-40450D02*
X79100Y-40650D01*
X78200Y-40400D02*
X78900Y-40450D01*
X77800Y-40000D02*
X78200Y-40400D01*
G54D24*
X71850Y-42700D02*
X72500Y-43350D01*
X75548Y-42852D02*
X76100Y-42852D01*
X75050Y-43350D02*
X75548Y-42852D01*
X72500Y-43350D02*
X75050Y-43350D01*
X72850Y-42700D02*
X73400Y-42150D01*
X75438Y-42538D02*
X76100Y-42538D01*
X75050Y-42150D02*
X75438Y-42538D01*
X73400Y-42150D02*
X75050Y-42150D01*
X80100Y-45105D02*
X80045Y-45105D01*
X78778Y-45378D02*
X78778Y-44896D01*
X79000Y-45600D02*
X78778Y-45378D01*
X79550Y-45600D02*
X79000Y-45600D01*
X80045Y-45105D02*
X79550Y-45600D01*
X79093Y-44896D02*
X79154Y-44896D01*
X80395Y-44400D02*
X81100Y-45105D01*
X79650Y-44400D02*
X80395Y-44400D01*
X79154Y-44896D02*
X79650Y-44400D01*
X76100Y-43482D02*
X75529Y-43482D01*
X72285Y-45500D02*
X71631Y-46153D01*
X75150Y-45500D02*
X72285Y-45500D01*
X75200Y-45450D02*
X75150Y-45500D01*
X75200Y-43811D02*
X75200Y-45450D01*
X75529Y-43482D02*
X75200Y-43811D01*
G54D26*
X82300Y-42600D02*
X81200Y-42600D01*
X80470Y-43170D02*
X79880Y-43170D01*
X80600Y-43300D02*
X80470Y-43170D01*
X80600Y-43500D02*
X80600Y-43300D01*
X81200Y-43500D02*
X80600Y-43500D01*
X81200Y-42600D02*
X81200Y-43500D01*
G54D24*
X82300Y-41950D02*
X82300Y-42600D01*
G54D26*
X83700Y-48900D02*
X83700Y-47200D01*
X81390Y-47690D02*
X81700Y-48000D01*
X81700Y-48000D02*
X81700Y-48500D01*
X81700Y-47100D02*
X83500Y-48900D01*
X83500Y-48900D02*
X83700Y-48900D01*
X80600Y-47690D02*
X81390Y-47690D01*
X83300Y-44500D02*
X83300Y-42900D01*
X83200Y-44600D02*
X83300Y-44500D01*
X83700Y-47200D02*
X82400Y-45900D01*
G54D24*
X78000Y-45850D02*
X77550Y-45850D01*
X77550Y-45850D02*
X77200Y-46200D01*
G54D26*
X74750Y-40650D02*
X74750Y-41450D01*
X74750Y-41450D02*
X74900Y-41600D01*
X77518Y-44896D02*
X77518Y-45582D01*
X77518Y-45582D02*
X77500Y-45600D01*
X76500Y-40800D02*
X76500Y-41000D01*
X77830Y-40530D02*
X77830Y-41130D01*
X77600Y-40300D02*
X77830Y-40530D01*
X75850Y-40300D02*
X76000Y-40300D01*
X74700Y-40700D02*
X74750Y-40650D01*
X74750Y-40650D02*
X74800Y-40600D01*
X74800Y-40600D02*
X76300Y-40600D01*
X76300Y-40600D02*
X76500Y-40800D01*
X74700Y-40700D02*
X74700Y-40900D01*
X76000Y-40300D02*
X76500Y-40800D01*
G54D24*
X80905Y-41400D02*
X80905Y-40655D01*
X80905Y-40655D02*
X80750Y-40500D01*
X78148Y-44896D02*
X78148Y-45702D01*
X78148Y-45702D02*
X78000Y-45850D01*
X80750Y-38500D02*
X80750Y-39800D01*
X80750Y-39800D02*
X82300Y-41350D01*
X81495Y-41400D02*
X81495Y-42195D01*
X81495Y-42195D02*
X81500Y-42200D01*
X74000Y-41500D02*
X74000Y-40950D01*
X74650Y-40300D02*
X75200Y-40300D01*
X74000Y-40950D02*
X74650Y-40300D01*
X81500Y-43000D02*
X81500Y-43795D01*
X81500Y-43795D02*
X81495Y-43800D01*
X77833Y-44250D02*
X77833Y-44183D01*
X77833Y-44183D02*
X77650Y-44000D01*
X78463Y-44896D02*
X78463Y-44213D01*
X77833Y-44167D02*
X77833Y-44250D01*
X77833Y-44250D02*
X77833Y-44896D01*
X77850Y-44150D02*
X77833Y-44167D01*
X78400Y-44150D02*
X77850Y-44150D01*
X78463Y-44213D02*
X78400Y-44150D01*
X79000Y-48500D02*
X79150Y-48500D01*
X79700Y-46950D02*
X78600Y-45850D01*
X79700Y-47950D02*
X79700Y-46950D01*
X79150Y-48500D02*
X79700Y-47950D01*
X77500Y-41950D02*
X78600Y-41950D01*
X78600Y-41950D02*
X78200Y-41950D01*
X78200Y-41950D02*
X78150Y-41900D01*
X78150Y-41900D02*
X78150Y-41130D01*
X80000Y-41300D02*
X80250Y-41300D01*
X80250Y-41300D02*
X80500Y-41050D01*
X78780Y-41770D02*
X78780Y-41130D01*
X78600Y-41950D02*
X78780Y-41770D01*
X78463Y-44896D02*
X78463Y-45713D01*
X78463Y-45713D02*
X78600Y-45850D01*
X75600Y-38500D02*
X75600Y-39500D01*
G54D10*
G36*
X74926Y-42705D02*
X74855Y-42776D01*
X74850Y-42770D01*
X74844Y-42776D01*
X74773Y-42705D01*
X74779Y-42700D01*
X74773Y-42694D01*
X74844Y-42623D01*
X74850Y-42629D01*
X74855Y-42623D01*
X74926Y-42694D01*
X74920Y-42700D01*
X74926Y-42705D01*
X74926Y-42705D01*
G37*
G54D26*
X74926Y-42705D02*
X74855Y-42776D01*
X74850Y-42770D01*
X74844Y-42776D01*
X74773Y-42705D01*
X74779Y-42700D01*
X74773Y-42694D01*
X74844Y-42623D01*
X74850Y-42629D01*
X74855Y-42623D01*
X74926Y-42694D01*
X74920Y-42700D01*
X74926Y-42705D01*
G54D10*
G36*
X75250Y-38950D02*
X75158Y-38987D01*
X75088Y-39058D01*
X75050Y-39150D01*
X75049Y-39249D01*
X75049Y-39849D01*
X75081Y-39924D01*
X74925Y-39924D01*
X74864Y-39950D01*
X74650Y-39950D01*
X74516Y-39976D01*
X74402Y-40052D01*
X73752Y-40702D01*
X73676Y-40816D01*
X73650Y-40950D01*
X73650Y-41107D01*
X73555Y-41202D01*
X73475Y-41395D01*
X73474Y-41603D01*
X73554Y-41797D01*
X73557Y-41800D01*
X73400Y-41800D01*
X73266Y-41826D01*
X73152Y-41902D01*
X72879Y-42175D01*
X72746Y-42174D01*
X72553Y-42254D01*
X72529Y-42277D01*
X72529Y-41575D01*
X72518Y-41367D01*
X72460Y-41227D01*
X72367Y-41202D01*
X72297Y-41273D01*
X72297Y-41132D01*
X72297Y-38867D01*
X72000Y-38570D01*
X71702Y-38867D01*
X71727Y-38960D01*
X71924Y-39029D01*
X72132Y-39018D01*
X72272Y-38960D01*
X72297Y-38867D01*
X72297Y-41132D01*
X72272Y-41039D01*
X72075Y-40970D01*
X71867Y-40981D01*
X71727Y-41039D01*
X71702Y-41132D01*
X72000Y-41429D01*
X72297Y-41132D01*
X72297Y-41273D01*
X72070Y-41500D01*
X72367Y-41797D01*
X72460Y-41772D01*
X72529Y-41575D01*
X72529Y-42277D01*
X72405Y-42402D01*
X72375Y-42474D01*
X72375Y-42375D01*
X72337Y-42283D01*
X72297Y-42243D01*
X72297Y-41867D01*
X72000Y-41570D01*
X71929Y-41641D01*
X71929Y-41500D01*
X71632Y-41202D01*
X71539Y-41227D01*
X71470Y-41424D01*
X71481Y-41632D01*
X71539Y-41772D01*
X71632Y-41797D01*
X71929Y-41500D01*
X71929Y-41641D01*
X71702Y-41867D01*
X71727Y-41960D01*
X71924Y-42029D01*
X72132Y-42018D01*
X72272Y-41960D01*
X72297Y-41867D01*
X72297Y-42243D01*
X72266Y-42213D01*
X72174Y-42175D01*
X72075Y-42174D01*
X71525Y-42174D01*
X71433Y-42212D01*
X71363Y-42283D01*
X71325Y-42375D01*
X71324Y-42474D01*
X71324Y-43024D01*
X71362Y-43116D01*
X71433Y-43186D01*
X71525Y-43224D01*
X71624Y-43225D01*
X71880Y-43225D01*
X72252Y-43597D01*
X72366Y-43673D01*
X72500Y-43700D01*
X74872Y-43700D01*
X74850Y-43811D01*
X74850Y-45150D01*
X72285Y-45150D01*
X72151Y-45176D01*
X72037Y-45252D01*
X71686Y-45603D01*
X71522Y-45603D01*
X71320Y-45687D01*
X71269Y-45737D01*
X71269Y-38269D01*
X71524Y-38269D01*
X71470Y-38424D01*
X71481Y-38632D01*
X71539Y-38772D01*
X71632Y-38797D01*
X71929Y-38500D01*
X71923Y-38494D01*
X71994Y-38423D01*
X72000Y-38429D01*
X72005Y-38423D01*
X72076Y-38494D01*
X72070Y-38500D01*
X72367Y-38797D01*
X72460Y-38772D01*
X72529Y-38575D01*
X72518Y-38367D01*
X72478Y-38269D01*
X73527Y-38269D01*
X73475Y-38395D01*
X73474Y-38603D01*
X73554Y-38797D01*
X73702Y-38944D01*
X73895Y-39024D01*
X74103Y-39025D01*
X74297Y-38945D01*
X74444Y-38797D01*
X74524Y-38604D01*
X74525Y-38396D01*
X74472Y-38269D01*
X75100Y-38269D01*
X75050Y-38390D01*
X75049Y-38608D01*
X75133Y-38811D01*
X75250Y-38927D01*
X75250Y-38950D01*
X75250Y-38950D01*
G37*
G54D26*
X75250Y-38950D02*
X75158Y-38987D01*
X75088Y-39058D01*
X75050Y-39150D01*
X75049Y-39249D01*
X75049Y-39849D01*
X75081Y-39924D01*
X74925Y-39924D01*
X74864Y-39950D01*
X74650Y-39950D01*
X74516Y-39976D01*
X74402Y-40052D01*
X73752Y-40702D01*
X73676Y-40816D01*
X73650Y-40950D01*
X73650Y-41107D01*
X73555Y-41202D01*
X73475Y-41395D01*
X73474Y-41603D01*
X73554Y-41797D01*
X73557Y-41800D01*
X73400Y-41800D01*
X73266Y-41826D01*
X73152Y-41902D01*
X72879Y-42175D01*
X72746Y-42174D01*
X72553Y-42254D01*
X72529Y-42277D01*
X72529Y-41575D01*
X72518Y-41367D01*
X72460Y-41227D01*
X72367Y-41202D01*
X72297Y-41273D01*
X72297Y-41132D01*
X72297Y-38867D01*
X72000Y-38570D01*
X71702Y-38867D01*
X71727Y-38960D01*
X71924Y-39029D01*
X72132Y-39018D01*
X72272Y-38960D01*
X72297Y-38867D01*
X72297Y-41132D01*
X72272Y-41039D01*
X72075Y-40970D01*
X71867Y-40981D01*
X71727Y-41039D01*
X71702Y-41132D01*
X72000Y-41429D01*
X72297Y-41132D01*
X72297Y-41273D01*
X72070Y-41500D01*
X72367Y-41797D01*
X72460Y-41772D01*
X72529Y-41575D01*
X72529Y-42277D01*
X72405Y-42402D01*
X72375Y-42474D01*
X72375Y-42375D01*
X72337Y-42283D01*
X72297Y-42243D01*
X72297Y-41867D01*
X72000Y-41570D01*
X71929Y-41641D01*
X71929Y-41500D01*
X71632Y-41202D01*
X71539Y-41227D01*
X71470Y-41424D01*
X71481Y-41632D01*
X71539Y-41772D01*
X71632Y-41797D01*
X71929Y-41500D01*
X71929Y-41641D01*
X71702Y-41867D01*
X71727Y-41960D01*
X71924Y-42029D01*
X72132Y-42018D01*
X72272Y-41960D01*
X72297Y-41867D01*
X72297Y-42243D01*
X72266Y-42213D01*
X72174Y-42175D01*
X72075Y-42174D01*
X71525Y-42174D01*
X71433Y-42212D01*
X71363Y-42283D01*
X71325Y-42375D01*
X71324Y-42474D01*
X71324Y-43024D01*
X71362Y-43116D01*
X71433Y-43186D01*
X71525Y-43224D01*
X71624Y-43225D01*
X71880Y-43225D01*
X72252Y-43597D01*
X72366Y-43673D01*
X72500Y-43700D01*
X74872Y-43700D01*
X74850Y-43811D01*
X74850Y-45150D01*
X72285Y-45150D01*
X72151Y-45176D01*
X72037Y-45252D01*
X71686Y-45603D01*
X71522Y-45603D01*
X71320Y-45687D01*
X71269Y-45737D01*
X71269Y-38269D01*
X71524Y-38269D01*
X71470Y-38424D01*
X71481Y-38632D01*
X71539Y-38772D01*
X71632Y-38797D01*
X71929Y-38500D01*
X71923Y-38494D01*
X71994Y-38423D01*
X72000Y-38429D01*
X72005Y-38423D01*
X72076Y-38494D01*
X72070Y-38500D01*
X72367Y-38797D01*
X72460Y-38772D01*
X72529Y-38575D01*
X72518Y-38367D01*
X72478Y-38269D01*
X73527Y-38269D01*
X73475Y-38395D01*
X73474Y-38603D01*
X73554Y-38797D01*
X73702Y-38944D01*
X73895Y-39024D01*
X74103Y-39025D01*
X74297Y-38945D01*
X74444Y-38797D01*
X74524Y-38604D01*
X74525Y-38396D01*
X74472Y-38269D01*
X75100Y-38269D01*
X75050Y-38390D01*
X75049Y-38608D01*
X75133Y-38811D01*
X75250Y-38927D01*
X75250Y-38950D01*
G54D10*
G36*
X75907Y-40350D02*
X75900Y-40350D01*
X75900Y-40357D01*
X75800Y-40357D01*
X75800Y-40350D01*
X75792Y-40350D01*
X75792Y-40250D01*
X75800Y-40250D01*
X75800Y-40242D01*
X75900Y-40242D01*
X75900Y-40250D01*
X75907Y-40250D01*
X75907Y-40350D01*
X75907Y-40350D01*
G37*
G54D26*
X75907Y-40350D02*
X75900Y-40350D01*
X75900Y-40357D01*
X75800Y-40357D01*
X75800Y-40350D01*
X75792Y-40350D01*
X75792Y-40250D01*
X75800Y-40250D01*
X75800Y-40242D01*
X75900Y-40242D01*
X75900Y-40250D01*
X75907Y-40250D01*
X75907Y-40350D01*
G54D10*
G36*
X76095Y-41569D02*
X75656Y-41569D01*
X75565Y-41607D01*
X75494Y-41677D01*
X75456Y-41769D01*
X75456Y-41869D01*
X75456Y-42046D01*
X75464Y-42064D01*
X75462Y-42068D01*
X75297Y-41902D01*
X75183Y-41826D01*
X75050Y-41800D01*
X74442Y-41800D01*
X74444Y-41797D01*
X74524Y-41604D01*
X74525Y-41396D01*
X74445Y-41203D01*
X74350Y-41107D01*
X74350Y-41094D01*
X74728Y-40716D01*
X74725Y-40725D01*
X74724Y-40824D01*
X74724Y-41074D01*
X74762Y-41166D01*
X74833Y-41236D01*
X74925Y-41274D01*
X75024Y-41275D01*
X75474Y-41275D01*
X75525Y-41254D01*
X75575Y-41274D01*
X75674Y-41275D01*
X75800Y-41275D01*
X76095Y-41569D01*
X76095Y-41569D01*
G37*
G54D26*
X76095Y-41569D02*
X75656Y-41569D01*
X75565Y-41607D01*
X75494Y-41677D01*
X75456Y-41769D01*
X75456Y-41869D01*
X75456Y-42046D01*
X75464Y-42064D01*
X75462Y-42068D01*
X75297Y-41902D01*
X75183Y-41826D01*
X75050Y-41800D01*
X74442Y-41800D01*
X74444Y-41797D01*
X74524Y-41604D01*
X74525Y-41396D01*
X74445Y-41203D01*
X74350Y-41107D01*
X74350Y-41094D01*
X74728Y-40716D01*
X74725Y-40725D01*
X74724Y-40824D01*
X74724Y-41074D01*
X74762Y-41166D01*
X74833Y-41236D01*
X74925Y-41274D01*
X75024Y-41275D01*
X75474Y-41275D01*
X75525Y-41254D01*
X75575Y-41274D01*
X75674Y-41275D01*
X75800Y-41275D01*
X76095Y-41569D01*
G54D10*
G36*
X76551Y-41177D02*
X76325Y-40950D01*
X76325Y-40725D01*
X76287Y-40633D01*
X76253Y-40600D01*
X76287Y-40566D01*
X76290Y-40559D01*
X76551Y-40886D01*
X76551Y-41177D01*
X76551Y-41177D01*
G37*
G54D26*
X76551Y-41177D02*
X76325Y-40950D01*
X76325Y-40725D01*
X76287Y-40633D01*
X76253Y-40600D01*
X76287Y-40566D01*
X76290Y-40559D01*
X76551Y-40886D01*
X76551Y-41177D01*
G54D10*
G36*
X77899Y-40523D02*
X77874Y-40549D01*
X77874Y-40570D01*
X77849Y-40594D01*
X77835Y-40630D01*
X77820Y-40595D01*
X77785Y-40560D01*
X77785Y-40549D01*
X77723Y-40486D01*
X77691Y-40486D01*
X77675Y-40493D01*
X77658Y-40486D01*
X77558Y-40486D01*
X77547Y-40486D01*
X77545Y-40476D01*
X77546Y-40447D01*
X77530Y-40403D01*
X77523Y-40366D01*
X77510Y-40346D01*
X77500Y-40319D01*
X77288Y-39966D01*
X77490Y-40049D01*
X77496Y-40049D01*
X77521Y-40111D01*
X77522Y-40113D01*
X77522Y-40114D01*
X77553Y-40161D01*
X77585Y-40209D01*
X77586Y-40210D01*
X77587Y-40212D01*
X77899Y-40523D01*
X77899Y-40523D01*
G37*
G54D26*
X77899Y-40523D02*
X77874Y-40549D01*
X77874Y-40570D01*
X77849Y-40594D01*
X77835Y-40630D01*
X77820Y-40595D01*
X77785Y-40560D01*
X77785Y-40549D01*
X77723Y-40486D01*
X77691Y-40486D01*
X77675Y-40493D01*
X77658Y-40486D01*
X77558Y-40486D01*
X77547Y-40486D01*
X77545Y-40476D01*
X77546Y-40447D01*
X77530Y-40403D01*
X77523Y-40366D01*
X77510Y-40346D01*
X77500Y-40319D01*
X77288Y-39966D01*
X77490Y-40049D01*
X77496Y-40049D01*
X77521Y-40111D01*
X77522Y-40113D01*
X77522Y-40114D01*
X77553Y-40161D01*
X77585Y-40209D01*
X77586Y-40210D01*
X77587Y-40212D01*
X77899Y-40523D01*
G54D10*
G36*
X79204Y-46949D02*
X78650Y-46949D01*
X78558Y-46987D01*
X78488Y-47058D01*
X78450Y-47150D01*
X78450Y-47172D01*
X78311Y-47034D01*
X78109Y-46950D01*
X77950Y-46949D01*
X77950Y-46262D01*
X77950Y-45900D01*
X77687Y-45900D01*
X77625Y-45962D01*
X77624Y-46025D01*
X77625Y-46124D01*
X77663Y-46216D01*
X77733Y-46287D01*
X77825Y-46325D01*
X77887Y-46325D01*
X77950Y-46262D01*
X77950Y-46949D01*
X77891Y-46949D01*
X77688Y-47033D01*
X77534Y-47188D01*
X77500Y-47269D01*
X77466Y-47188D01*
X77311Y-47034D01*
X77109Y-46950D01*
X76891Y-46949D01*
X76879Y-46954D01*
X76700Y-46775D01*
X76700Y-45518D01*
X76749Y-45539D01*
X76849Y-45539D01*
X77026Y-45539D01*
X77045Y-45531D01*
X77064Y-45539D01*
X77164Y-45539D01*
X77341Y-45539D01*
X77360Y-45531D01*
X77379Y-45539D01*
X77411Y-45539D01*
X77473Y-45477D01*
X77473Y-45460D01*
X77503Y-45431D01*
X77517Y-45395D01*
X77532Y-45430D01*
X77562Y-45460D01*
X77562Y-45477D01*
X77624Y-45539D01*
X77639Y-45539D01*
X77625Y-45575D01*
X77624Y-45674D01*
X77625Y-45737D01*
X77687Y-45800D01*
X77950Y-45800D01*
X77950Y-45792D01*
X78050Y-45792D01*
X78050Y-45800D01*
X78057Y-45800D01*
X78057Y-45900D01*
X78050Y-45900D01*
X78050Y-46262D01*
X78112Y-46325D01*
X78174Y-46325D01*
X78266Y-46287D01*
X78299Y-46253D01*
X78333Y-46286D01*
X78425Y-46324D01*
X78524Y-46325D01*
X78580Y-46325D01*
X79204Y-46949D01*
X79204Y-46949D01*
G37*
G54D26*
X79204Y-46949D02*
X78650Y-46949D01*
X78558Y-46987D01*
X78488Y-47058D01*
X78450Y-47150D01*
X78450Y-47172D01*
X78311Y-47034D01*
X78109Y-46950D01*
X77950Y-46949D01*
X77950Y-46262D01*
X77950Y-45900D01*
X77687Y-45900D01*
X77625Y-45962D01*
X77624Y-46025D01*
X77625Y-46124D01*
X77663Y-46216D01*
X77733Y-46287D01*
X77825Y-46325D01*
X77887Y-46325D01*
X77950Y-46262D01*
X77950Y-46949D01*
X77891Y-46949D01*
X77688Y-47033D01*
X77534Y-47188D01*
X77500Y-47269D01*
X77466Y-47188D01*
X77311Y-47034D01*
X77109Y-46950D01*
X76891Y-46949D01*
X76879Y-46954D01*
X76700Y-46775D01*
X76700Y-45518D01*
X76749Y-45539D01*
X76849Y-45539D01*
X77026Y-45539D01*
X77045Y-45531D01*
X77064Y-45539D01*
X77164Y-45539D01*
X77341Y-45539D01*
X77360Y-45531D01*
X77379Y-45539D01*
X77411Y-45539D01*
X77473Y-45477D01*
X77473Y-45460D01*
X77503Y-45431D01*
X77517Y-45395D01*
X77532Y-45430D01*
X77562Y-45460D01*
X77562Y-45477D01*
X77624Y-45539D01*
X77639Y-45539D01*
X77625Y-45575D01*
X77624Y-45674D01*
X77625Y-45737D01*
X77687Y-45800D01*
X77950Y-45800D01*
X77950Y-45792D01*
X78050Y-45792D01*
X78050Y-45800D01*
X78057Y-45800D01*
X78057Y-45900D01*
X78050Y-45900D01*
X78050Y-46262D01*
X78112Y-46325D01*
X78174Y-46325D01*
X78266Y-46287D01*
X78299Y-46253D01*
X78333Y-46286D01*
X78425Y-46324D01*
X78524Y-46325D01*
X78580Y-46325D01*
X79204Y-46949D01*
G54D10*
G36*
X80962Y-41450D02*
X80955Y-41450D01*
X80955Y-41457D01*
X80855Y-41457D01*
X80855Y-41450D01*
X80847Y-41450D01*
X80847Y-41350D01*
X80855Y-41350D01*
X80855Y-41342D01*
X80955Y-41342D01*
X80955Y-41350D01*
X80962Y-41350D01*
X80962Y-41450D01*
X80962Y-41450D01*
G37*
G54D26*
X80962Y-41450D02*
X80955Y-41450D01*
X80955Y-41457D01*
X80855Y-41457D01*
X80855Y-41450D01*
X80847Y-41450D01*
X80847Y-41350D01*
X80855Y-41350D01*
X80855Y-41342D01*
X80955Y-41342D01*
X80955Y-41350D01*
X80962Y-41350D01*
X80962Y-41450D01*
G54D10*
G36*
X81447Y-40992D02*
X81288Y-40992D01*
X81200Y-41029D01*
X81111Y-40992D01*
X81017Y-40993D01*
X80955Y-41055D01*
X80955Y-40993D01*
X80944Y-40993D01*
X81022Y-40960D01*
X81047Y-40867D01*
X80750Y-40570D01*
X80744Y-40576D01*
X80673Y-40505D01*
X80679Y-40500D01*
X80382Y-40202D01*
X80289Y-40227D01*
X80255Y-40325D01*
X80175Y-40324D01*
X80154Y-40324D01*
X80154Y-39581D01*
X80143Y-39363D01*
X80081Y-39212D01*
X79985Y-39184D01*
X79915Y-39255D01*
X79915Y-39114D01*
X79887Y-39018D01*
X79839Y-39001D01*
X79887Y-38981D01*
X79915Y-38885D01*
X79600Y-38570D01*
X79284Y-38885D01*
X79312Y-38981D01*
X79360Y-38998D01*
X79312Y-39018D01*
X79284Y-39114D01*
X79600Y-39429D01*
X79915Y-39114D01*
X79915Y-39255D01*
X79670Y-39500D01*
X79985Y-39815D01*
X80081Y-39787D01*
X80154Y-39581D01*
X80154Y-40324D01*
X80112Y-40325D01*
X80050Y-40387D01*
X80050Y-40650D01*
X80057Y-40650D01*
X80057Y-40750D01*
X80050Y-40750D01*
X80050Y-40757D01*
X79950Y-40757D01*
X79950Y-40750D01*
X79942Y-40750D01*
X79942Y-40650D01*
X79950Y-40650D01*
X79950Y-40387D01*
X79887Y-40325D01*
X79836Y-40324D01*
X79812Y-40287D01*
X79812Y-40287D01*
X79576Y-40051D01*
X79736Y-40043D01*
X79887Y-39981D01*
X79915Y-39885D01*
X79600Y-39570D01*
X79594Y-39576D01*
X79523Y-39505D01*
X79529Y-39500D01*
X79214Y-39184D01*
X79118Y-39212D01*
X79099Y-39267D01*
X79066Y-39188D01*
X78911Y-39034D01*
X78830Y-39000D01*
X78911Y-38966D01*
X79065Y-38811D01*
X79097Y-38736D01*
X79118Y-38787D01*
X79214Y-38815D01*
X79529Y-38500D01*
X79523Y-38494D01*
X79594Y-38423D01*
X79600Y-38429D01*
X79605Y-38423D01*
X79676Y-38494D01*
X79670Y-38500D01*
X79985Y-38815D01*
X80081Y-38787D01*
X80154Y-38581D01*
X80143Y-38363D01*
X80105Y-38269D01*
X80277Y-38269D01*
X80225Y-38395D01*
X80224Y-38603D01*
X80304Y-38797D01*
X80400Y-38892D01*
X80400Y-39800D01*
X80426Y-39933D01*
X80492Y-40032D01*
X80477Y-40039D01*
X80452Y-40132D01*
X80750Y-40429D01*
X80755Y-40423D01*
X80826Y-40494D01*
X80820Y-40500D01*
X81117Y-40797D01*
X81210Y-40772D01*
X81215Y-40760D01*
X81447Y-40992D01*
X81447Y-40992D01*
G37*
G54D26*
X81447Y-40992D02*
X81288Y-40992D01*
X81200Y-41029D01*
X81111Y-40992D01*
X81017Y-40993D01*
X80955Y-41055D01*
X80955Y-40993D01*
X80944Y-40993D01*
X81022Y-40960D01*
X81047Y-40867D01*
X80750Y-40570D01*
X80744Y-40576D01*
X80673Y-40505D01*
X80679Y-40500D01*
X80382Y-40202D01*
X80289Y-40227D01*
X80255Y-40325D01*
X80175Y-40324D01*
X80154Y-40324D01*
X80154Y-39581D01*
X80143Y-39363D01*
X80081Y-39212D01*
X79985Y-39184D01*
X79915Y-39255D01*
X79915Y-39114D01*
X79887Y-39018D01*
X79839Y-39001D01*
X79887Y-38981D01*
X79915Y-38885D01*
X79600Y-38570D01*
X79284Y-38885D01*
X79312Y-38981D01*
X79360Y-38998D01*
X79312Y-39018D01*
X79284Y-39114D01*
X79600Y-39429D01*
X79915Y-39114D01*
X79915Y-39255D01*
X79670Y-39500D01*
X79985Y-39815D01*
X80081Y-39787D01*
X80154Y-39581D01*
X80154Y-40324D01*
X80112Y-40325D01*
X80050Y-40387D01*
X80050Y-40650D01*
X80057Y-40650D01*
X80057Y-40750D01*
X80050Y-40750D01*
X80050Y-40757D01*
X79950Y-40757D01*
X79950Y-40750D01*
X79942Y-40750D01*
X79942Y-40650D01*
X79950Y-40650D01*
X79950Y-40387D01*
X79887Y-40325D01*
X79836Y-40324D01*
X79812Y-40287D01*
X79812Y-40287D01*
X79576Y-40051D01*
X79736Y-40043D01*
X79887Y-39981D01*
X79915Y-39885D01*
X79600Y-39570D01*
X79594Y-39576D01*
X79523Y-39505D01*
X79529Y-39500D01*
X79214Y-39184D01*
X79118Y-39212D01*
X79099Y-39267D01*
X79066Y-39188D01*
X78911Y-39034D01*
X78830Y-39000D01*
X78911Y-38966D01*
X79065Y-38811D01*
X79097Y-38736D01*
X79118Y-38787D01*
X79214Y-38815D01*
X79529Y-38500D01*
X79523Y-38494D01*
X79594Y-38423D01*
X79600Y-38429D01*
X79605Y-38423D01*
X79676Y-38494D01*
X79670Y-38500D01*
X79985Y-38815D01*
X80081Y-38787D01*
X80154Y-38581D01*
X80143Y-38363D01*
X80105Y-38269D01*
X80277Y-38269D01*
X80225Y-38395D01*
X80224Y-38603D01*
X80304Y-38797D01*
X80400Y-38892D01*
X80400Y-39800D01*
X80426Y-39933D01*
X80492Y-40032D01*
X80477Y-40039D01*
X80452Y-40132D01*
X80750Y-40429D01*
X80755Y-40423D01*
X80826Y-40494D01*
X80820Y-40500D01*
X81117Y-40797D01*
X81210Y-40772D01*
X81215Y-40760D01*
X81447Y-40992D01*
G54D10*
G36*
X84130Y-49230D02*
X84047Y-49230D01*
X84047Y-40867D01*
X83750Y-40570D01*
X83679Y-40641D01*
X83679Y-40500D01*
X83382Y-40202D01*
X83289Y-40227D01*
X83220Y-40424D01*
X83231Y-40632D01*
X83289Y-40772D01*
X83382Y-40797D01*
X83679Y-40500D01*
X83679Y-40641D01*
X83452Y-40867D01*
X83477Y-40960D01*
X83674Y-41029D01*
X83882Y-41018D01*
X84022Y-40960D01*
X84047Y-40867D01*
X84047Y-49230D01*
X82775Y-49230D01*
X82602Y-49230D01*
X82602Y-44007D01*
X82602Y-44012D01*
X82539Y-43950D01*
X82245Y-43950D01*
X82245Y-44244D01*
X82307Y-44307D01*
X82401Y-44307D01*
X82493Y-44269D01*
X82563Y-44198D01*
X82601Y-44106D01*
X82602Y-44007D01*
X82602Y-49230D01*
X81345Y-49230D01*
X81345Y-48939D01*
X81345Y-46440D01*
X81307Y-46348D01*
X81236Y-46278D01*
X81144Y-46240D01*
X81045Y-46239D01*
X80712Y-46240D01*
X80650Y-46302D01*
X80650Y-47640D01*
X81282Y-47640D01*
X81345Y-47577D01*
X81345Y-46440D01*
X81345Y-48939D01*
X81345Y-47802D01*
X81282Y-47740D01*
X80650Y-47740D01*
X80650Y-49077D01*
X80712Y-49140D01*
X81045Y-49140D01*
X81144Y-49139D01*
X81236Y-49101D01*
X81307Y-49031D01*
X81345Y-48939D01*
X81345Y-49230D01*
X77315Y-49230D01*
X77315Y-48885D01*
X77000Y-48570D01*
X76929Y-48641D01*
X76929Y-48500D01*
X76614Y-48184D01*
X76518Y-48212D01*
X76445Y-48418D01*
X76456Y-48636D01*
X76518Y-48787D01*
X76614Y-48815D01*
X76929Y-48500D01*
X76929Y-48641D01*
X76684Y-48885D01*
X76712Y-48981D01*
X76918Y-49054D01*
X77136Y-49043D01*
X77287Y-48981D01*
X77315Y-48885D01*
X77315Y-49230D01*
X76000Y-49230D01*
X76015Y-49195D01*
X76015Y-49017D01*
X76015Y-48033D01*
X75947Y-47869D01*
X75821Y-47743D01*
X75657Y-47675D01*
X75480Y-47675D01*
X75315Y-47743D01*
X75189Y-47868D01*
X75121Y-48032D01*
X75121Y-48210D01*
X75189Y-48374D01*
X75315Y-48500D01*
X75479Y-48568D01*
X75656Y-48568D01*
X75821Y-48501D01*
X75947Y-48375D01*
X76015Y-48211D01*
X76015Y-48033D01*
X76015Y-49017D01*
X75947Y-48853D01*
X75821Y-48727D01*
X75657Y-48659D01*
X75480Y-48659D01*
X75315Y-48727D01*
X75189Y-48852D01*
X75121Y-49017D01*
X75121Y-49194D01*
X75136Y-49230D01*
X74154Y-49230D01*
X74154Y-48203D01*
X74143Y-47985D01*
X74081Y-47834D01*
X73985Y-47806D01*
X73915Y-47877D01*
X73915Y-47736D01*
X73887Y-47640D01*
X73681Y-47567D01*
X73463Y-47578D01*
X73312Y-47640D01*
X73284Y-47736D01*
X73600Y-48051D01*
X73915Y-47736D01*
X73915Y-47877D01*
X73670Y-48122D01*
X73985Y-48437D01*
X74081Y-48409D01*
X74154Y-48203D01*
X74154Y-49230D01*
X73915Y-49230D01*
X73915Y-48507D01*
X73600Y-48192D01*
X73529Y-48263D01*
X73529Y-48122D01*
X73214Y-47806D01*
X73118Y-47834D01*
X73045Y-48040D01*
X73056Y-48258D01*
X73118Y-48409D01*
X73214Y-48437D01*
X73529Y-48122D01*
X73529Y-48263D01*
X73284Y-48507D01*
X73312Y-48603D01*
X73518Y-48676D01*
X73736Y-48665D01*
X73887Y-48603D01*
X73915Y-48507D01*
X73915Y-49230D01*
X72063Y-49230D01*
X72078Y-49195D01*
X72078Y-49017D01*
X72010Y-48853D01*
X71884Y-48727D01*
X71720Y-48659D01*
X71543Y-48659D01*
X71378Y-48727D01*
X71269Y-48836D01*
X71269Y-48392D01*
X71378Y-48500D01*
X71542Y-48568D01*
X71719Y-48568D01*
X71884Y-48501D01*
X72010Y-48375D01*
X72078Y-48211D01*
X72078Y-48033D01*
X72010Y-47869D01*
X71884Y-47743D01*
X71720Y-47675D01*
X71543Y-47675D01*
X71378Y-47743D01*
X71269Y-47851D01*
X71269Y-46569D01*
X71319Y-46619D01*
X71521Y-46703D01*
X71740Y-46703D01*
X71942Y-46620D01*
X72097Y-46465D01*
X72123Y-46402D01*
X72149Y-46464D01*
X72303Y-46619D01*
X72505Y-46703D01*
X72724Y-46703D01*
X72926Y-46620D01*
X73081Y-46465D01*
X73163Y-46267D01*
X73220Y-46406D01*
X73346Y-46532D01*
X73510Y-46600D01*
X73688Y-46600D01*
X73852Y-46532D01*
X73978Y-46406D01*
X74036Y-46267D01*
X74117Y-46464D01*
X74272Y-46619D01*
X74474Y-46703D01*
X74693Y-46703D01*
X74895Y-46620D01*
X75050Y-46465D01*
X75076Y-46402D01*
X75101Y-46464D01*
X75256Y-46619D01*
X75458Y-46703D01*
X75677Y-46703D01*
X75879Y-46620D01*
X76034Y-46465D01*
X76100Y-46307D01*
X76100Y-46900D01*
X76122Y-47014D01*
X76187Y-47112D01*
X76454Y-47378D01*
X76450Y-47390D01*
X76449Y-47608D01*
X76533Y-47811D01*
X76688Y-47965D01*
X76763Y-47997D01*
X76712Y-48018D01*
X76684Y-48114D01*
X77000Y-48429D01*
X77315Y-48114D01*
X77287Y-48018D01*
X77232Y-47999D01*
X77311Y-47966D01*
X77465Y-47811D01*
X77499Y-47730D01*
X77533Y-47811D01*
X77688Y-47965D01*
X77769Y-47999D01*
X77688Y-48033D01*
X77534Y-48188D01*
X77502Y-48263D01*
X77481Y-48212D01*
X77385Y-48184D01*
X77070Y-48500D01*
X77385Y-48815D01*
X77481Y-48787D01*
X77500Y-48732D01*
X77533Y-48811D01*
X77688Y-48965D01*
X77890Y-49049D01*
X78108Y-49050D01*
X78311Y-48966D01*
X78465Y-48811D01*
X78499Y-48730D01*
X78533Y-48811D01*
X78688Y-48965D01*
X78890Y-49049D01*
X79108Y-49050D01*
X79311Y-48966D01*
X79465Y-48811D01*
X79549Y-48609D01*
X79549Y-48595D01*
X79854Y-48289D01*
X79854Y-48939D01*
X79892Y-49031D01*
X79963Y-49101D01*
X80055Y-49139D01*
X80154Y-49140D01*
X80487Y-49140D01*
X80550Y-49077D01*
X80550Y-47740D01*
X80542Y-47740D01*
X80542Y-47640D01*
X80550Y-47640D01*
X80550Y-46302D01*
X80487Y-46240D01*
X80154Y-46239D01*
X80055Y-46240D01*
X79963Y-46278D01*
X79892Y-46348D01*
X79854Y-46440D01*
X79854Y-46609D01*
X79194Y-45950D01*
X79550Y-45950D01*
X79683Y-45923D01*
X79683Y-45923D01*
X79797Y-45847D01*
X79811Y-45833D01*
X79850Y-45849D01*
X79949Y-45850D01*
X80349Y-45850D01*
X80441Y-45812D01*
X80511Y-45741D01*
X80549Y-45649D01*
X80550Y-45550D01*
X80550Y-45050D01*
X80649Y-45149D01*
X80649Y-45649D01*
X80687Y-45741D01*
X80758Y-45811D01*
X80850Y-45849D01*
X80949Y-45850D01*
X81349Y-45850D01*
X81441Y-45812D01*
X81511Y-45741D01*
X81549Y-45649D01*
X81550Y-45550D01*
X81550Y-44560D01*
X81512Y-44468D01*
X81441Y-44398D01*
X81349Y-44360D01*
X81250Y-44359D01*
X80850Y-44359D01*
X80850Y-44360D01*
X80642Y-44152D01*
X80528Y-44076D01*
X80523Y-44075D01*
X80523Y-43971D01*
X80516Y-43955D01*
X80523Y-43938D01*
X80523Y-43838D01*
X80523Y-43784D01*
X80600Y-43800D01*
X81145Y-43800D01*
X81171Y-43933D01*
X81197Y-43973D01*
X81197Y-44106D01*
X81235Y-44198D01*
X81306Y-44268D01*
X81398Y-44306D01*
X81497Y-44307D01*
X81811Y-44307D01*
X81900Y-44270D01*
X81988Y-44307D01*
X82082Y-44307D01*
X82145Y-44244D01*
X82145Y-43950D01*
X82137Y-43950D01*
X82137Y-43850D01*
X82145Y-43850D01*
X82145Y-43842D01*
X82245Y-43842D01*
X82245Y-43850D01*
X82539Y-43850D01*
X82602Y-43787D01*
X82602Y-43792D01*
X82601Y-43693D01*
X82563Y-43601D01*
X82537Y-43574D01*
X82574Y-43574D01*
X82666Y-43536D01*
X82737Y-43466D01*
X82775Y-43374D01*
X82775Y-43312D01*
X82712Y-43250D01*
X82350Y-43250D01*
X82350Y-43257D01*
X82250Y-43257D01*
X82250Y-43250D01*
X82242Y-43250D01*
X82242Y-43150D01*
X82250Y-43150D01*
X82250Y-43142D01*
X82350Y-43142D01*
X82350Y-43150D01*
X82712Y-43150D01*
X82775Y-43087D01*
X82775Y-43025D01*
X82737Y-42933D01*
X82703Y-42900D01*
X82736Y-42866D01*
X82774Y-42774D01*
X82775Y-42675D01*
X82775Y-42425D01*
X82737Y-42333D01*
X82678Y-42274D01*
X82736Y-42216D01*
X82774Y-42124D01*
X82775Y-42025D01*
X82775Y-41775D01*
X82737Y-41683D01*
X82703Y-41650D01*
X82736Y-41616D01*
X82774Y-41524D01*
X82775Y-41425D01*
X82775Y-41175D01*
X82737Y-41083D01*
X82666Y-41013D01*
X82574Y-40975D01*
X82475Y-40974D01*
X82419Y-40974D01*
X81100Y-39655D01*
X81100Y-38892D01*
X81194Y-38797D01*
X81274Y-38604D01*
X81275Y-38396D01*
X81222Y-38269D01*
X83277Y-38269D01*
X83225Y-38395D01*
X83224Y-38603D01*
X83304Y-38797D01*
X83452Y-38944D01*
X83645Y-39024D01*
X83853Y-39025D01*
X84047Y-38945D01*
X84130Y-38862D01*
X84130Y-40206D01*
X84117Y-40202D01*
X84047Y-40273D01*
X84047Y-40132D01*
X84022Y-40039D01*
X83825Y-39970D01*
X83617Y-39981D01*
X83477Y-40039D01*
X83452Y-40132D01*
X83750Y-40429D01*
X84047Y-40132D01*
X84047Y-40273D01*
X83820Y-40500D01*
X84117Y-40797D01*
X84130Y-40793D01*
X84130Y-49230D01*
X84130Y-49230D01*
G37*
G54D26*
X84130Y-49230D02*
X84047Y-49230D01*
X84047Y-40867D01*
X83750Y-40570D01*
X83679Y-40641D01*
X83679Y-40500D01*
X83382Y-40202D01*
X83289Y-40227D01*
X83220Y-40424D01*
X83231Y-40632D01*
X83289Y-40772D01*
X83382Y-40797D01*
X83679Y-40500D01*
X83679Y-40641D01*
X83452Y-40867D01*
X83477Y-40960D01*
X83674Y-41029D01*
X83882Y-41018D01*
X84022Y-40960D01*
X84047Y-40867D01*
X84047Y-49230D01*
X82775Y-49230D01*
X82602Y-49230D01*
X82602Y-44007D01*
X82602Y-44012D01*
X82539Y-43950D01*
X82245Y-43950D01*
X82245Y-44244D01*
X82307Y-44307D01*
X82401Y-44307D01*
X82493Y-44269D01*
X82563Y-44198D01*
X82601Y-44106D01*
X82602Y-44007D01*
X82602Y-49230D01*
X81345Y-49230D01*
X81345Y-48939D01*
X81345Y-46440D01*
X81307Y-46348D01*
X81236Y-46278D01*
X81144Y-46240D01*
X81045Y-46239D01*
X80712Y-46240D01*
X80650Y-46302D01*
X80650Y-47640D01*
X81282Y-47640D01*
X81345Y-47577D01*
X81345Y-46440D01*
X81345Y-48939D01*
X81345Y-47802D01*
X81282Y-47740D01*
X80650Y-47740D01*
X80650Y-49077D01*
X80712Y-49140D01*
X81045Y-49140D01*
X81144Y-49139D01*
X81236Y-49101D01*
X81307Y-49031D01*
X81345Y-48939D01*
X81345Y-49230D01*
X77315Y-49230D01*
X77315Y-48885D01*
X77000Y-48570D01*
X76929Y-48641D01*
X76929Y-48500D01*
X76614Y-48184D01*
X76518Y-48212D01*
X76445Y-48418D01*
X76456Y-48636D01*
X76518Y-48787D01*
X76614Y-48815D01*
X76929Y-48500D01*
X76929Y-48641D01*
X76684Y-48885D01*
X76712Y-48981D01*
X76918Y-49054D01*
X77136Y-49043D01*
X77287Y-48981D01*
X77315Y-48885D01*
X77315Y-49230D01*
X76000Y-49230D01*
X76015Y-49195D01*
X76015Y-49017D01*
X76015Y-48033D01*
X75947Y-47869D01*
X75821Y-47743D01*
X75657Y-47675D01*
X75480Y-47675D01*
X75315Y-47743D01*
X75189Y-47868D01*
X75121Y-48032D01*
X75121Y-48210D01*
X75189Y-48374D01*
X75315Y-48500D01*
X75479Y-48568D01*
X75656Y-48568D01*
X75821Y-48501D01*
X75947Y-48375D01*
X76015Y-48211D01*
X76015Y-48033D01*
X76015Y-49017D01*
X75947Y-48853D01*
X75821Y-48727D01*
X75657Y-48659D01*
X75480Y-48659D01*
X75315Y-48727D01*
X75189Y-48852D01*
X75121Y-49017D01*
X75121Y-49194D01*
X75136Y-49230D01*
X74154Y-49230D01*
X74154Y-48203D01*
X74143Y-47985D01*
X74081Y-47834D01*
X73985Y-47806D01*
X73915Y-47877D01*
X73915Y-47736D01*
X73887Y-47640D01*
X73681Y-47567D01*
X73463Y-47578D01*
X73312Y-47640D01*
X73284Y-47736D01*
X73600Y-48051D01*
X73915Y-47736D01*
X73915Y-47877D01*
X73670Y-48122D01*
X73985Y-48437D01*
X74081Y-48409D01*
X74154Y-48203D01*
X74154Y-49230D01*
X73915Y-49230D01*
X73915Y-48507D01*
X73600Y-48192D01*
X73529Y-48263D01*
X73529Y-48122D01*
X73214Y-47806D01*
X73118Y-47834D01*
X73045Y-48040D01*
X73056Y-48258D01*
X73118Y-48409D01*
X73214Y-48437D01*
X73529Y-48122D01*
X73529Y-48263D01*
X73284Y-48507D01*
X73312Y-48603D01*
X73518Y-48676D01*
X73736Y-48665D01*
X73887Y-48603D01*
X73915Y-48507D01*
X73915Y-49230D01*
X72063Y-49230D01*
X72078Y-49195D01*
X72078Y-49017D01*
X72010Y-48853D01*
X71884Y-48727D01*
X71720Y-48659D01*
X71543Y-48659D01*
X71378Y-48727D01*
X71269Y-48836D01*
X71269Y-48392D01*
X71378Y-48500D01*
X71542Y-48568D01*
X71719Y-48568D01*
X71884Y-48501D01*
X72010Y-48375D01*
X72078Y-48211D01*
X72078Y-48033D01*
X72010Y-47869D01*
X71884Y-47743D01*
X71720Y-47675D01*
X71543Y-47675D01*
X71378Y-47743D01*
X71269Y-47851D01*
X71269Y-46569D01*
X71319Y-46619D01*
X71521Y-46703D01*
X71740Y-46703D01*
X71942Y-46620D01*
X72097Y-46465D01*
X72123Y-46402D01*
X72149Y-46464D01*
X72303Y-46619D01*
X72505Y-46703D01*
X72724Y-46703D01*
X72926Y-46620D01*
X73081Y-46465D01*
X73163Y-46267D01*
X73220Y-46406D01*
X73346Y-46532D01*
X73510Y-46600D01*
X73688Y-46600D01*
X73852Y-46532D01*
X73978Y-46406D01*
X74036Y-46267D01*
X74117Y-46464D01*
X74272Y-46619D01*
X74474Y-46703D01*
X74693Y-46703D01*
X74895Y-46620D01*
X75050Y-46465D01*
X75076Y-46402D01*
X75101Y-46464D01*
X75256Y-46619D01*
X75458Y-46703D01*
X75677Y-46703D01*
X75879Y-46620D01*
X76034Y-46465D01*
X76100Y-46307D01*
X76100Y-46900D01*
X76122Y-47014D01*
X76187Y-47112D01*
X76454Y-47378D01*
X76450Y-47390D01*
X76449Y-47608D01*
X76533Y-47811D01*
X76688Y-47965D01*
X76763Y-47997D01*
X76712Y-48018D01*
X76684Y-48114D01*
X77000Y-48429D01*
X77315Y-48114D01*
X77287Y-48018D01*
X77232Y-47999D01*
X77311Y-47966D01*
X77465Y-47811D01*
X77499Y-47730D01*
X77533Y-47811D01*
X77688Y-47965D01*
X77769Y-47999D01*
X77688Y-48033D01*
X77534Y-48188D01*
X77502Y-48263D01*
X77481Y-48212D01*
X77385Y-48184D01*
X77070Y-48500D01*
X77385Y-48815D01*
X77481Y-48787D01*
X77500Y-48732D01*
X77533Y-48811D01*
X77688Y-48965D01*
X77890Y-49049D01*
X78108Y-49050D01*
X78311Y-48966D01*
X78465Y-48811D01*
X78499Y-48730D01*
X78533Y-48811D01*
X78688Y-48965D01*
X78890Y-49049D01*
X79108Y-49050D01*
X79311Y-48966D01*
X79465Y-48811D01*
X79549Y-48609D01*
X79549Y-48595D01*
X79854Y-48289D01*
X79854Y-48939D01*
X79892Y-49031D01*
X79963Y-49101D01*
X80055Y-49139D01*
X80154Y-49140D01*
X80487Y-49140D01*
X80550Y-49077D01*
X80550Y-47740D01*
X80542Y-47740D01*
X80542Y-47640D01*
X80550Y-47640D01*
X80550Y-46302D01*
X80487Y-46240D01*
X80154Y-46239D01*
X80055Y-46240D01*
X79963Y-46278D01*
X79892Y-46348D01*
X79854Y-46440D01*
X79854Y-46609D01*
X79194Y-45950D01*
X79550Y-45950D01*
X79683Y-45923D01*
X79683Y-45923D01*
X79797Y-45847D01*
X79811Y-45833D01*
X79850Y-45849D01*
X79949Y-45850D01*
X80349Y-45850D01*
X80441Y-45812D01*
X80511Y-45741D01*
X80549Y-45649D01*
X80550Y-45550D01*
X80550Y-45050D01*
X80649Y-45149D01*
X80649Y-45649D01*
X80687Y-45741D01*
X80758Y-45811D01*
X80850Y-45849D01*
X80949Y-45850D01*
X81349Y-45850D01*
X81441Y-45812D01*
X81511Y-45741D01*
X81549Y-45649D01*
X81550Y-45550D01*
X81550Y-44560D01*
X81512Y-44468D01*
X81441Y-44398D01*
X81349Y-44360D01*
X81250Y-44359D01*
X80850Y-44359D01*
X80850Y-44360D01*
X80642Y-44152D01*
X80528Y-44076D01*
X80523Y-44075D01*
X80523Y-43971D01*
X80516Y-43955D01*
X80523Y-43938D01*
X80523Y-43838D01*
X80523Y-43784D01*
X80600Y-43800D01*
X81145Y-43800D01*
X81171Y-43933D01*
X81197Y-43973D01*
X81197Y-44106D01*
X81235Y-44198D01*
X81306Y-44268D01*
X81398Y-44306D01*
X81497Y-44307D01*
X81811Y-44307D01*
X81900Y-44270D01*
X81988Y-44307D01*
X82082Y-44307D01*
X82145Y-44244D01*
X82145Y-43950D01*
X82137Y-43950D01*
X82137Y-43850D01*
X82145Y-43850D01*
X82145Y-43842D01*
X82245Y-43842D01*
X82245Y-43850D01*
X82539Y-43850D01*
X82602Y-43787D01*
X82602Y-43792D01*
X82601Y-43693D01*
X82563Y-43601D01*
X82537Y-43574D01*
X82574Y-43574D01*
X82666Y-43536D01*
X82737Y-43466D01*
X82775Y-43374D01*
X82775Y-43312D01*
X82712Y-43250D01*
X82350Y-43250D01*
X82350Y-43257D01*
X82250Y-43257D01*
X82250Y-43250D01*
X82242Y-43250D01*
X82242Y-43150D01*
X82250Y-43150D01*
X82250Y-43142D01*
X82350Y-43142D01*
X82350Y-43150D01*
X82712Y-43150D01*
X82775Y-43087D01*
X82775Y-43025D01*
X82737Y-42933D01*
X82703Y-42900D01*
X82736Y-42866D01*
X82774Y-42774D01*
X82775Y-42675D01*
X82775Y-42425D01*
X82737Y-42333D01*
X82678Y-42274D01*
X82736Y-42216D01*
X82774Y-42124D01*
X82775Y-42025D01*
X82775Y-41775D01*
X82737Y-41683D01*
X82703Y-41650D01*
X82736Y-41616D01*
X82774Y-41524D01*
X82775Y-41425D01*
X82775Y-41175D01*
X82737Y-41083D01*
X82666Y-41013D01*
X82574Y-40975D01*
X82475Y-40974D01*
X82419Y-40974D01*
X81100Y-39655D01*
X81100Y-38892D01*
X81194Y-38797D01*
X81274Y-38604D01*
X81275Y-38396D01*
X81222Y-38269D01*
X83277Y-38269D01*
X83225Y-38395D01*
X83224Y-38603D01*
X83304Y-38797D01*
X83452Y-38944D01*
X83645Y-39024D01*
X83853Y-39025D01*
X84047Y-38945D01*
X84130Y-38862D01*
X84130Y-40206D01*
X84117Y-40202D01*
X84047Y-40273D01*
X84047Y-40132D01*
X84022Y-40039D01*
X83825Y-39970D01*
X83617Y-39981D01*
X83477Y-40039D01*
X83452Y-40132D01*
X83750Y-40429D01*
X84047Y-40132D01*
X84047Y-40273D01*
X83820Y-40500D01*
X84117Y-40797D01*
X84130Y-40793D01*
X84130Y-49230D01*
M02*
