G04 (created by PCBNEW (2013-04-19 BZR 4011)-stable) date 6/24/2013 11:27:32 PM*
%MOIN*%
G04 Gerber Fmt 3.4, Leading zero omitted, Abs format*
%FSLAX34Y34*%
G01*
G70*
G90*
G04 APERTURE LIST*
%ADD10C,0.005*%
%ADD11C,0.00393701*%
%ADD12C,0.00787402*%
%ADD13C,0.011811*%
G04 APERTURE END LIST*
G54D10*
G54D11*
X84400Y-38000D02*
X71000Y-38000D01*
X71000Y-49500D02*
X84400Y-49500D01*
X84400Y-49500D02*
X84400Y-38000D01*
X71000Y-38000D02*
X71000Y-49500D01*
G54D12*
X71375Y-43575D02*
X71625Y-43825D01*
X71625Y-43575D02*
X71375Y-43825D01*
X74775Y-41475D02*
X75025Y-41725D01*
X75025Y-41475D02*
X74775Y-41725D01*
X76125Y-44775D02*
X76375Y-45025D01*
X76375Y-44775D02*
X76125Y-45025D01*
X76375Y-40875D02*
X76625Y-41125D01*
X76625Y-40875D02*
X76375Y-41125D01*
X77025Y-43075D02*
X77275Y-43325D01*
X77275Y-43075D02*
X77025Y-43325D01*
X77075Y-46075D02*
X77325Y-46325D01*
X77325Y-46075D02*
X77075Y-46325D01*
X77375Y-41825D02*
X77625Y-42075D01*
X77625Y-41825D02*
X77375Y-42075D01*
X77475Y-40175D02*
X77725Y-40425D01*
X77725Y-40175D02*
X77475Y-40425D01*
X77525Y-43875D02*
X77775Y-44125D01*
X77775Y-43875D02*
X77525Y-44125D01*
X77975Y-42425D02*
X78225Y-42675D01*
X78225Y-42425D02*
X77975Y-42675D01*
X77975Y-43475D02*
X78225Y-43725D01*
X78225Y-43475D02*
X77975Y-43725D01*
X78475Y-41825D02*
X78725Y-42075D01*
X78725Y-41825D02*
X78475Y-42075D01*
X78875Y-42675D02*
X79125Y-42925D01*
X79125Y-42675D02*
X78875Y-42925D01*
X80375Y-40925D02*
X80625Y-41175D01*
X80625Y-40925D02*
X80375Y-41175D01*
X80425Y-41675D02*
X80675Y-41925D01*
X80675Y-41675D02*
X80425Y-41925D01*
X81575Y-46975D02*
X81825Y-47225D01*
X81825Y-46975D02*
X81575Y-47225D01*
X81575Y-48375D02*
X81825Y-48625D01*
X81825Y-48375D02*
X81575Y-48625D01*
X82275Y-45775D02*
X82525Y-46025D01*
X82525Y-45775D02*
X82275Y-46025D01*
X83075Y-44475D02*
X83325Y-44725D01*
X83325Y-44475D02*
X83075Y-44725D01*
X83175Y-42775D02*
X83425Y-43025D01*
X83425Y-42775D02*
X83175Y-43025D01*
X83575Y-48775D02*
X83825Y-49025D01*
X83825Y-48775D02*
X83575Y-49025D01*
X72010Y-42700D02*
G75*
G03X72010Y-42700I-160J0D01*
G74*
G01*
X72160Y-38500D02*
G75*
G03X72160Y-38500I-160J0D01*
G74*
G01*
X72160Y-41500D02*
G75*
G03X72160Y-41500I-160J0D01*
G74*
G01*
X73010Y-42700D02*
G75*
G03X73010Y-42700I-160J0D01*
G74*
G01*
X74010Y-42700D02*
G75*
G03X74010Y-42700I-160J0D01*
G74*
G01*
X74160Y-38500D02*
G75*
G03X74160Y-38500I-160J0D01*
G74*
G01*
X74160Y-41500D02*
G75*
G03X74160Y-41500I-160J0D01*
G74*
G01*
X75010Y-42700D02*
G75*
G03X75010Y-42700I-160J0D01*
G74*
G01*
X80910Y-38500D02*
G75*
G03X80910Y-38500I-160J0D01*
G74*
G01*
X80910Y-40500D02*
G75*
G03X80910Y-40500I-160J0D01*
G74*
G01*
X83910Y-38500D02*
G75*
G03X83910Y-38500I-160J0D01*
G74*
G01*
X83910Y-40500D02*
G75*
G03X83910Y-40500I-160J0D01*
G74*
G01*
X71631Y-47925D02*
X71631Y-48318D01*
X71434Y-48122D02*
X71828Y-48122D01*
X71631Y-48909D02*
X71631Y-49303D01*
X71434Y-49106D02*
X71828Y-49106D01*
X73600Y-45956D02*
X73600Y-46350D01*
X73403Y-46153D02*
X73796Y-46153D01*
X75568Y-47925D02*
X75568Y-48318D01*
X75371Y-48122D02*
X75765Y-48122D01*
X75568Y-48909D02*
X75568Y-49303D01*
X75371Y-49106D02*
X75765Y-49106D01*
X71772Y-46294D02*
X71772Y-46012D01*
X71490Y-46012D01*
X71490Y-46294D01*
X71772Y-46294D01*
X72757Y-46294D02*
X72757Y-46012D01*
X72474Y-46012D01*
X72474Y-46294D01*
X72757Y-46294D01*
X73741Y-48263D02*
X73741Y-47980D01*
X73458Y-47980D01*
X73458Y-48263D01*
X73741Y-48263D01*
X74725Y-46294D02*
X74725Y-46012D01*
X74442Y-46012D01*
X74442Y-46294D01*
X74725Y-46294D01*
X75709Y-46294D02*
X75709Y-46012D01*
X75427Y-46012D01*
X75427Y-46294D01*
X75709Y-46294D01*
X75741Y-38641D02*
X75741Y-38358D01*
X75458Y-38358D01*
X75458Y-38641D01*
X75741Y-38641D01*
X75741Y-39641D02*
X75741Y-39358D01*
X75458Y-39358D01*
X75458Y-39641D01*
X75741Y-39641D01*
X76741Y-38641D02*
X76741Y-38358D01*
X76458Y-38358D01*
X76458Y-38641D01*
X76741Y-38641D01*
X76741Y-39641D02*
X76741Y-39358D01*
X76458Y-39358D01*
X76458Y-39641D01*
X76741Y-39641D01*
X77141Y-47641D02*
X77141Y-47358D01*
X76858Y-47358D01*
X76858Y-47641D01*
X77141Y-47641D01*
X77141Y-48641D02*
X77141Y-48358D01*
X76858Y-48358D01*
X76858Y-48641D01*
X77141Y-48641D01*
X77741Y-38641D02*
X77741Y-38358D01*
X77458Y-38358D01*
X77458Y-38641D01*
X77741Y-38641D01*
X77741Y-39641D02*
X77741Y-39358D01*
X77458Y-39358D01*
X77458Y-39641D01*
X77741Y-39641D01*
X78141Y-47641D02*
X78141Y-47358D01*
X77858Y-47358D01*
X77858Y-47641D01*
X78141Y-47641D01*
X78141Y-48641D02*
X78141Y-48358D01*
X77858Y-48358D01*
X77858Y-48641D01*
X78141Y-48641D01*
X78741Y-38641D02*
X78741Y-38358D01*
X78458Y-38358D01*
X78458Y-38641D01*
X78741Y-38641D01*
X78741Y-39641D02*
X78741Y-39358D01*
X78458Y-39358D01*
X78458Y-39641D01*
X78741Y-39641D01*
X79141Y-47641D02*
X79141Y-47358D01*
X78858Y-47358D01*
X78858Y-47641D01*
X79141Y-47641D01*
X79141Y-48641D02*
X79141Y-48358D01*
X78858Y-48358D01*
X78858Y-48641D01*
X79141Y-48641D01*
X79741Y-38641D02*
X79741Y-38358D01*
X79458Y-38358D01*
X79458Y-38641D01*
X79741Y-38641D01*
X79741Y-39641D02*
X79741Y-39358D01*
X79458Y-39358D01*
X79458Y-39641D01*
X79741Y-39641D01*
G54D13*
X72048Y-51296D02*
X72048Y-50115D01*
X72330Y-50115D01*
X72498Y-50172D01*
X72611Y-50284D01*
X72667Y-50397D01*
X72723Y-50622D01*
X72723Y-50790D01*
X72667Y-51015D01*
X72611Y-51128D01*
X72498Y-51240D01*
X72330Y-51296D01*
X72048Y-51296D01*
X73230Y-51296D02*
X73230Y-50509D01*
X73230Y-50734D02*
X73286Y-50622D01*
X73342Y-50565D01*
X73455Y-50509D01*
X73567Y-50509D01*
X73961Y-51296D02*
X73961Y-50509D01*
X73961Y-50115D02*
X73904Y-50172D01*
X73961Y-50228D01*
X74017Y-50172D01*
X73961Y-50115D01*
X73961Y-50228D01*
X74692Y-51296D02*
X74579Y-51240D01*
X74523Y-51128D01*
X74523Y-50115D01*
X75311Y-51296D02*
X75198Y-51240D01*
X75142Y-51128D01*
X75142Y-50115D01*
X76660Y-51296D02*
X76660Y-50115D01*
X77054Y-50959D01*
X77448Y-50115D01*
X77448Y-51296D01*
X78516Y-51296D02*
X78516Y-50678D01*
X78460Y-50565D01*
X78348Y-50509D01*
X78123Y-50509D01*
X78010Y-50565D01*
X78516Y-51240D02*
X78404Y-51296D01*
X78123Y-51296D01*
X78010Y-51240D01*
X77954Y-51128D01*
X77954Y-51015D01*
X78010Y-50903D01*
X78123Y-50847D01*
X78404Y-50847D01*
X78516Y-50790D01*
X79079Y-50509D02*
X79079Y-51690D01*
X79079Y-50565D02*
X79191Y-50509D01*
X79416Y-50509D01*
X79529Y-50565D01*
X79585Y-50622D01*
X79641Y-50734D01*
X79641Y-51071D01*
X79585Y-51184D01*
X79529Y-51240D01*
X79416Y-51296D01*
X79191Y-51296D01*
X79079Y-51240D01*
X80147Y-51184D02*
X80204Y-51240D01*
X80147Y-51296D01*
X80091Y-51240D01*
X80147Y-51184D01*
X80147Y-51296D01*
X80147Y-50565D02*
X80204Y-50622D01*
X80147Y-50678D01*
X80091Y-50622D01*
X80147Y-50565D01*
X80147Y-50678D01*
X70730Y-53174D02*
X70980Y-53424D01*
X70980Y-53174D02*
X70730Y-53424D01*
X72273Y-52596D02*
X72386Y-52596D01*
X72498Y-52652D01*
X72555Y-52708D01*
X72611Y-52821D01*
X72667Y-53046D01*
X72667Y-53327D01*
X72611Y-53552D01*
X72555Y-53664D01*
X72498Y-53721D01*
X72386Y-53777D01*
X72273Y-53777D01*
X72161Y-53721D01*
X72105Y-53664D01*
X72048Y-53552D01*
X71992Y-53327D01*
X71992Y-53046D01*
X72048Y-52821D01*
X72105Y-52708D01*
X72161Y-52652D01*
X72273Y-52596D01*
X73173Y-53664D02*
X73230Y-53721D01*
X73173Y-53777D01*
X73117Y-53721D01*
X73173Y-53664D01*
X73173Y-53777D01*
X74242Y-52596D02*
X74017Y-52596D01*
X73904Y-52652D01*
X73848Y-52708D01*
X73736Y-52877D01*
X73679Y-53102D01*
X73679Y-53552D01*
X73736Y-53664D01*
X73792Y-53721D01*
X73904Y-53777D01*
X74129Y-53777D01*
X74242Y-53721D01*
X74298Y-53664D01*
X74354Y-53552D01*
X74354Y-53271D01*
X74298Y-53158D01*
X74242Y-53102D01*
X74129Y-53046D01*
X73904Y-53046D01*
X73792Y-53102D01*
X73736Y-53158D01*
X73679Y-53271D01*
X75367Y-52989D02*
X75367Y-53777D01*
X75086Y-52539D02*
X74804Y-53383D01*
X75535Y-53383D01*
X75985Y-53777D02*
X75985Y-52989D01*
X75985Y-53102D02*
X76042Y-53046D01*
X76154Y-52989D01*
X76323Y-52989D01*
X76435Y-53046D01*
X76492Y-53158D01*
X76492Y-53777D01*
X76492Y-53158D02*
X76548Y-53046D01*
X76660Y-52989D01*
X76829Y-52989D01*
X76942Y-53046D01*
X76998Y-53158D01*
X76998Y-53777D01*
X77560Y-53777D02*
X77560Y-52989D01*
X77560Y-53102D02*
X77616Y-53046D01*
X77729Y-52989D01*
X77898Y-52989D01*
X78010Y-53046D01*
X78066Y-53158D01*
X78066Y-53777D01*
X78066Y-53158D02*
X78123Y-53046D01*
X78235Y-52989D01*
X78404Y-52989D01*
X78516Y-53046D01*
X78573Y-53158D01*
X78573Y-53777D01*
X80879Y-52539D02*
X79866Y-54058D01*
X82397Y-52596D02*
X82510Y-52596D01*
X82622Y-52652D01*
X82678Y-52708D01*
X82735Y-52821D01*
X82791Y-53046D01*
X82791Y-53327D01*
X82735Y-53552D01*
X82678Y-53664D01*
X82622Y-53721D01*
X82510Y-53777D01*
X82397Y-53777D01*
X82285Y-53721D01*
X82228Y-53664D01*
X82172Y-53552D01*
X82116Y-53327D01*
X82116Y-53046D01*
X82172Y-52821D01*
X82228Y-52708D01*
X82285Y-52652D01*
X82397Y-52596D01*
X83297Y-53664D02*
X83353Y-53721D01*
X83297Y-53777D01*
X83241Y-53721D01*
X83297Y-53664D01*
X83297Y-53777D01*
X84084Y-52596D02*
X84197Y-52596D01*
X84309Y-52652D01*
X84366Y-52708D01*
X84422Y-52821D01*
X84478Y-53046D01*
X84478Y-53327D01*
X84422Y-53552D01*
X84366Y-53664D01*
X84309Y-53721D01*
X84197Y-53777D01*
X84084Y-53777D01*
X83972Y-53721D01*
X83916Y-53664D01*
X83859Y-53552D01*
X83803Y-53327D01*
X83803Y-53046D01*
X83859Y-52821D01*
X83916Y-52708D01*
X83972Y-52652D01*
X84084Y-52596D01*
X84928Y-52708D02*
X84984Y-52652D01*
X85097Y-52596D01*
X85378Y-52596D01*
X85491Y-52652D01*
X85547Y-52708D01*
X85603Y-52821D01*
X85603Y-52933D01*
X85547Y-53102D01*
X84872Y-53777D01*
X85603Y-53777D01*
X86672Y-52596D02*
X86109Y-52596D01*
X86053Y-53158D01*
X86109Y-53102D01*
X86222Y-53046D01*
X86503Y-53046D01*
X86615Y-53102D01*
X86672Y-53158D01*
X86728Y-53271D01*
X86728Y-53552D01*
X86672Y-53664D01*
X86615Y-53721D01*
X86503Y-53777D01*
X86222Y-53777D01*
X86109Y-53721D01*
X86053Y-53664D01*
X87178Y-52596D02*
X87178Y-52821D01*
X87628Y-52596D02*
X87628Y-52821D01*
X89371Y-54227D02*
X89315Y-54170D01*
X89203Y-54002D01*
X89146Y-53889D01*
X89090Y-53721D01*
X89034Y-53439D01*
X89034Y-53214D01*
X89090Y-52933D01*
X89146Y-52764D01*
X89203Y-52652D01*
X89315Y-52483D01*
X89371Y-52427D01*
X89765Y-52708D02*
X89821Y-52652D01*
X89934Y-52596D01*
X90215Y-52596D01*
X90327Y-52652D01*
X90384Y-52708D01*
X90440Y-52821D01*
X90440Y-52933D01*
X90384Y-53102D01*
X89709Y-53777D01*
X90440Y-53777D01*
X91565Y-53777D02*
X90890Y-53777D01*
X91227Y-53777D02*
X91227Y-52596D01*
X91115Y-52764D01*
X91002Y-52877D01*
X90890Y-52933D01*
X92971Y-53777D02*
X92971Y-52596D01*
X93477Y-53777D02*
X93477Y-53158D01*
X93421Y-53046D01*
X93308Y-52989D01*
X93140Y-52989D01*
X93027Y-53046D01*
X92971Y-53102D01*
X94208Y-53777D02*
X94096Y-53721D01*
X94039Y-53664D01*
X93983Y-53552D01*
X93983Y-53214D01*
X94039Y-53102D01*
X94096Y-53046D01*
X94208Y-52989D01*
X94377Y-52989D01*
X94489Y-53046D01*
X94546Y-53102D01*
X94602Y-53214D01*
X94602Y-53552D01*
X94546Y-53664D01*
X94489Y-53721D01*
X94377Y-53777D01*
X94208Y-53777D01*
X95277Y-53777D02*
X95164Y-53721D01*
X95108Y-53608D01*
X95108Y-52596D01*
X96177Y-53721D02*
X96064Y-53777D01*
X95839Y-53777D01*
X95727Y-53721D01*
X95670Y-53608D01*
X95670Y-53158D01*
X95727Y-53046D01*
X95839Y-52989D01*
X96064Y-52989D01*
X96177Y-53046D01*
X96233Y-53158D01*
X96233Y-53271D01*
X95670Y-53383D01*
X96683Y-53721D02*
X96795Y-53777D01*
X97020Y-53777D01*
X97133Y-53721D01*
X97189Y-53608D01*
X97189Y-53552D01*
X97133Y-53439D01*
X97020Y-53383D01*
X96852Y-53383D01*
X96739Y-53327D01*
X96683Y-53214D01*
X96683Y-53158D01*
X96739Y-53046D01*
X96852Y-52989D01*
X97020Y-52989D01*
X97133Y-53046D01*
X97583Y-54227D02*
X97639Y-54170D01*
X97751Y-54002D01*
X97808Y-53889D01*
X97864Y-53721D01*
X97920Y-53439D01*
X97920Y-53214D01*
X97864Y-52933D01*
X97808Y-52764D01*
X97751Y-52652D01*
X97639Y-52483D01*
X97583Y-52427D01*
G54D12*
X70980Y-54858D02*
G75*
G03X70980Y-54858I-160J0D01*
G74*
G01*
G54D13*
X72273Y-54155D02*
X72386Y-54155D01*
X72498Y-54211D01*
X72555Y-54267D01*
X72611Y-54380D01*
X72667Y-54605D01*
X72667Y-54886D01*
X72611Y-55111D01*
X72555Y-55223D01*
X72498Y-55280D01*
X72386Y-55336D01*
X72273Y-55336D01*
X72161Y-55280D01*
X72105Y-55223D01*
X72048Y-55111D01*
X71992Y-54886D01*
X71992Y-54605D01*
X72048Y-54380D01*
X72105Y-54267D01*
X72161Y-54211D01*
X72273Y-54155D01*
X73173Y-55223D02*
X73230Y-55280D01*
X73173Y-55336D01*
X73117Y-55280D01*
X73173Y-55223D01*
X73173Y-55336D01*
X73904Y-54661D02*
X73792Y-54605D01*
X73736Y-54548D01*
X73679Y-54436D01*
X73679Y-54380D01*
X73736Y-54267D01*
X73792Y-54211D01*
X73904Y-54155D01*
X74129Y-54155D01*
X74242Y-54211D01*
X74298Y-54267D01*
X74354Y-54380D01*
X74354Y-54436D01*
X74298Y-54548D01*
X74242Y-54605D01*
X74129Y-54661D01*
X73904Y-54661D01*
X73792Y-54717D01*
X73736Y-54773D01*
X73679Y-54886D01*
X73679Y-55111D01*
X73736Y-55223D01*
X73792Y-55280D01*
X73904Y-55336D01*
X74129Y-55336D01*
X74242Y-55280D01*
X74298Y-55223D01*
X74354Y-55111D01*
X74354Y-54886D01*
X74298Y-54773D01*
X74242Y-54717D01*
X74129Y-54661D01*
X75479Y-55336D02*
X74804Y-55336D01*
X75142Y-55336D02*
X75142Y-54155D01*
X75029Y-54323D01*
X74917Y-54436D01*
X74804Y-54492D01*
X75985Y-55336D02*
X75985Y-54548D01*
X75985Y-54661D02*
X76042Y-54605D01*
X76154Y-54548D01*
X76323Y-54548D01*
X76435Y-54605D01*
X76492Y-54717D01*
X76492Y-55336D01*
X76492Y-54717D02*
X76548Y-54605D01*
X76660Y-54548D01*
X76829Y-54548D01*
X76942Y-54605D01*
X76998Y-54717D01*
X76998Y-55336D01*
X77560Y-55336D02*
X77560Y-54548D01*
X77560Y-54661D02*
X77616Y-54605D01*
X77729Y-54548D01*
X77898Y-54548D01*
X78010Y-54605D01*
X78066Y-54717D01*
X78066Y-55336D01*
X78066Y-54717D02*
X78123Y-54605D01*
X78235Y-54548D01*
X78404Y-54548D01*
X78516Y-54605D01*
X78573Y-54717D01*
X78573Y-55336D01*
X80879Y-54098D02*
X79866Y-55617D01*
X82397Y-54155D02*
X82510Y-54155D01*
X82622Y-54211D01*
X82678Y-54267D01*
X82735Y-54380D01*
X82791Y-54605D01*
X82791Y-54886D01*
X82735Y-55111D01*
X82678Y-55223D01*
X82622Y-55280D01*
X82510Y-55336D01*
X82397Y-55336D01*
X82285Y-55280D01*
X82228Y-55223D01*
X82172Y-55111D01*
X82116Y-54886D01*
X82116Y-54605D01*
X82172Y-54380D01*
X82228Y-54267D01*
X82285Y-54211D01*
X82397Y-54155D01*
X83297Y-55223D02*
X83353Y-55280D01*
X83297Y-55336D01*
X83241Y-55280D01*
X83297Y-55223D01*
X83297Y-55336D01*
X84084Y-54155D02*
X84197Y-54155D01*
X84309Y-54211D01*
X84366Y-54267D01*
X84422Y-54380D01*
X84478Y-54605D01*
X84478Y-54886D01*
X84422Y-55111D01*
X84366Y-55223D01*
X84309Y-55280D01*
X84197Y-55336D01*
X84084Y-55336D01*
X83972Y-55280D01*
X83916Y-55223D01*
X83859Y-55111D01*
X83803Y-54886D01*
X83803Y-54605D01*
X83859Y-54380D01*
X83916Y-54267D01*
X83972Y-54211D01*
X84084Y-54155D01*
X84872Y-54155D02*
X85603Y-54155D01*
X85209Y-54605D01*
X85378Y-54605D01*
X85491Y-54661D01*
X85547Y-54717D01*
X85603Y-54830D01*
X85603Y-55111D01*
X85547Y-55223D01*
X85491Y-55280D01*
X85378Y-55336D01*
X85041Y-55336D01*
X84928Y-55280D01*
X84872Y-55223D01*
X86053Y-54267D02*
X86109Y-54211D01*
X86222Y-54155D01*
X86503Y-54155D01*
X86615Y-54211D01*
X86672Y-54267D01*
X86728Y-54380D01*
X86728Y-54492D01*
X86672Y-54661D01*
X85997Y-55336D01*
X86728Y-55336D01*
X87178Y-54155D02*
X87178Y-54380D01*
X87628Y-54155D02*
X87628Y-54380D01*
X89371Y-55786D02*
X89315Y-55730D01*
X89203Y-55561D01*
X89146Y-55448D01*
X89090Y-55280D01*
X89034Y-54998D01*
X89034Y-54773D01*
X89090Y-54492D01*
X89146Y-54323D01*
X89203Y-54211D01*
X89315Y-54042D01*
X89371Y-53986D01*
X90440Y-55336D02*
X89765Y-55336D01*
X90102Y-55336D02*
X90102Y-54155D01*
X89990Y-54323D01*
X89877Y-54436D01*
X89765Y-54492D01*
X90890Y-54267D02*
X90946Y-54211D01*
X91059Y-54155D01*
X91340Y-54155D01*
X91452Y-54211D01*
X91508Y-54267D01*
X91565Y-54380D01*
X91565Y-54492D01*
X91508Y-54661D01*
X90834Y-55336D01*
X91565Y-55336D01*
X92971Y-55336D02*
X92971Y-54155D01*
X93477Y-55336D02*
X93477Y-54717D01*
X93421Y-54605D01*
X93308Y-54548D01*
X93140Y-54548D01*
X93027Y-54605D01*
X92971Y-54661D01*
X94208Y-55336D02*
X94096Y-55280D01*
X94039Y-55223D01*
X93983Y-55111D01*
X93983Y-54773D01*
X94039Y-54661D01*
X94096Y-54605D01*
X94208Y-54548D01*
X94377Y-54548D01*
X94489Y-54605D01*
X94546Y-54661D01*
X94602Y-54773D01*
X94602Y-55111D01*
X94546Y-55223D01*
X94489Y-55280D01*
X94377Y-55336D01*
X94208Y-55336D01*
X95277Y-55336D02*
X95164Y-55280D01*
X95108Y-55167D01*
X95108Y-54155D01*
X96177Y-55280D02*
X96064Y-55336D01*
X95839Y-55336D01*
X95727Y-55280D01*
X95670Y-55167D01*
X95670Y-54717D01*
X95727Y-54605D01*
X95839Y-54548D01*
X96064Y-54548D01*
X96177Y-54605D01*
X96233Y-54717D01*
X96233Y-54830D01*
X95670Y-54942D01*
X96683Y-55280D02*
X96795Y-55336D01*
X97020Y-55336D01*
X97133Y-55280D01*
X97189Y-55167D01*
X97189Y-55111D01*
X97133Y-54998D01*
X97020Y-54942D01*
X96852Y-54942D01*
X96739Y-54886D01*
X96683Y-54773D01*
X96683Y-54717D01*
X96739Y-54605D01*
X96852Y-54548D01*
X97020Y-54548D01*
X97133Y-54605D01*
X97583Y-55786D02*
X97639Y-55730D01*
X97751Y-55561D01*
X97808Y-55448D01*
X97864Y-55280D01*
X97920Y-54998D01*
X97920Y-54773D01*
X97864Y-54492D01*
X97808Y-54323D01*
X97751Y-54211D01*
X97639Y-54042D01*
X97583Y-53986D01*
X70783Y-56220D02*
X70783Y-56614D01*
X70586Y-56417D02*
X70980Y-56417D01*
X72667Y-56895D02*
X71992Y-56895D01*
X72330Y-56895D02*
X72330Y-55714D01*
X72217Y-55883D01*
X72105Y-55995D01*
X71992Y-56051D01*
X73173Y-56782D02*
X73230Y-56839D01*
X73173Y-56895D01*
X73117Y-56839D01*
X73173Y-56782D01*
X73173Y-56895D01*
X73961Y-55714D02*
X74073Y-55714D01*
X74186Y-55770D01*
X74242Y-55826D01*
X74298Y-55939D01*
X74354Y-56164D01*
X74354Y-56445D01*
X74298Y-56670D01*
X74242Y-56782D01*
X74186Y-56839D01*
X74073Y-56895D01*
X73961Y-56895D01*
X73848Y-56839D01*
X73792Y-56782D01*
X73736Y-56670D01*
X73679Y-56445D01*
X73679Y-56164D01*
X73736Y-55939D01*
X73792Y-55826D01*
X73848Y-55770D01*
X73961Y-55714D01*
X75086Y-55714D02*
X75198Y-55714D01*
X75311Y-55770D01*
X75367Y-55826D01*
X75423Y-55939D01*
X75479Y-56164D01*
X75479Y-56445D01*
X75423Y-56670D01*
X75367Y-56782D01*
X75311Y-56839D01*
X75198Y-56895D01*
X75086Y-56895D01*
X74973Y-56839D01*
X74917Y-56782D01*
X74861Y-56670D01*
X74804Y-56445D01*
X74804Y-56164D01*
X74861Y-55939D01*
X74917Y-55826D01*
X74973Y-55770D01*
X75086Y-55714D01*
X75985Y-56895D02*
X75985Y-56107D01*
X75985Y-56220D02*
X76042Y-56164D01*
X76154Y-56107D01*
X76323Y-56107D01*
X76435Y-56164D01*
X76492Y-56276D01*
X76492Y-56895D01*
X76492Y-56276D02*
X76548Y-56164D01*
X76660Y-56107D01*
X76829Y-56107D01*
X76942Y-56164D01*
X76998Y-56276D01*
X76998Y-56895D01*
X77560Y-56895D02*
X77560Y-56107D01*
X77560Y-56220D02*
X77616Y-56164D01*
X77729Y-56107D01*
X77898Y-56107D01*
X78010Y-56164D01*
X78066Y-56276D01*
X78066Y-56895D01*
X78066Y-56276D02*
X78123Y-56164D01*
X78235Y-56107D01*
X78404Y-56107D01*
X78516Y-56164D01*
X78573Y-56276D01*
X78573Y-56895D01*
X80879Y-55658D02*
X79866Y-57176D01*
X82397Y-55714D02*
X82510Y-55714D01*
X82622Y-55770D01*
X82678Y-55826D01*
X82735Y-55939D01*
X82791Y-56164D01*
X82791Y-56445D01*
X82735Y-56670D01*
X82678Y-56782D01*
X82622Y-56839D01*
X82510Y-56895D01*
X82397Y-56895D01*
X82285Y-56839D01*
X82228Y-56782D01*
X82172Y-56670D01*
X82116Y-56445D01*
X82116Y-56164D01*
X82172Y-55939D01*
X82228Y-55826D01*
X82285Y-55770D01*
X82397Y-55714D01*
X83297Y-56782D02*
X83353Y-56839D01*
X83297Y-56895D01*
X83241Y-56839D01*
X83297Y-56782D01*
X83297Y-56895D01*
X84084Y-55714D02*
X84197Y-55714D01*
X84309Y-55770D01*
X84366Y-55826D01*
X84422Y-55939D01*
X84478Y-56164D01*
X84478Y-56445D01*
X84422Y-56670D01*
X84366Y-56782D01*
X84309Y-56839D01*
X84197Y-56895D01*
X84084Y-56895D01*
X83972Y-56839D01*
X83916Y-56782D01*
X83859Y-56670D01*
X83803Y-56445D01*
X83803Y-56164D01*
X83859Y-55939D01*
X83916Y-55826D01*
X83972Y-55770D01*
X84084Y-55714D01*
X84872Y-55714D02*
X85603Y-55714D01*
X85209Y-56164D01*
X85378Y-56164D01*
X85491Y-56220D01*
X85547Y-56276D01*
X85603Y-56389D01*
X85603Y-56670D01*
X85547Y-56782D01*
X85491Y-56839D01*
X85378Y-56895D01*
X85041Y-56895D01*
X84928Y-56839D01*
X84872Y-56782D01*
X86165Y-56895D02*
X86390Y-56895D01*
X86503Y-56839D01*
X86559Y-56782D01*
X86672Y-56614D01*
X86728Y-56389D01*
X86728Y-55939D01*
X86672Y-55826D01*
X86615Y-55770D01*
X86503Y-55714D01*
X86278Y-55714D01*
X86165Y-55770D01*
X86109Y-55826D01*
X86053Y-55939D01*
X86053Y-56220D01*
X86109Y-56332D01*
X86165Y-56389D01*
X86278Y-56445D01*
X86503Y-56445D01*
X86615Y-56389D01*
X86672Y-56332D01*
X86728Y-56220D01*
X87178Y-55714D02*
X87178Y-55939D01*
X87628Y-55714D02*
X87628Y-55939D01*
X89371Y-57345D02*
X89315Y-57289D01*
X89203Y-57120D01*
X89146Y-57007D01*
X89090Y-56839D01*
X89034Y-56557D01*
X89034Y-56332D01*
X89090Y-56051D01*
X89146Y-55883D01*
X89203Y-55770D01*
X89315Y-55601D01*
X89371Y-55545D01*
X90384Y-55714D02*
X89821Y-55714D01*
X89765Y-56276D01*
X89821Y-56220D01*
X89934Y-56164D01*
X90215Y-56164D01*
X90327Y-56220D01*
X90384Y-56276D01*
X90440Y-56389D01*
X90440Y-56670D01*
X90384Y-56782D01*
X90327Y-56839D01*
X90215Y-56895D01*
X89934Y-56895D01*
X89821Y-56839D01*
X89765Y-56782D01*
X91846Y-56895D02*
X91846Y-55714D01*
X92352Y-56895D02*
X92352Y-56276D01*
X92296Y-56164D01*
X92183Y-56107D01*
X92015Y-56107D01*
X91902Y-56164D01*
X91846Y-56220D01*
X93083Y-56895D02*
X92971Y-56839D01*
X92915Y-56782D01*
X92858Y-56670D01*
X92858Y-56332D01*
X92915Y-56220D01*
X92971Y-56164D01*
X93083Y-56107D01*
X93252Y-56107D01*
X93365Y-56164D01*
X93421Y-56220D01*
X93477Y-56332D01*
X93477Y-56670D01*
X93421Y-56782D01*
X93365Y-56839D01*
X93252Y-56895D01*
X93083Y-56895D01*
X94152Y-56895D02*
X94039Y-56839D01*
X93983Y-56726D01*
X93983Y-55714D01*
X95052Y-56839D02*
X94939Y-56895D01*
X94714Y-56895D01*
X94602Y-56839D01*
X94546Y-56726D01*
X94546Y-56276D01*
X94602Y-56164D01*
X94714Y-56107D01*
X94939Y-56107D01*
X95052Y-56164D01*
X95108Y-56276D01*
X95108Y-56389D01*
X94546Y-56501D01*
X95558Y-56839D02*
X95670Y-56895D01*
X95895Y-56895D01*
X96008Y-56839D01*
X96064Y-56726D01*
X96064Y-56670D01*
X96008Y-56557D01*
X95895Y-56501D01*
X95727Y-56501D01*
X95614Y-56445D01*
X95558Y-56332D01*
X95558Y-56276D01*
X95614Y-56164D01*
X95727Y-56107D01*
X95895Y-56107D01*
X96008Y-56164D01*
X96458Y-57345D02*
X96514Y-57289D01*
X96627Y-57120D01*
X96683Y-57007D01*
X96739Y-56839D01*
X96795Y-56557D01*
X96795Y-56332D01*
X96739Y-56051D01*
X96683Y-55883D01*
X96627Y-55770D01*
X96514Y-55601D01*
X96458Y-55545D01*
G54D12*
X70921Y-58117D02*
X70921Y-57834D01*
X70638Y-57834D01*
X70638Y-58117D01*
X70921Y-58117D01*
G54D13*
X72667Y-58454D02*
X71992Y-58454D01*
X72330Y-58454D02*
X72330Y-57273D01*
X72217Y-57442D01*
X72105Y-57554D01*
X71992Y-57610D01*
X73173Y-58341D02*
X73230Y-58398D01*
X73173Y-58454D01*
X73117Y-58398D01*
X73173Y-58341D01*
X73173Y-58454D01*
X73961Y-57273D02*
X74073Y-57273D01*
X74186Y-57329D01*
X74242Y-57385D01*
X74298Y-57498D01*
X74354Y-57723D01*
X74354Y-58004D01*
X74298Y-58229D01*
X74242Y-58341D01*
X74186Y-58398D01*
X74073Y-58454D01*
X73961Y-58454D01*
X73848Y-58398D01*
X73792Y-58341D01*
X73736Y-58229D01*
X73679Y-58004D01*
X73679Y-57723D01*
X73736Y-57498D01*
X73792Y-57385D01*
X73848Y-57329D01*
X73961Y-57273D01*
X74804Y-57385D02*
X74861Y-57329D01*
X74973Y-57273D01*
X75254Y-57273D01*
X75367Y-57329D01*
X75423Y-57385D01*
X75479Y-57498D01*
X75479Y-57610D01*
X75423Y-57779D01*
X74748Y-58454D01*
X75479Y-58454D01*
X75985Y-58454D02*
X75985Y-57667D01*
X75985Y-57779D02*
X76042Y-57723D01*
X76154Y-57667D01*
X76323Y-57667D01*
X76435Y-57723D01*
X76492Y-57835D01*
X76492Y-58454D01*
X76492Y-57835D02*
X76548Y-57723D01*
X76660Y-57667D01*
X76829Y-57667D01*
X76942Y-57723D01*
X76998Y-57835D01*
X76998Y-58454D01*
X77560Y-58454D02*
X77560Y-57667D01*
X77560Y-57779D02*
X77616Y-57723D01*
X77729Y-57667D01*
X77898Y-57667D01*
X78010Y-57723D01*
X78066Y-57835D01*
X78066Y-58454D01*
X78066Y-57835D02*
X78123Y-57723D01*
X78235Y-57667D01*
X78404Y-57667D01*
X78516Y-57723D01*
X78573Y-57835D01*
X78573Y-58454D01*
X80879Y-57217D02*
X79866Y-58735D01*
X82397Y-57273D02*
X82510Y-57273D01*
X82622Y-57329D01*
X82678Y-57385D01*
X82735Y-57498D01*
X82791Y-57723D01*
X82791Y-58004D01*
X82735Y-58229D01*
X82678Y-58341D01*
X82622Y-58398D01*
X82510Y-58454D01*
X82397Y-58454D01*
X82285Y-58398D01*
X82228Y-58341D01*
X82172Y-58229D01*
X82116Y-58004D01*
X82116Y-57723D01*
X82172Y-57498D01*
X82228Y-57385D01*
X82285Y-57329D01*
X82397Y-57273D01*
X83297Y-58341D02*
X83353Y-58398D01*
X83297Y-58454D01*
X83241Y-58398D01*
X83297Y-58341D01*
X83297Y-58454D01*
X84084Y-57273D02*
X84197Y-57273D01*
X84309Y-57329D01*
X84366Y-57385D01*
X84422Y-57498D01*
X84478Y-57723D01*
X84478Y-58004D01*
X84422Y-58229D01*
X84366Y-58341D01*
X84309Y-58398D01*
X84197Y-58454D01*
X84084Y-58454D01*
X83972Y-58398D01*
X83916Y-58341D01*
X83859Y-58229D01*
X83803Y-58004D01*
X83803Y-57723D01*
X83859Y-57498D01*
X83916Y-57385D01*
X83972Y-57329D01*
X84084Y-57273D01*
X85491Y-57667D02*
X85491Y-58454D01*
X85209Y-57217D02*
X84928Y-58060D01*
X85659Y-58060D01*
X86334Y-57273D02*
X86447Y-57273D01*
X86559Y-57329D01*
X86615Y-57385D01*
X86672Y-57498D01*
X86728Y-57723D01*
X86728Y-58004D01*
X86672Y-58229D01*
X86615Y-58341D01*
X86559Y-58398D01*
X86447Y-58454D01*
X86334Y-58454D01*
X86222Y-58398D01*
X86165Y-58341D01*
X86109Y-58229D01*
X86053Y-58004D01*
X86053Y-57723D01*
X86109Y-57498D01*
X86165Y-57385D01*
X86222Y-57329D01*
X86334Y-57273D01*
X87178Y-57273D02*
X87178Y-57498D01*
X87628Y-57273D02*
X87628Y-57498D01*
X89371Y-58904D02*
X89315Y-58848D01*
X89203Y-58679D01*
X89146Y-58566D01*
X89090Y-58398D01*
X89034Y-58116D01*
X89034Y-57892D01*
X89090Y-57610D01*
X89146Y-57442D01*
X89203Y-57329D01*
X89315Y-57160D01*
X89371Y-57104D01*
X89765Y-57385D02*
X89821Y-57329D01*
X89934Y-57273D01*
X90215Y-57273D01*
X90327Y-57329D01*
X90384Y-57385D01*
X90440Y-57498D01*
X90440Y-57610D01*
X90384Y-57779D01*
X89709Y-58454D01*
X90440Y-58454D01*
X91565Y-58454D02*
X90890Y-58454D01*
X91227Y-58454D02*
X91227Y-57273D01*
X91115Y-57442D01*
X91002Y-57554D01*
X90890Y-57610D01*
X92971Y-58454D02*
X92971Y-57273D01*
X93477Y-58454D02*
X93477Y-57835D01*
X93421Y-57723D01*
X93308Y-57667D01*
X93140Y-57667D01*
X93027Y-57723D01*
X92971Y-57779D01*
X94208Y-58454D02*
X94096Y-58398D01*
X94039Y-58341D01*
X93983Y-58229D01*
X93983Y-57892D01*
X94039Y-57779D01*
X94096Y-57723D01*
X94208Y-57667D01*
X94377Y-57667D01*
X94489Y-57723D01*
X94546Y-57779D01*
X94602Y-57892D01*
X94602Y-58229D01*
X94546Y-58341D01*
X94489Y-58398D01*
X94377Y-58454D01*
X94208Y-58454D01*
X95277Y-58454D02*
X95164Y-58398D01*
X95108Y-58285D01*
X95108Y-57273D01*
X96177Y-58398D02*
X96064Y-58454D01*
X95839Y-58454D01*
X95727Y-58398D01*
X95670Y-58285D01*
X95670Y-57835D01*
X95727Y-57723D01*
X95839Y-57667D01*
X96064Y-57667D01*
X96177Y-57723D01*
X96233Y-57835D01*
X96233Y-57948D01*
X95670Y-58060D01*
X96683Y-58398D02*
X96795Y-58454D01*
X97020Y-58454D01*
X97133Y-58398D01*
X97189Y-58285D01*
X97189Y-58229D01*
X97133Y-58116D01*
X97020Y-58060D01*
X96852Y-58060D01*
X96739Y-58004D01*
X96683Y-57892D01*
X96683Y-57835D01*
X96739Y-57723D01*
X96852Y-57667D01*
X97020Y-57667D01*
X97133Y-57723D01*
X97583Y-58904D02*
X97639Y-58848D01*
X97751Y-58679D01*
X97808Y-58566D01*
X97864Y-58398D01*
X97920Y-58116D01*
X97920Y-57892D01*
X97864Y-57610D01*
X97808Y-57442D01*
X97751Y-57329D01*
X97639Y-57160D01*
X97583Y-57104D01*
M02*
