G04 (created by PCBNEW (2013-04-19 BZR 4011)-stable) date 6/24/2013 11:27:29 PM*
%MOIN*%
G04 Gerber Fmt 3.4, Leading zero omitted, Abs format*
%FSLAX34Y34*%
G01*
G70*
G90*
G04 APERTURE LIST*
%ADD10C,0.006*%
%ADD11R,0.055X0.055*%
%ADD12C,0.055*%
%ADD13R,0.06X0.06*%
%ADD14C,0.06*%
%ADD15C,0.0393701*%
%ADD16R,0.19685X0.0984252*%
%ADD17C,0.035*%
%ADD18C,0.01*%
%ADD19C,0.02*%
G04 APERTURE END LIST*
G54D10*
G54D11*
X71850Y-42700D03*
G54D12*
X72850Y-42700D03*
X73850Y-42700D03*
X74850Y-42700D03*
G54D13*
X75600Y-39500D03*
G54D14*
X75600Y-38500D03*
X76600Y-39500D03*
X76600Y-38500D03*
X77600Y-39500D03*
X77600Y-38500D03*
X78600Y-39500D03*
X78600Y-38500D03*
X79600Y-39500D03*
X79600Y-38500D03*
G54D13*
X79000Y-47500D03*
G54D14*
X79000Y-48500D03*
X78000Y-47500D03*
X78000Y-48500D03*
X77000Y-47500D03*
X77000Y-48500D03*
G54D12*
X72000Y-38500D03*
X74000Y-38500D03*
X72000Y-41500D03*
X74000Y-41500D03*
G54D14*
X71631Y-46153D03*
X72615Y-46153D03*
X74584Y-46153D03*
X75568Y-46153D03*
X73600Y-48122D03*
G54D15*
X71631Y-48122D03*
X75568Y-48122D03*
X75568Y-49106D03*
X71631Y-49106D03*
X73600Y-46153D03*
G54D12*
X80750Y-40500D03*
X80750Y-38500D03*
X83750Y-40500D03*
X83750Y-38500D03*
G54D16*
X83300Y-47429D03*
X83300Y-39456D03*
G54D17*
X78100Y-42550D03*
X80550Y-41800D03*
X79000Y-42800D03*
X76250Y-44900D03*
X77150Y-43200D03*
X78100Y-43600D03*
X81700Y-48500D03*
X81700Y-47100D03*
X83700Y-48900D03*
X83300Y-42900D03*
X83200Y-44600D03*
X82400Y-45900D03*
X77200Y-46200D03*
X74900Y-41600D03*
X71500Y-43700D03*
X77600Y-40300D03*
X76500Y-41000D03*
X77650Y-44000D03*
X77500Y-41950D03*
X80500Y-41050D03*
X78600Y-41950D03*
G54D18*
X78600Y-38500D02*
X78600Y-38650D01*
X78100Y-39150D02*
X78100Y-42550D01*
X78600Y-38650D02*
X78100Y-39150D01*
X79000Y-43350D02*
X79000Y-47500D01*
X80550Y-41800D02*
X79000Y-43350D01*
X78000Y-48500D02*
X78500Y-48100D01*
X78500Y-43700D02*
X79000Y-42800D01*
X78500Y-48100D02*
X78500Y-43700D01*
X76250Y-44900D02*
X76250Y-44100D01*
X76250Y-44100D02*
X77150Y-43200D01*
X78000Y-43700D02*
X78000Y-47500D01*
X78100Y-43600D02*
X78000Y-43700D01*
X81700Y-48500D02*
X81700Y-47100D01*
X83200Y-45100D02*
X83200Y-44600D01*
X82400Y-45900D02*
X83200Y-45100D01*
X72000Y-41500D02*
X71300Y-42200D01*
X71300Y-43500D02*
X71500Y-43700D01*
X71300Y-42200D02*
X71300Y-43500D01*
X77200Y-40300D02*
X77600Y-40300D01*
X76500Y-41000D02*
X77200Y-40300D01*
G54D19*
X83259Y-47424D02*
X83259Y-48140D01*
X79700Y-49200D02*
X79000Y-48500D01*
X82200Y-49200D02*
X79700Y-49200D01*
X83259Y-48140D02*
X82200Y-49200D01*
X77500Y-42350D02*
X77500Y-41950D01*
X77650Y-42500D02*
X77500Y-42350D01*
X77650Y-44000D02*
X77650Y-42500D01*
X75600Y-39500D02*
X75800Y-41500D01*
X75800Y-41500D02*
X77450Y-41950D01*
X77450Y-41950D02*
X77500Y-41950D01*
X80500Y-41050D02*
X79600Y-41950D01*
X79600Y-41950D02*
X78600Y-41950D01*
X75600Y-38500D02*
X75600Y-38700D01*
X75600Y-38700D02*
X74800Y-39500D01*
X73850Y-42700D02*
X73300Y-42150D01*
X73300Y-42150D02*
X73300Y-41000D01*
X73300Y-41000D02*
X74800Y-39500D01*
X74800Y-39500D02*
X75600Y-39500D01*
G54D10*
G36*
X77800Y-41648D02*
X77741Y-41589D01*
X77584Y-41525D01*
X77415Y-41524D01*
X77336Y-41557D01*
X76123Y-41225D01*
X76004Y-40027D01*
X76041Y-40012D01*
X76111Y-39941D01*
X76149Y-39849D01*
X76149Y-39827D01*
X76288Y-39965D01*
X76490Y-40049D01*
X76708Y-40050D01*
X76911Y-39966D01*
X77065Y-39811D01*
X77099Y-39730D01*
X77133Y-39811D01*
X77288Y-39965D01*
X77490Y-40049D01*
X77708Y-40050D01*
X77800Y-40012D01*
X77800Y-41648D01*
X77800Y-41648D01*
G37*
G54D18*
X77800Y-41648D02*
X77741Y-41589D01*
X77584Y-41525D01*
X77415Y-41524D01*
X77336Y-41557D01*
X76123Y-41225D01*
X76004Y-40027D01*
X76041Y-40012D01*
X76111Y-39941D01*
X76149Y-39849D01*
X76149Y-39827D01*
X76288Y-39965D01*
X76490Y-40049D01*
X76708Y-40050D01*
X76911Y-39966D01*
X77065Y-39811D01*
X77099Y-39730D01*
X77133Y-39811D01*
X77288Y-39965D01*
X77490Y-40049D01*
X77708Y-40050D01*
X77800Y-40012D01*
X77800Y-41648D01*
G54D10*
G36*
X79235Y-49230D02*
X77315Y-49230D01*
X77315Y-48885D01*
X77000Y-48570D01*
X76929Y-48641D01*
X76929Y-48500D01*
X76614Y-48184D01*
X76518Y-48212D01*
X76445Y-48418D01*
X76456Y-48636D01*
X76518Y-48787D01*
X76614Y-48815D01*
X76929Y-48500D01*
X76929Y-48641D01*
X76684Y-48885D01*
X76712Y-48981D01*
X76918Y-49054D01*
X77136Y-49043D01*
X77287Y-48981D01*
X77315Y-48885D01*
X77315Y-49230D01*
X76000Y-49230D01*
X76015Y-49195D01*
X76015Y-49017D01*
X76015Y-48033D01*
X75947Y-47869D01*
X75821Y-47743D01*
X75657Y-47675D01*
X75480Y-47675D01*
X75315Y-47743D01*
X75189Y-47868D01*
X75121Y-48032D01*
X75121Y-48210D01*
X75189Y-48374D01*
X75315Y-48500D01*
X75479Y-48568D01*
X75656Y-48568D01*
X75821Y-48501D01*
X75947Y-48375D01*
X76015Y-48211D01*
X76015Y-48033D01*
X76015Y-49017D01*
X75947Y-48853D01*
X75821Y-48727D01*
X75657Y-48659D01*
X75480Y-48659D01*
X75315Y-48727D01*
X75189Y-48852D01*
X75121Y-49017D01*
X75121Y-49194D01*
X75136Y-49230D01*
X74154Y-49230D01*
X74154Y-48203D01*
X74143Y-47985D01*
X74081Y-47834D01*
X73985Y-47806D01*
X73915Y-47877D01*
X73915Y-47736D01*
X73887Y-47640D01*
X73681Y-47567D01*
X73463Y-47578D01*
X73312Y-47640D01*
X73284Y-47736D01*
X73600Y-48051D01*
X73915Y-47736D01*
X73915Y-47877D01*
X73670Y-48122D01*
X73985Y-48437D01*
X74081Y-48409D01*
X74154Y-48203D01*
X74154Y-49230D01*
X73915Y-49230D01*
X73915Y-48507D01*
X73600Y-48192D01*
X73529Y-48263D01*
X73529Y-48122D01*
X73214Y-47806D01*
X73118Y-47834D01*
X73045Y-48040D01*
X73056Y-48258D01*
X73118Y-48409D01*
X73214Y-48437D01*
X73529Y-48122D01*
X73529Y-48263D01*
X73284Y-48507D01*
X73312Y-48603D01*
X73518Y-48676D01*
X73736Y-48665D01*
X73887Y-48603D01*
X73915Y-48507D01*
X73915Y-49230D01*
X72063Y-49230D01*
X72078Y-49195D01*
X72078Y-49017D01*
X72010Y-48853D01*
X71884Y-48727D01*
X71720Y-48659D01*
X71543Y-48659D01*
X71378Y-48727D01*
X71269Y-48836D01*
X71269Y-48392D01*
X71378Y-48500D01*
X71542Y-48568D01*
X71719Y-48568D01*
X71884Y-48501D01*
X72010Y-48375D01*
X72078Y-48211D01*
X72078Y-48033D01*
X72010Y-47869D01*
X71884Y-47743D01*
X71720Y-47675D01*
X71543Y-47675D01*
X71378Y-47743D01*
X71269Y-47851D01*
X71269Y-46569D01*
X71319Y-46619D01*
X71521Y-46703D01*
X71740Y-46703D01*
X71942Y-46620D01*
X72097Y-46465D01*
X72123Y-46402D01*
X72149Y-46464D01*
X72303Y-46619D01*
X72505Y-46703D01*
X72724Y-46703D01*
X72926Y-46620D01*
X73081Y-46465D01*
X73163Y-46267D01*
X73220Y-46406D01*
X73346Y-46532D01*
X73510Y-46600D01*
X73688Y-46600D01*
X73852Y-46532D01*
X73978Y-46406D01*
X74036Y-46267D01*
X74117Y-46464D01*
X74272Y-46619D01*
X74474Y-46703D01*
X74693Y-46703D01*
X74895Y-46620D01*
X75050Y-46465D01*
X75076Y-46402D01*
X75101Y-46464D01*
X75256Y-46619D01*
X75458Y-46703D01*
X75677Y-46703D01*
X75879Y-46620D01*
X76034Y-46465D01*
X76118Y-46263D01*
X76118Y-46044D01*
X76035Y-45842D01*
X75880Y-45687D01*
X75678Y-45603D01*
X75459Y-45603D01*
X75379Y-45636D01*
X75379Y-42775D01*
X75368Y-42567D01*
X75310Y-42427D01*
X75217Y-42402D01*
X75147Y-42473D01*
X75147Y-42332D01*
X75122Y-42239D01*
X74925Y-42170D01*
X74717Y-42181D01*
X74577Y-42239D01*
X74552Y-42332D01*
X74850Y-42629D01*
X75147Y-42332D01*
X75147Y-42473D01*
X74920Y-42700D01*
X75217Y-42997D01*
X75310Y-42972D01*
X75379Y-42775D01*
X75379Y-45636D01*
X75257Y-45687D01*
X75147Y-45797D01*
X75147Y-43067D01*
X74850Y-42770D01*
X74552Y-43067D01*
X74577Y-43160D01*
X74774Y-43229D01*
X74982Y-43218D01*
X75122Y-43160D01*
X75147Y-43067D01*
X75147Y-45797D01*
X75102Y-45841D01*
X75076Y-45904D01*
X75050Y-45842D01*
X74896Y-45687D01*
X74694Y-45603D01*
X74475Y-45603D01*
X74273Y-45687D01*
X74118Y-45841D01*
X74036Y-46039D01*
X73979Y-45900D01*
X73853Y-45774D01*
X73689Y-45706D01*
X73511Y-45706D01*
X73347Y-45774D01*
X73221Y-45900D01*
X73163Y-46039D01*
X73082Y-45842D01*
X72927Y-45687D01*
X72725Y-45603D01*
X72506Y-45603D01*
X72304Y-45687D01*
X72149Y-45841D01*
X72123Y-45904D01*
X72098Y-45842D01*
X71943Y-45687D01*
X71741Y-45603D01*
X71522Y-45603D01*
X71320Y-45687D01*
X71269Y-45737D01*
X71269Y-38269D01*
X71524Y-38269D01*
X71470Y-38424D01*
X71481Y-38632D01*
X71539Y-38772D01*
X71632Y-38797D01*
X71929Y-38500D01*
X71923Y-38494D01*
X71994Y-38423D01*
X72000Y-38429D01*
X72005Y-38423D01*
X72076Y-38494D01*
X72070Y-38500D01*
X72367Y-38797D01*
X72460Y-38772D01*
X72529Y-38575D01*
X72518Y-38367D01*
X72478Y-38269D01*
X73527Y-38269D01*
X73475Y-38395D01*
X73474Y-38603D01*
X73554Y-38797D01*
X73702Y-38944D01*
X73895Y-39024D01*
X74103Y-39025D01*
X74297Y-38945D01*
X74444Y-38797D01*
X74524Y-38604D01*
X74525Y-38396D01*
X74472Y-38269D01*
X75100Y-38269D01*
X75050Y-38390D01*
X75049Y-38608D01*
X75092Y-38712D01*
X74552Y-39252D01*
X74552Y-39252D01*
X73052Y-40752D01*
X72976Y-40866D01*
X72950Y-41000D01*
X72950Y-42150D01*
X72955Y-42175D01*
X72954Y-42175D01*
X72746Y-42174D01*
X72553Y-42254D01*
X72529Y-42277D01*
X72529Y-41575D01*
X72518Y-41367D01*
X72460Y-41227D01*
X72367Y-41202D01*
X72297Y-41273D01*
X72297Y-41132D01*
X72297Y-38867D01*
X72000Y-38570D01*
X71702Y-38867D01*
X71727Y-38960D01*
X71924Y-39029D01*
X72132Y-39018D01*
X72272Y-38960D01*
X72297Y-38867D01*
X72297Y-41132D01*
X72272Y-41039D01*
X72075Y-40970D01*
X71867Y-40981D01*
X71727Y-41039D01*
X71702Y-41132D01*
X72000Y-41429D01*
X72297Y-41132D01*
X72297Y-41273D01*
X72070Y-41500D01*
X72367Y-41797D01*
X72460Y-41772D01*
X72529Y-41575D01*
X72529Y-42277D01*
X72405Y-42402D01*
X72375Y-42474D01*
X72375Y-42375D01*
X72337Y-42283D01*
X72297Y-42243D01*
X72297Y-41867D01*
X72000Y-41570D01*
X71929Y-41641D01*
X71929Y-41500D01*
X71632Y-41202D01*
X71539Y-41227D01*
X71470Y-41424D01*
X71481Y-41632D01*
X71539Y-41772D01*
X71632Y-41797D01*
X71929Y-41500D01*
X71929Y-41641D01*
X71702Y-41867D01*
X71727Y-41960D01*
X71924Y-42029D01*
X72132Y-42018D01*
X72272Y-41960D01*
X72297Y-41867D01*
X72297Y-42243D01*
X72266Y-42213D01*
X72174Y-42175D01*
X72075Y-42174D01*
X71525Y-42174D01*
X71433Y-42212D01*
X71363Y-42283D01*
X71325Y-42375D01*
X71324Y-42474D01*
X71324Y-43024D01*
X71362Y-43116D01*
X71433Y-43186D01*
X71525Y-43224D01*
X71624Y-43225D01*
X72174Y-43225D01*
X72266Y-43187D01*
X72336Y-43116D01*
X72374Y-43024D01*
X72375Y-42925D01*
X72375Y-42925D01*
X72404Y-42997D01*
X72552Y-43144D01*
X72745Y-43224D01*
X72953Y-43225D01*
X73147Y-43145D01*
X73294Y-42997D01*
X73350Y-42864D01*
X73404Y-42997D01*
X73552Y-43144D01*
X73745Y-43224D01*
X73953Y-43225D01*
X74147Y-43145D01*
X74294Y-42997D01*
X74347Y-42871D01*
X74389Y-42972D01*
X74482Y-42997D01*
X74779Y-42700D01*
X74482Y-42402D01*
X74389Y-42427D01*
X74350Y-42537D01*
X74295Y-42403D01*
X74147Y-42255D01*
X73954Y-42175D01*
X73819Y-42174D01*
X73650Y-42005D01*
X73650Y-41892D01*
X73702Y-41944D01*
X73895Y-42024D01*
X74103Y-42025D01*
X74297Y-41945D01*
X74444Y-41797D01*
X74524Y-41604D01*
X74525Y-41396D01*
X74445Y-41203D01*
X74297Y-41055D01*
X74104Y-40975D01*
X73896Y-40974D01*
X73766Y-41028D01*
X74944Y-39850D01*
X75050Y-39850D01*
X75087Y-39941D01*
X75158Y-40011D01*
X75250Y-40049D01*
X75303Y-40050D01*
X75451Y-41534D01*
X75453Y-41540D01*
X75452Y-41543D01*
X75468Y-41591D01*
X75491Y-41665D01*
X75494Y-41669D01*
X75495Y-41673D01*
X75530Y-41712D01*
X75577Y-41770D01*
X75582Y-41773D01*
X75585Y-41776D01*
X75635Y-41801D01*
X75698Y-41835D01*
X75703Y-41835D01*
X75707Y-41837D01*
X77150Y-42232D01*
X77150Y-42350D01*
X77176Y-42483D01*
X77252Y-42597D01*
X77300Y-42644D01*
X77300Y-42802D01*
X77234Y-42775D01*
X77065Y-42774D01*
X76909Y-42839D01*
X76789Y-42958D01*
X76725Y-43115D01*
X76724Y-43200D01*
X76037Y-43887D01*
X75972Y-43985D01*
X75950Y-44100D01*
X75950Y-44598D01*
X75889Y-44658D01*
X75825Y-44815D01*
X75824Y-44984D01*
X75889Y-45140D01*
X76008Y-45260D01*
X76165Y-45324D01*
X76334Y-45325D01*
X76490Y-45260D01*
X76610Y-45141D01*
X76674Y-44984D01*
X76675Y-44815D01*
X76610Y-44659D01*
X76550Y-44598D01*
X76550Y-44224D01*
X77149Y-43624D01*
X77234Y-43625D01*
X77300Y-43597D01*
X77300Y-43748D01*
X77289Y-43758D01*
X77225Y-43915D01*
X77224Y-44084D01*
X77289Y-44240D01*
X77408Y-44360D01*
X77565Y-44424D01*
X77700Y-44425D01*
X77700Y-47028D01*
X77688Y-47033D01*
X77534Y-47188D01*
X77500Y-47269D01*
X77466Y-47188D01*
X77311Y-47034D01*
X77109Y-46950D01*
X76891Y-46949D01*
X76688Y-47033D01*
X76534Y-47188D01*
X76450Y-47390D01*
X76449Y-47608D01*
X76533Y-47811D01*
X76688Y-47965D01*
X76763Y-47997D01*
X76712Y-48018D01*
X76684Y-48114D01*
X77000Y-48429D01*
X77315Y-48114D01*
X77287Y-48018D01*
X77232Y-47999D01*
X77311Y-47966D01*
X77465Y-47811D01*
X77499Y-47730D01*
X77533Y-47811D01*
X77688Y-47965D01*
X77769Y-47999D01*
X77688Y-48033D01*
X77534Y-48188D01*
X77502Y-48263D01*
X77481Y-48212D01*
X77385Y-48184D01*
X77070Y-48500D01*
X77385Y-48815D01*
X77481Y-48787D01*
X77500Y-48732D01*
X77533Y-48811D01*
X77688Y-48965D01*
X77890Y-49049D01*
X78108Y-49050D01*
X78311Y-48966D01*
X78465Y-48811D01*
X78499Y-48730D01*
X78533Y-48811D01*
X78688Y-48965D01*
X78890Y-49049D01*
X79055Y-49050D01*
X79235Y-49230D01*
X79235Y-49230D01*
G37*
G54D18*
X79235Y-49230D02*
X77315Y-49230D01*
X77315Y-48885D01*
X77000Y-48570D01*
X76929Y-48641D01*
X76929Y-48500D01*
X76614Y-48184D01*
X76518Y-48212D01*
X76445Y-48418D01*
X76456Y-48636D01*
X76518Y-48787D01*
X76614Y-48815D01*
X76929Y-48500D01*
X76929Y-48641D01*
X76684Y-48885D01*
X76712Y-48981D01*
X76918Y-49054D01*
X77136Y-49043D01*
X77287Y-48981D01*
X77315Y-48885D01*
X77315Y-49230D01*
X76000Y-49230D01*
X76015Y-49195D01*
X76015Y-49017D01*
X76015Y-48033D01*
X75947Y-47869D01*
X75821Y-47743D01*
X75657Y-47675D01*
X75480Y-47675D01*
X75315Y-47743D01*
X75189Y-47868D01*
X75121Y-48032D01*
X75121Y-48210D01*
X75189Y-48374D01*
X75315Y-48500D01*
X75479Y-48568D01*
X75656Y-48568D01*
X75821Y-48501D01*
X75947Y-48375D01*
X76015Y-48211D01*
X76015Y-48033D01*
X76015Y-49017D01*
X75947Y-48853D01*
X75821Y-48727D01*
X75657Y-48659D01*
X75480Y-48659D01*
X75315Y-48727D01*
X75189Y-48852D01*
X75121Y-49017D01*
X75121Y-49194D01*
X75136Y-49230D01*
X74154Y-49230D01*
X74154Y-48203D01*
X74143Y-47985D01*
X74081Y-47834D01*
X73985Y-47806D01*
X73915Y-47877D01*
X73915Y-47736D01*
X73887Y-47640D01*
X73681Y-47567D01*
X73463Y-47578D01*
X73312Y-47640D01*
X73284Y-47736D01*
X73600Y-48051D01*
X73915Y-47736D01*
X73915Y-47877D01*
X73670Y-48122D01*
X73985Y-48437D01*
X74081Y-48409D01*
X74154Y-48203D01*
X74154Y-49230D01*
X73915Y-49230D01*
X73915Y-48507D01*
X73600Y-48192D01*
X73529Y-48263D01*
X73529Y-48122D01*
X73214Y-47806D01*
X73118Y-47834D01*
X73045Y-48040D01*
X73056Y-48258D01*
X73118Y-48409D01*
X73214Y-48437D01*
X73529Y-48122D01*
X73529Y-48263D01*
X73284Y-48507D01*
X73312Y-48603D01*
X73518Y-48676D01*
X73736Y-48665D01*
X73887Y-48603D01*
X73915Y-48507D01*
X73915Y-49230D01*
X72063Y-49230D01*
X72078Y-49195D01*
X72078Y-49017D01*
X72010Y-48853D01*
X71884Y-48727D01*
X71720Y-48659D01*
X71543Y-48659D01*
X71378Y-48727D01*
X71269Y-48836D01*
X71269Y-48392D01*
X71378Y-48500D01*
X71542Y-48568D01*
X71719Y-48568D01*
X71884Y-48501D01*
X72010Y-48375D01*
X72078Y-48211D01*
X72078Y-48033D01*
X72010Y-47869D01*
X71884Y-47743D01*
X71720Y-47675D01*
X71543Y-47675D01*
X71378Y-47743D01*
X71269Y-47851D01*
X71269Y-46569D01*
X71319Y-46619D01*
X71521Y-46703D01*
X71740Y-46703D01*
X71942Y-46620D01*
X72097Y-46465D01*
X72123Y-46402D01*
X72149Y-46464D01*
X72303Y-46619D01*
X72505Y-46703D01*
X72724Y-46703D01*
X72926Y-46620D01*
X73081Y-46465D01*
X73163Y-46267D01*
X73220Y-46406D01*
X73346Y-46532D01*
X73510Y-46600D01*
X73688Y-46600D01*
X73852Y-46532D01*
X73978Y-46406D01*
X74036Y-46267D01*
X74117Y-46464D01*
X74272Y-46619D01*
X74474Y-46703D01*
X74693Y-46703D01*
X74895Y-46620D01*
X75050Y-46465D01*
X75076Y-46402D01*
X75101Y-46464D01*
X75256Y-46619D01*
X75458Y-46703D01*
X75677Y-46703D01*
X75879Y-46620D01*
X76034Y-46465D01*
X76118Y-46263D01*
X76118Y-46044D01*
X76035Y-45842D01*
X75880Y-45687D01*
X75678Y-45603D01*
X75459Y-45603D01*
X75379Y-45636D01*
X75379Y-42775D01*
X75368Y-42567D01*
X75310Y-42427D01*
X75217Y-42402D01*
X75147Y-42473D01*
X75147Y-42332D01*
X75122Y-42239D01*
X74925Y-42170D01*
X74717Y-42181D01*
X74577Y-42239D01*
X74552Y-42332D01*
X74850Y-42629D01*
X75147Y-42332D01*
X75147Y-42473D01*
X74920Y-42700D01*
X75217Y-42997D01*
X75310Y-42972D01*
X75379Y-42775D01*
X75379Y-45636D01*
X75257Y-45687D01*
X75147Y-45797D01*
X75147Y-43067D01*
X74850Y-42770D01*
X74552Y-43067D01*
X74577Y-43160D01*
X74774Y-43229D01*
X74982Y-43218D01*
X75122Y-43160D01*
X75147Y-43067D01*
X75147Y-45797D01*
X75102Y-45841D01*
X75076Y-45904D01*
X75050Y-45842D01*
X74896Y-45687D01*
X74694Y-45603D01*
X74475Y-45603D01*
X74273Y-45687D01*
X74118Y-45841D01*
X74036Y-46039D01*
X73979Y-45900D01*
X73853Y-45774D01*
X73689Y-45706D01*
X73511Y-45706D01*
X73347Y-45774D01*
X73221Y-45900D01*
X73163Y-46039D01*
X73082Y-45842D01*
X72927Y-45687D01*
X72725Y-45603D01*
X72506Y-45603D01*
X72304Y-45687D01*
X72149Y-45841D01*
X72123Y-45904D01*
X72098Y-45842D01*
X71943Y-45687D01*
X71741Y-45603D01*
X71522Y-45603D01*
X71320Y-45687D01*
X71269Y-45737D01*
X71269Y-38269D01*
X71524Y-38269D01*
X71470Y-38424D01*
X71481Y-38632D01*
X71539Y-38772D01*
X71632Y-38797D01*
X71929Y-38500D01*
X71923Y-38494D01*
X71994Y-38423D01*
X72000Y-38429D01*
X72005Y-38423D01*
X72076Y-38494D01*
X72070Y-38500D01*
X72367Y-38797D01*
X72460Y-38772D01*
X72529Y-38575D01*
X72518Y-38367D01*
X72478Y-38269D01*
X73527Y-38269D01*
X73475Y-38395D01*
X73474Y-38603D01*
X73554Y-38797D01*
X73702Y-38944D01*
X73895Y-39024D01*
X74103Y-39025D01*
X74297Y-38945D01*
X74444Y-38797D01*
X74524Y-38604D01*
X74525Y-38396D01*
X74472Y-38269D01*
X75100Y-38269D01*
X75050Y-38390D01*
X75049Y-38608D01*
X75092Y-38712D01*
X74552Y-39252D01*
X74552Y-39252D01*
X73052Y-40752D01*
X72976Y-40866D01*
X72950Y-41000D01*
X72950Y-42150D01*
X72955Y-42175D01*
X72954Y-42175D01*
X72746Y-42174D01*
X72553Y-42254D01*
X72529Y-42277D01*
X72529Y-41575D01*
X72518Y-41367D01*
X72460Y-41227D01*
X72367Y-41202D01*
X72297Y-41273D01*
X72297Y-41132D01*
X72297Y-38867D01*
X72000Y-38570D01*
X71702Y-38867D01*
X71727Y-38960D01*
X71924Y-39029D01*
X72132Y-39018D01*
X72272Y-38960D01*
X72297Y-38867D01*
X72297Y-41132D01*
X72272Y-41039D01*
X72075Y-40970D01*
X71867Y-40981D01*
X71727Y-41039D01*
X71702Y-41132D01*
X72000Y-41429D01*
X72297Y-41132D01*
X72297Y-41273D01*
X72070Y-41500D01*
X72367Y-41797D01*
X72460Y-41772D01*
X72529Y-41575D01*
X72529Y-42277D01*
X72405Y-42402D01*
X72375Y-42474D01*
X72375Y-42375D01*
X72337Y-42283D01*
X72297Y-42243D01*
X72297Y-41867D01*
X72000Y-41570D01*
X71929Y-41641D01*
X71929Y-41500D01*
X71632Y-41202D01*
X71539Y-41227D01*
X71470Y-41424D01*
X71481Y-41632D01*
X71539Y-41772D01*
X71632Y-41797D01*
X71929Y-41500D01*
X71929Y-41641D01*
X71702Y-41867D01*
X71727Y-41960D01*
X71924Y-42029D01*
X72132Y-42018D01*
X72272Y-41960D01*
X72297Y-41867D01*
X72297Y-42243D01*
X72266Y-42213D01*
X72174Y-42175D01*
X72075Y-42174D01*
X71525Y-42174D01*
X71433Y-42212D01*
X71363Y-42283D01*
X71325Y-42375D01*
X71324Y-42474D01*
X71324Y-43024D01*
X71362Y-43116D01*
X71433Y-43186D01*
X71525Y-43224D01*
X71624Y-43225D01*
X72174Y-43225D01*
X72266Y-43187D01*
X72336Y-43116D01*
X72374Y-43024D01*
X72375Y-42925D01*
X72375Y-42925D01*
X72404Y-42997D01*
X72552Y-43144D01*
X72745Y-43224D01*
X72953Y-43225D01*
X73147Y-43145D01*
X73294Y-42997D01*
X73350Y-42864D01*
X73404Y-42997D01*
X73552Y-43144D01*
X73745Y-43224D01*
X73953Y-43225D01*
X74147Y-43145D01*
X74294Y-42997D01*
X74347Y-42871D01*
X74389Y-42972D01*
X74482Y-42997D01*
X74779Y-42700D01*
X74482Y-42402D01*
X74389Y-42427D01*
X74350Y-42537D01*
X74295Y-42403D01*
X74147Y-42255D01*
X73954Y-42175D01*
X73819Y-42174D01*
X73650Y-42005D01*
X73650Y-41892D01*
X73702Y-41944D01*
X73895Y-42024D01*
X74103Y-42025D01*
X74297Y-41945D01*
X74444Y-41797D01*
X74524Y-41604D01*
X74525Y-41396D01*
X74445Y-41203D01*
X74297Y-41055D01*
X74104Y-40975D01*
X73896Y-40974D01*
X73766Y-41028D01*
X74944Y-39850D01*
X75050Y-39850D01*
X75087Y-39941D01*
X75158Y-40011D01*
X75250Y-40049D01*
X75303Y-40050D01*
X75451Y-41534D01*
X75453Y-41540D01*
X75452Y-41543D01*
X75468Y-41591D01*
X75491Y-41665D01*
X75494Y-41669D01*
X75495Y-41673D01*
X75530Y-41712D01*
X75577Y-41770D01*
X75582Y-41773D01*
X75585Y-41776D01*
X75635Y-41801D01*
X75698Y-41835D01*
X75703Y-41835D01*
X75707Y-41837D01*
X77150Y-42232D01*
X77150Y-42350D01*
X77176Y-42483D01*
X77252Y-42597D01*
X77300Y-42644D01*
X77300Y-42802D01*
X77234Y-42775D01*
X77065Y-42774D01*
X76909Y-42839D01*
X76789Y-42958D01*
X76725Y-43115D01*
X76724Y-43200D01*
X76037Y-43887D01*
X75972Y-43985D01*
X75950Y-44100D01*
X75950Y-44598D01*
X75889Y-44658D01*
X75825Y-44815D01*
X75824Y-44984D01*
X75889Y-45140D01*
X76008Y-45260D01*
X76165Y-45324D01*
X76334Y-45325D01*
X76490Y-45260D01*
X76610Y-45141D01*
X76674Y-44984D01*
X76675Y-44815D01*
X76610Y-44659D01*
X76550Y-44598D01*
X76550Y-44224D01*
X77149Y-43624D01*
X77234Y-43625D01*
X77300Y-43597D01*
X77300Y-43748D01*
X77289Y-43758D01*
X77225Y-43915D01*
X77224Y-44084D01*
X77289Y-44240D01*
X77408Y-44360D01*
X77565Y-44424D01*
X77700Y-44425D01*
X77700Y-47028D01*
X77688Y-47033D01*
X77534Y-47188D01*
X77500Y-47269D01*
X77466Y-47188D01*
X77311Y-47034D01*
X77109Y-46950D01*
X76891Y-46949D01*
X76688Y-47033D01*
X76534Y-47188D01*
X76450Y-47390D01*
X76449Y-47608D01*
X76533Y-47811D01*
X76688Y-47965D01*
X76763Y-47997D01*
X76712Y-48018D01*
X76684Y-48114D01*
X77000Y-48429D01*
X77315Y-48114D01*
X77287Y-48018D01*
X77232Y-47999D01*
X77311Y-47966D01*
X77465Y-47811D01*
X77499Y-47730D01*
X77533Y-47811D01*
X77688Y-47965D01*
X77769Y-47999D01*
X77688Y-48033D01*
X77534Y-48188D01*
X77502Y-48263D01*
X77481Y-48212D01*
X77385Y-48184D01*
X77070Y-48500D01*
X77385Y-48815D01*
X77481Y-48787D01*
X77500Y-48732D01*
X77533Y-48811D01*
X77688Y-48965D01*
X77890Y-49049D01*
X78108Y-49050D01*
X78311Y-48966D01*
X78465Y-48811D01*
X78499Y-48730D01*
X78533Y-48811D01*
X78688Y-48965D01*
X78890Y-49049D01*
X79055Y-49050D01*
X79235Y-49230D01*
G54D10*
G36*
X84130Y-46686D02*
X84047Y-46686D01*
X84047Y-40867D01*
X83750Y-40570D01*
X83679Y-40641D01*
X83452Y-40867D01*
X83477Y-40960D01*
X83674Y-41029D01*
X83882Y-41018D01*
X84022Y-40960D01*
X84047Y-40867D01*
X84047Y-46686D01*
X82266Y-46686D01*
X82174Y-46724D01*
X82103Y-46795D01*
X82065Y-46887D01*
X82065Y-46986D01*
X82065Y-47970D01*
X82103Y-48062D01*
X82173Y-48133D01*
X82265Y-48171D01*
X82365Y-48171D01*
X82733Y-48171D01*
X82055Y-48850D01*
X81279Y-48850D01*
X81279Y-40575D01*
X81268Y-40367D01*
X81210Y-40227D01*
X81117Y-40202D01*
X81047Y-40273D01*
X81047Y-40132D01*
X81022Y-40039D01*
X80825Y-39970D01*
X80617Y-39981D01*
X80477Y-40039D01*
X80452Y-40132D01*
X80750Y-40429D01*
X81047Y-40132D01*
X81047Y-40273D01*
X80820Y-40500D01*
X81117Y-40797D01*
X81210Y-40772D01*
X81279Y-40575D01*
X81279Y-48850D01*
X79844Y-48850D01*
X79549Y-48554D01*
X79550Y-48391D01*
X79466Y-48188D01*
X79327Y-48050D01*
X79349Y-48050D01*
X79441Y-48012D01*
X79511Y-47941D01*
X79549Y-47849D01*
X79550Y-47750D01*
X79550Y-47150D01*
X79512Y-47058D01*
X79441Y-46988D01*
X79349Y-46950D01*
X79300Y-46950D01*
X79300Y-43474D01*
X80549Y-42224D01*
X80634Y-42225D01*
X80790Y-42160D01*
X80910Y-42041D01*
X80974Y-41884D01*
X80975Y-41715D01*
X80910Y-41559D01*
X80791Y-41439D01*
X80730Y-41414D01*
X80740Y-41410D01*
X80860Y-41291D01*
X80924Y-41134D01*
X80925Y-41001D01*
X81022Y-40960D01*
X81047Y-40867D01*
X80750Y-40570D01*
X80744Y-40576D01*
X80673Y-40505D01*
X80679Y-40500D01*
X80382Y-40202D01*
X80289Y-40227D01*
X80220Y-40424D01*
X80231Y-40632D01*
X80256Y-40692D01*
X80154Y-40794D01*
X80154Y-39581D01*
X80143Y-39363D01*
X80081Y-39212D01*
X79985Y-39184D01*
X79915Y-39255D01*
X79915Y-39114D01*
X79887Y-39018D01*
X79839Y-39001D01*
X79887Y-38981D01*
X79915Y-38885D01*
X79600Y-38570D01*
X79284Y-38885D01*
X79312Y-38981D01*
X79360Y-38998D01*
X79312Y-39018D01*
X79284Y-39114D01*
X79600Y-39429D01*
X79915Y-39114D01*
X79915Y-39255D01*
X79670Y-39500D01*
X79985Y-39815D01*
X80081Y-39787D01*
X80154Y-39581D01*
X80154Y-40794D01*
X80139Y-40808D01*
X80075Y-40965D01*
X80075Y-40979D01*
X79915Y-41139D01*
X79915Y-39885D01*
X79600Y-39570D01*
X79284Y-39885D01*
X79312Y-39981D01*
X79518Y-40054D01*
X79736Y-40043D01*
X79887Y-39981D01*
X79915Y-39885D01*
X79915Y-41139D01*
X79455Y-41600D01*
X78851Y-41600D01*
X78841Y-41589D01*
X78684Y-41525D01*
X78515Y-41524D01*
X78400Y-41572D01*
X78400Y-40012D01*
X78490Y-40049D01*
X78708Y-40050D01*
X78911Y-39966D01*
X79065Y-39811D01*
X79097Y-39736D01*
X79118Y-39787D01*
X79214Y-39815D01*
X79529Y-39500D01*
X79214Y-39184D01*
X79118Y-39212D01*
X79099Y-39267D01*
X79066Y-39188D01*
X78911Y-39034D01*
X78830Y-39000D01*
X78911Y-38966D01*
X79065Y-38811D01*
X79097Y-38736D01*
X79118Y-38787D01*
X79214Y-38815D01*
X79529Y-38500D01*
X79523Y-38494D01*
X79594Y-38423D01*
X79600Y-38429D01*
X79605Y-38423D01*
X79676Y-38494D01*
X79670Y-38500D01*
X79985Y-38815D01*
X80081Y-38787D01*
X80154Y-38581D01*
X80143Y-38363D01*
X80105Y-38269D01*
X80277Y-38269D01*
X80225Y-38395D01*
X80224Y-38603D01*
X80304Y-38797D01*
X80452Y-38944D01*
X80645Y-39024D01*
X80853Y-39025D01*
X81047Y-38945D01*
X81194Y-38797D01*
X81274Y-38604D01*
X81275Y-38396D01*
X81222Y-38269D01*
X83277Y-38269D01*
X83225Y-38395D01*
X83224Y-38603D01*
X83270Y-38714D01*
X83249Y-38714D01*
X83249Y-38777D01*
X83187Y-38714D01*
X82266Y-38714D01*
X82174Y-38752D01*
X82103Y-38822D01*
X82065Y-38914D01*
X82065Y-39014D01*
X82065Y-39344D01*
X82128Y-39406D01*
X83250Y-39406D01*
X83250Y-39398D01*
X83350Y-39398D01*
X83350Y-39406D01*
X83357Y-39406D01*
X83357Y-39506D01*
X83350Y-39506D01*
X83350Y-40136D01*
X83354Y-40140D01*
X83336Y-40157D01*
X83382Y-40202D01*
X83289Y-40227D01*
X83250Y-40339D01*
X83250Y-40136D01*
X83250Y-39506D01*
X82128Y-39506D01*
X82065Y-39569D01*
X82065Y-39899D01*
X82065Y-39998D01*
X82103Y-40090D01*
X82174Y-40160D01*
X82266Y-40198D01*
X83187Y-40198D01*
X83250Y-40136D01*
X83250Y-40339D01*
X83220Y-40424D01*
X83231Y-40632D01*
X83289Y-40772D01*
X83382Y-40797D01*
X83679Y-40500D01*
X83673Y-40494D01*
X83744Y-40423D01*
X83750Y-40429D01*
X83755Y-40423D01*
X83826Y-40494D01*
X83820Y-40500D01*
X84117Y-40797D01*
X84130Y-40793D01*
X84130Y-46686D01*
X84130Y-46686D01*
G37*
G54D18*
X84130Y-46686D02*
X84047Y-46686D01*
X84047Y-40867D01*
X83750Y-40570D01*
X83679Y-40641D01*
X83452Y-40867D01*
X83477Y-40960D01*
X83674Y-41029D01*
X83882Y-41018D01*
X84022Y-40960D01*
X84047Y-40867D01*
X84047Y-46686D01*
X82266Y-46686D01*
X82174Y-46724D01*
X82103Y-46795D01*
X82065Y-46887D01*
X82065Y-46986D01*
X82065Y-47970D01*
X82103Y-48062D01*
X82173Y-48133D01*
X82265Y-48171D01*
X82365Y-48171D01*
X82733Y-48171D01*
X82055Y-48850D01*
X81279Y-48850D01*
X81279Y-40575D01*
X81268Y-40367D01*
X81210Y-40227D01*
X81117Y-40202D01*
X81047Y-40273D01*
X81047Y-40132D01*
X81022Y-40039D01*
X80825Y-39970D01*
X80617Y-39981D01*
X80477Y-40039D01*
X80452Y-40132D01*
X80750Y-40429D01*
X81047Y-40132D01*
X81047Y-40273D01*
X80820Y-40500D01*
X81117Y-40797D01*
X81210Y-40772D01*
X81279Y-40575D01*
X81279Y-48850D01*
X79844Y-48850D01*
X79549Y-48554D01*
X79550Y-48391D01*
X79466Y-48188D01*
X79327Y-48050D01*
X79349Y-48050D01*
X79441Y-48012D01*
X79511Y-47941D01*
X79549Y-47849D01*
X79550Y-47750D01*
X79550Y-47150D01*
X79512Y-47058D01*
X79441Y-46988D01*
X79349Y-46950D01*
X79300Y-46950D01*
X79300Y-43474D01*
X80549Y-42224D01*
X80634Y-42225D01*
X80790Y-42160D01*
X80910Y-42041D01*
X80974Y-41884D01*
X80975Y-41715D01*
X80910Y-41559D01*
X80791Y-41439D01*
X80730Y-41414D01*
X80740Y-41410D01*
X80860Y-41291D01*
X80924Y-41134D01*
X80925Y-41001D01*
X81022Y-40960D01*
X81047Y-40867D01*
X80750Y-40570D01*
X80744Y-40576D01*
X80673Y-40505D01*
X80679Y-40500D01*
X80382Y-40202D01*
X80289Y-40227D01*
X80220Y-40424D01*
X80231Y-40632D01*
X80256Y-40692D01*
X80154Y-40794D01*
X80154Y-39581D01*
X80143Y-39363D01*
X80081Y-39212D01*
X79985Y-39184D01*
X79915Y-39255D01*
X79915Y-39114D01*
X79887Y-39018D01*
X79839Y-39001D01*
X79887Y-38981D01*
X79915Y-38885D01*
X79600Y-38570D01*
X79284Y-38885D01*
X79312Y-38981D01*
X79360Y-38998D01*
X79312Y-39018D01*
X79284Y-39114D01*
X79600Y-39429D01*
X79915Y-39114D01*
X79915Y-39255D01*
X79670Y-39500D01*
X79985Y-39815D01*
X80081Y-39787D01*
X80154Y-39581D01*
X80154Y-40794D01*
X80139Y-40808D01*
X80075Y-40965D01*
X80075Y-40979D01*
X79915Y-41139D01*
X79915Y-39885D01*
X79600Y-39570D01*
X79284Y-39885D01*
X79312Y-39981D01*
X79518Y-40054D01*
X79736Y-40043D01*
X79887Y-39981D01*
X79915Y-39885D01*
X79915Y-41139D01*
X79455Y-41600D01*
X78851Y-41600D01*
X78841Y-41589D01*
X78684Y-41525D01*
X78515Y-41524D01*
X78400Y-41572D01*
X78400Y-40012D01*
X78490Y-40049D01*
X78708Y-40050D01*
X78911Y-39966D01*
X79065Y-39811D01*
X79097Y-39736D01*
X79118Y-39787D01*
X79214Y-39815D01*
X79529Y-39500D01*
X79214Y-39184D01*
X79118Y-39212D01*
X79099Y-39267D01*
X79066Y-39188D01*
X78911Y-39034D01*
X78830Y-39000D01*
X78911Y-38966D01*
X79065Y-38811D01*
X79097Y-38736D01*
X79118Y-38787D01*
X79214Y-38815D01*
X79529Y-38500D01*
X79523Y-38494D01*
X79594Y-38423D01*
X79600Y-38429D01*
X79605Y-38423D01*
X79676Y-38494D01*
X79670Y-38500D01*
X79985Y-38815D01*
X80081Y-38787D01*
X80154Y-38581D01*
X80143Y-38363D01*
X80105Y-38269D01*
X80277Y-38269D01*
X80225Y-38395D01*
X80224Y-38603D01*
X80304Y-38797D01*
X80452Y-38944D01*
X80645Y-39024D01*
X80853Y-39025D01*
X81047Y-38945D01*
X81194Y-38797D01*
X81274Y-38604D01*
X81275Y-38396D01*
X81222Y-38269D01*
X83277Y-38269D01*
X83225Y-38395D01*
X83224Y-38603D01*
X83270Y-38714D01*
X83249Y-38714D01*
X83249Y-38777D01*
X83187Y-38714D01*
X82266Y-38714D01*
X82174Y-38752D01*
X82103Y-38822D01*
X82065Y-38914D01*
X82065Y-39014D01*
X82065Y-39344D01*
X82128Y-39406D01*
X83250Y-39406D01*
X83250Y-39398D01*
X83350Y-39398D01*
X83350Y-39406D01*
X83357Y-39406D01*
X83357Y-39506D01*
X83350Y-39506D01*
X83350Y-40136D01*
X83354Y-40140D01*
X83336Y-40157D01*
X83382Y-40202D01*
X83289Y-40227D01*
X83250Y-40339D01*
X83250Y-40136D01*
X83250Y-39506D01*
X82128Y-39506D01*
X82065Y-39569D01*
X82065Y-39899D01*
X82065Y-39998D01*
X82103Y-40090D01*
X82174Y-40160D01*
X82266Y-40198D01*
X83187Y-40198D01*
X83250Y-40136D01*
X83250Y-40339D01*
X83220Y-40424D01*
X83231Y-40632D01*
X83289Y-40772D01*
X83382Y-40797D01*
X83679Y-40500D01*
X83673Y-40494D01*
X83744Y-40423D01*
X83750Y-40429D01*
X83755Y-40423D01*
X83826Y-40494D01*
X83820Y-40500D01*
X84117Y-40797D01*
X84130Y-40793D01*
X84130Y-46686D01*
M02*
