M48
INCH,TZ
T1C0.025
T2C0.032
T3C0.039
T4C0.040
%
G90
G05
T1
X071500Y-043700
X074900Y-041600
X076250Y-044900
X076500Y-041000
X077150Y-043200
X077200Y-046200
X077500Y-041950
X077600Y-040300
X077650Y-044000
X078100Y-042550
X078100Y-043600
X078600Y-041950
X079000Y-042800
X080500Y-041050
X080550Y-041800
X081700Y-047100
X081700Y-048500
X082400Y-045900
X083200Y-044600
X083300Y-042900
X083700Y-048900
T2
X071850Y-042700
X072000Y-038500
X072000Y-041500
X072850Y-042700
X073850Y-042700
X074000Y-038500
X074000Y-041500
X074850Y-042700
X080750Y-038500
X080750Y-040500
X083750Y-038500
X083750Y-040500
T3
X071631Y-048122
X071631Y-049106
X073600Y-046154
X075569Y-048122
X075569Y-049106
T4
X071631Y-046154
X072616Y-046154
X073600Y-048122
X074584Y-046154
X075569Y-046154
X075600Y-038500
X075600Y-039500
X076600Y-038500
X076600Y-039500
X077000Y-047500
X077000Y-048500
X077600Y-038500
X077600Y-039500
X078000Y-047500
X078000Y-048500
X078600Y-038500
X078600Y-039500
X079000Y-047500
X079000Y-048500
X079600Y-038500
X079600Y-039500
T0
M30
