G04 (created by PCBNEW (2013-04-19 BZR 4011)-stable) date 6/24/2013 11:27:29 PM*
%MOIN*%
G04 Gerber Fmt 3.4, Leading zero omitted, Abs format*
%FSLAX34Y34*%
G01*
G70*
G90*
G04 APERTURE LIST*
%ADD10C,0.006*%
%ADD11C,0.00590551*%
%ADD12R,0.055X0.055*%
%ADD13C,0.055*%
%ADD14R,0.06X0.06*%
%ADD15C,0.06*%
%ADD16R,0.19685X0.0984252*%
G04 APERTURE END LIST*
G54D10*
G54D11*
X76121Y-48478D02*
X76140Y-48496D01*
X76159Y-48553D01*
X76159Y-48590D01*
X76140Y-48646D01*
X76103Y-48684D01*
X76065Y-48703D01*
X75990Y-48721D01*
X75934Y-48721D01*
X75859Y-48703D01*
X75821Y-48684D01*
X75784Y-48646D01*
X75765Y-48590D01*
X75765Y-48553D01*
X75784Y-48496D01*
X75803Y-48478D01*
X75765Y-48234D02*
X75765Y-48159D01*
X75784Y-48121D01*
X75821Y-48084D01*
X75896Y-48065D01*
X76028Y-48065D01*
X76103Y-48084D01*
X76140Y-48121D01*
X76159Y-48159D01*
X76159Y-48234D01*
X76140Y-48271D01*
X76103Y-48309D01*
X76028Y-48328D01*
X75896Y-48328D01*
X75821Y-48309D01*
X75784Y-48271D01*
X75765Y-48234D01*
X76159Y-47896D02*
X75765Y-47896D01*
X76159Y-47671D01*
X75765Y-47671D01*
X76159Y-47278D02*
X76159Y-47503D01*
X76159Y-47390D02*
X75765Y-47390D01*
X75821Y-47428D01*
X75859Y-47465D01*
X75878Y-47503D01*
X83590Y-46407D02*
X83590Y-46013D01*
X83440Y-46013D01*
X83403Y-46032D01*
X83384Y-46051D01*
X83365Y-46088D01*
X83365Y-46144D01*
X83384Y-46182D01*
X83403Y-46201D01*
X83440Y-46219D01*
X83590Y-46219D01*
X82990Y-46407D02*
X83215Y-46407D01*
X83103Y-46407D02*
X83103Y-46013D01*
X83140Y-46069D01*
X83178Y-46107D01*
X83215Y-46126D01*
X84284Y-40394D02*
X84228Y-40412D01*
X84209Y-40431D01*
X84190Y-40469D01*
X84190Y-40525D01*
X84209Y-40562D01*
X84228Y-40581D01*
X84265Y-40600D01*
X84415Y-40600D01*
X84415Y-40206D01*
X84284Y-40206D01*
X84246Y-40225D01*
X84228Y-40244D01*
X84209Y-40281D01*
X84209Y-40319D01*
X84228Y-40356D01*
X84246Y-40375D01*
X84284Y-40394D01*
X84415Y-40394D01*
X84040Y-40487D02*
X83853Y-40487D01*
X84078Y-40600D02*
X83946Y-40206D01*
X83815Y-40600D01*
X83740Y-40206D02*
X83515Y-40206D01*
X83628Y-40600D02*
X83628Y-40206D01*
X83440Y-40206D02*
X83215Y-40206D01*
X83328Y-40600D02*
X83328Y-40206D01*
X83084Y-40394D02*
X82953Y-40394D01*
X82896Y-40600D02*
X83084Y-40600D01*
X83084Y-40206D01*
X82896Y-40206D01*
X82503Y-40600D02*
X82634Y-40412D01*
X82728Y-40600D02*
X82728Y-40206D01*
X82578Y-40206D01*
X82540Y-40225D01*
X82521Y-40244D01*
X82503Y-40281D01*
X82503Y-40337D01*
X82521Y-40375D01*
X82540Y-40394D01*
X82578Y-40412D01*
X82728Y-40412D01*
X82259Y-40412D02*
X82259Y-40600D01*
X82390Y-40206D02*
X82259Y-40412D01*
X82128Y-40206D01*
X81926Y-39475D02*
X81326Y-39475D01*
X82025Y-47447D02*
X81425Y-47447D01*
X81725Y-47747D02*
X81725Y-47147D01*
%LPC*%
G54D12*
X71850Y-42700D03*
G54D13*
X72850Y-42700D03*
X73850Y-42700D03*
X74850Y-42700D03*
G54D14*
X75600Y-39500D03*
G54D15*
X75600Y-38500D03*
X76600Y-39500D03*
X76600Y-38500D03*
X77600Y-39500D03*
X77600Y-38500D03*
X78600Y-39500D03*
X78600Y-38500D03*
X79600Y-39500D03*
X79600Y-38500D03*
G54D14*
X79000Y-47500D03*
G54D15*
X79000Y-48500D03*
X78000Y-47500D03*
X78000Y-48500D03*
X77000Y-47500D03*
X77000Y-48500D03*
G54D13*
X72000Y-38500D03*
X74000Y-38500D03*
X72000Y-41500D03*
X74000Y-41500D03*
G54D15*
X71631Y-46153D03*
X72615Y-46153D03*
X74584Y-46153D03*
X75568Y-46153D03*
X73600Y-48122D03*
G54D13*
X80750Y-40500D03*
X80750Y-38500D03*
X83750Y-40500D03*
X83750Y-38500D03*
G54D16*
X83300Y-47429D03*
X83300Y-39456D03*
M02*
